<?xml version="1.0" encoding="UTF-8" standalone="no"?>
<svg
   version="1.1"
   id="Layer_1"
   x="0px"
   y="0px"
   width="100%"
   viewBox="0 0 1326 236"
   enable-background="new 0 0 1326 236"
   xml:space="preserve"
   sodipodi:docname="aufeminin.svg"
   inkscape:version="1.2.2 (b0a8486541, 2022-12-01)"
   xmlns:inkscape="http://www.inkscape.org/namespaces/inkscape"
   xmlns:sodipodi="http://sodipodi.sourceforge.net/DTD/sodipodi-0.dtd"
   xmlns="http://www.w3.org/2000/svg"
   xmlns:svg="http://www.w3.org/2000/svg"><defs
   id="defs33" /><sodipodi:namedview
   id="namedview31"
   pagecolor="#505050"
   bordercolor="#eeeeee"
   borderopacity="1"
   inkscape:showpageshadow="0"
   inkscape:pageopacity="0"
   inkscape:pagecheckerboard="0"
   inkscape:deskcolor="#505050"
   showgrid="false"
   inkscape:zoom="1.1794872"
   inkscape:cx="663.42391"
   inkscape:cy="117.42391"
   inkscape:window-width="1917"
   inkscape:window-height="683"
   inkscape:window-x="1920"
   inkscape:window-y="3094"
   inkscape:window-maximized="1"
   inkscape:current-layer="Layer_1" />

<path
   fill="#1E1E1D"
   opacity="1.000000"
   stroke="none"
   d=" M1327.000000,229.666672   C1305.010376,230.070312 1283.020630,230.146347 1261.031006,230.185074   C1260.320923,230.186325 1259.609985,229.805832 1258.793335,228.376144   C1260.690918,228.043884 1262.578735,227.509766 1264.487915,227.417267   C1270.165405,227.142242 1273.453247,224.186844 1274.386230,218.709549   C1275.027344,214.945358 1275.725342,211.120392 1275.707520,207.325806   C1275.586060,181.335724 1275.433472,155.343460 1274.906128,129.359695   C1274.803467,124.297684 1273.514893,119.105309 1271.915039,114.256149   C1266.462402,97.728279 1252.376099,90.937271 1235.831299,96.561134   C1225.726074,99.996056 1218.929688,107.515175 1212.765381,115.714180   C1212.148315,116.534927 1211.999512,117.870804 1211.998535,118.967911   C1211.969360,154.630478 1211.984497,190.293060 1212.002441,225.955627   C1212.002563,226.280930 1212.130981,226.606155 1212.411743,227.938187   C1217.745972,227.938187 1223.312988,227.938187 1228.880127,227.938187   C1228.860107,228.486694 1228.839966,229.035202 1228.819946,229.583710   C1205.728271,229.583710 1182.636597,229.583710 1159.545044,229.583710   C1159.479370,229.176590 1159.413574,228.769485 1159.347900,228.362366   C1160.779663,228.059845 1162.200195,227.575562 1163.644897,227.487137   C1169.121460,227.151917 1172.287842,224.200562 1173.083862,218.932175   C1173.852783,213.842743 1174.661987,208.696884 1174.700562,203.570160   C1174.894653,177.741302 1174.840698,151.910583 1174.878296,126.080528   C1174.890503,117.722740 1170.243164,111.700409 1164.730225,106.204140   C1163.350708,104.828880 1161.384399,104.042328 1159.230225,102.700211   C1173.567871,94.945221 1186.083984,88.175507 1199.242188,81.058479   C1207.393677,89.182175 1210.204224,100.281708 1211.490845,109.179642   C1216.410034,105.070038 1222.453247,100.138145 1228.367920,95.056664   C1241.878296,83.449585 1257.314331,78.514679 1275.085693,81.026863   C1293.142090,83.579346 1305.950317,96.176674 1309.826294,116.627861   C1311.426636,125.072029 1311.921387,133.809784 1312.067017,142.428406   C1312.387817,161.420868 1312.118408,180.422699 1312.200317,199.420227   C1312.221802,204.409683 1312.489258,209.410934 1312.917603,214.383163   C1313.827881,224.948029 1315.891479,226.961151 1326.585938,227.935379   C1327.000000,228.444443 1327.000000,228.888901 1327.000000,229.666672  z"
   id="path4" />
<path
   fill="#20201E"
   opacity="1.000000"
   stroke="none"
   d=" M1.000000,193.466125   C11.628288,168.866135 34.347111,160.038696 55.951424,150.061722   C67.991798,144.501389 80.478920,139.878464 92.901321,135.195480   C96.206238,133.949600 97.298676,132.372620 96.850990,129.059937   C95.540092,119.359917 95.083740,109.478897 92.938614,99.974365   C90.469971,89.036438 84.091644,83.746704 75.214607,83.007584   C63.940594,82.068893 56.193733,86.062950 51.335602,96.355179   C47.803097,103.839005 45.246300,111.778999 42.139542,119.469177   C37.166008,131.780197 18.918610,136.770981 8.187762,128.836700   C4.191911,125.882195 2.665335,121.658714 4.501434,117.394234   C6.418575,112.941521 8.882454,107.985321 12.569704,105.153099   C37.150593,86.272232 64.493118,76.127167 95.910110,82.266792   C119.290726,86.835907 132.644806,103.790916 132.871109,129.294235   C133.046890,149.103577 132.020660,168.920883 131.833817,188.737534   C131.765076,196.027939 131.990067,203.419769 133.140594,210.595444   C134.307236,217.871536 139.404007,219.250031 144.329208,213.728638   C147.813721,209.822327 150.130920,204.893967 153.212204,200.596054   C154.052917,199.423401 155.771866,198.880386 157.087784,198.048416   C156.987747,199.491989 157.409561,201.290131 156.706909,202.324249   C149.723434,212.601974 141.464035,221.652878 130.777390,228.257202   C124.312042,232.252762 117.334534,233.951035 109.783615,232.895828   C101.191742,231.695190 95.720261,225.801727 95.091591,216.006332   C94.572342,207.915695 94.985504,199.765213 94.985504,190.400116   C93.578766,192.641891 92.753433,193.915024 91.969421,195.213104   C84.553314,207.491989 75.349464,218.108994 63.086040,225.774353   C53.642555,231.677078 43.417751,234.606461 32.182709,233.103394   C16.931013,231.062958 6.367700,223.262924 1.340813,208.126083   C1.000000,203.310745 1.000000,198.621490 1.000000,193.466125  M36.376926,186.696243   C36.578709,198.079697 40.586033,207.352585 51.814629,211.659744   C63.192318,216.024078 73.064201,212.569656 81.267380,204.090042   C89.627243,195.448441 96.156578,185.983322 95.736725,173.036697   C95.346313,160.997620 95.653381,148.935913 95.653381,136.385712   C80.873856,143.422470 64.907555,148.266586 51.558079,158.472504   C42.528412,165.375854 36.891544,174.189957 36.376926,186.696243  z"
   id="path6" />
<path
   fill="#20201E"
   opacity="1.000000"
   stroke="none"
   d=" M450.531616,1.000000   C454.892487,2.070080 458.877350,2.886562 462.658173,4.263299   C470.403076,7.083500 472.139740,11.680702 468.613068,19.112503   C462.808960,31.343658 449.838776,37.071625 436.818604,32.573578   C430.728607,30.469687 425.140320,26.946920 419.106232,24.638018   C413.732483,22.581791 408.149475,20.573517 402.493896,19.870129   C394.119873,18.828642 388.702942,22.261530 385.852966,30.306303   C383.711578,36.350842 382.037842,42.808628 381.652802,49.173004   C380.982269,60.255890 381.466187,71.408623 381.466187,82.987556   C392.987427,82.987556 405.242310,82.987556 419.100433,82.987556   C415.250488,89.959831 412.059662,96.009331 408.519287,101.846794   C408.011169,102.684616 405.818970,102.734154 404.402008,102.748917   C396.581360,102.830391 388.759369,102.787888 380.580017,102.787888   C380.448273,104.297852 380.234222,105.565681 380.242218,106.832115   C380.452209,140.159988 380.684692,173.487717 380.916473,206.815460   C380.923401,207.815155 380.956482,208.814896 380.990417,209.814163   C381.494843,224.667831 383.855835,227.083664 398.503571,227.846634   C399.672668,227.907547 400.826477,228.262589 401.987396,228.480942   C401.948975,228.934082 401.910553,229.387207 401.872162,229.840332   C376.613586,229.840332 351.355042,229.840332 326.096497,229.840332   C326.039703,229.361282 325.982910,228.882217 325.926117,228.403168   C327.672119,228.194809 329.412994,227.914597 331.164948,227.790039   C340.725464,227.110428 343.910889,224.556488 344.047363,214.947098   C344.444855,186.962097 344.344635,158.969971 344.423981,130.980591   C344.449951,121.823715 344.428070,112.666702 344.428070,102.505363   C337.494843,102.505363 330.833679,102.505363 323.167755,102.505363   C326.182770,95.884598 328.424408,90.373466 331.261078,85.187828   C331.891998,84.034492 334.609955,83.599846 336.381500,83.564537   C345.428284,83.384224 345.017273,83.302116 348.369141,74.961380   C363.641571,36.957489 390.687653,12.015649 430.838959,1.350109   C437.354401,1.000000 443.708801,1.000000 450.531616,1.000000  z"
   id="path8" />
<path
   fill="#20201E"
   opacity="1.000000"
   stroke="none"
   d=" M468.468567,237.000000   C465.403809,236.206436 462.833557,235.312592 460.207520,234.634537   C426.796906,226.007660 407.771698,199.153763 410.143311,163.920349   C412.698486,125.960457 438.671936,94.975006 475.627258,86.578201   C491.445984,82.983955 507.403015,83.253746 522.828857,89.015877   C538.812195,94.986259 548.929321,108.316132 549.240540,123.205650   C549.381897,129.969604 547.385620,133.302139 540.749634,134.745758   C534.781616,136.044067 528.573975,136.744904 522.464050,136.798782   C497.481628,137.019073 472.496155,136.890610 447.511810,136.890579   C445.882050,136.890579 444.252319,136.890579 442.715820,136.890579   C436.588196,172.299652 463.177673,216.367767 506.515137,212.036407   C528.473022,209.841843 543.149109,197.773911 552.196777,178.148041   C552.890015,176.644318 553.548889,175.123886 554.287292,173.642883   C554.389709,173.437515 554.859924,173.415466 555.161743,173.314072   C557.740479,181.872604 547.020447,204.122513 534.380127,215.933929   C521.961853,227.537918 507.143951,234.121918 490.157349,236.626190   C482.979034,237.000000 475.958099,237.000000 468.468567,237.000000  M458.882935,133.391113   C471.686615,132.973923 484.494720,132.658875 497.292328,132.102081   C505.261810,131.755356 510.786865,126.886169 511.948730,119.675575   C514.027832,106.772240 503.669067,92.282631 490.790802,90.080284   C467.528656,86.102165 441.783722,109.871140 443.494934,133.429657   C448.329559,133.429657 453.138580,133.429657 458.882935,133.391113  z"
   id="path10" />
<path
   fill="#20201E"
   opacity="1.000000"
   stroke="none"
   d=" M771.291260,159.999878   C770.512390,145.567505 770.754211,131.479919 768.665344,117.746819   C766.609314,104.229759 758.123901,96.481979 747.248840,95.159302   C736.801392,93.888634 727.432617,96.498016 719.624084,103.834572   C718.531799,104.860832 717.511719,105.963577 716.433167,107.005043   C710.825562,112.419785 708.078003,118.436829 708.282349,126.809349   C708.920410,152.957291 708.493469,179.130783 708.534851,205.294281   C708.540894,209.121857 708.688660,212.964127 709.049683,216.773163   C709.795898,224.645554 712.654724,227.287552 720.471313,227.692673   C722.050537,227.774506 723.629150,227.868484 725.208008,227.956863   C725.191101,228.439865 725.174133,228.922852 725.157166,229.405853   C701.792847,229.405853 678.428467,229.405853 655.064148,229.405853   C654.971069,229.127838 654.877991,228.849808 654.784912,228.571793   C656.275696,228.220657 657.751160,227.665176 659.259827,227.551651   C668.935059,226.823578 671.726379,224.494080 671.919556,214.655869   C672.305542,195.004715 672.434143,175.338928 672.135803,155.687286   C671.941650,142.905884 672.101929,129.900543 669.807007,117.417740   C665.750916,95.355469 644.157715,87.539589 626.025208,100.991295   C620.765808,104.893021 616.618286,110.327492 612.148315,115.230125   C611.271179,116.192169 610.899841,117.940453 610.897278,119.327240   C610.831604,154.656235 610.844666,189.985397 610.860535,225.314514   C610.860779,225.940811 611.064575,226.567032 611.288391,227.855408   C617.058838,227.855408 622.781372,227.855408 628.503967,227.855408   C628.491211,228.366684 628.478455,228.877975 628.465698,229.389252   C605.212769,229.389252 581.959839,229.389252 558.706909,229.389252   C558.600098,229.169800 558.493286,228.950348 558.386475,228.730896   C559.523071,228.349045 560.633484,227.776367 561.800598,227.616043   C569.971436,226.493622 572.225159,224.659424 573.035645,216.405426   C573.814941,208.469040 574.057800,200.457870 574.112305,192.476669   C574.253479,171.813416 573.778564,151.138382 574.328430,130.488785   C574.590637,120.644073 571.168091,113.053436 564.464600,106.426033   C562.952820,104.931381 561.530579,103.346153 560.155151,101.895439   C572.962585,94.964806 585.490417,88.185455 598.655212,81.061409   C606.838074,89.249855 609.187500,100.510086 610.875916,112.008881   C616.597351,106.106255 621.792419,100.021301 627.725647,94.770409   C641.836060,82.282692 658.253540,77.639885 676.850037,81.885132   C691.487610,85.226639 701.309631,94.016586 706.285645,108.203751   C706.773560,109.594887 707.362976,110.950867 707.927124,112.314133   C707.980530,112.443230 708.190613,112.507507 707.025757,111.296837   C713.952148,105.080017 720.640320,98.569855 727.857361,92.711113   C740.536011,82.418640 755.144165,78.605721 771.349060,81.085976   C789.492371,83.862907 802.026550,96.839539 805.832825,117.598862   C807.146973,124.766022 807.799133,132.141541 807.880798,139.431641   C808.142151,162.759323 807.988831,186.091599 808.013855,209.422073   C808.016174,211.586639 808.015625,213.765076 808.242737,215.913132   C809.218506,225.142120 811.008362,226.828415 820.274170,227.647842   C821.295227,227.738129 822.286682,228.163788 823.163147,229.556122   C799.769592,229.556122 776.376038,229.556122 752.982483,229.556122   C752.914246,229.151367 752.846008,228.746597 752.777771,228.341843   C754.524963,228.057755 756.262390,227.643661 758.020996,227.511398   C767.121094,226.827042 769.509033,224.994247 770.556885,215.958817   C771.302551,209.529373 771.206909,202.988571 771.260071,196.495605   C771.358276,184.497742 771.290100,172.498535 771.291260,159.999878  z"
   id="path12" />
<path
   fill="#1F1F1D"
   opacity="1.000000"
   stroke="none"
   d=" M167.112015,142.999969   C167.074615,133.504364 167.086746,124.508087 166.965790,115.513603   C166.934647,113.198860 166.624542,110.863762 166.201218,108.582809   C164.817459,101.126701 162.521698,99.392273 154.920746,100.027534   C152.321869,100.244743 149.742813,100.699287 147.154709,101.045395   C146.983643,100.624901 146.812576,100.204407 146.641510,99.783913   C147.715668,99.190018 148.728180,98.410500 149.873276,98.030228   C165.758011,92.755188 181.684097,87.603661 197.546036,82.261520   C202.653809,80.541267 204.694153,81.766373 204.710571,87.235367   C204.803116,118.053322 204.788956,148.872162 205.063858,179.688431   C205.106369,184.453537 206.019409,189.324753 207.273453,193.945084   C212.213593,212.146164 228.634827,219.904510 245.451050,211.140411   C252.159241,207.644348 257.490448,201.451935 263.273743,196.291107   C264.193054,195.470749 264.558441,193.612289 264.553986,192.235825   C264.468536,165.918091 264.292023,139.600662 264.120148,113.283257   C264.112549,112.119537 264.037048,110.947357 263.878235,109.794960   C262.735291,101.501930 259.803802,99.192719 251.510178,100.071228   C249.112671,100.325188 246.726944,100.690331 244.335800,101.004501   C244.177597,100.554955 244.019379,100.105400 243.861160,99.655846   C244.982056,99.105545 246.057251,98.418793 247.230774,98.025597   C262.634277,92.864571 278.095398,87.871140 293.443054,82.550049   C299.204315,80.552597 301.029846,81.494385 301.032776,87.638123   C301.050812,125.621391 301.033051,163.604721 301.108490,201.587860   C301.118042,206.406876 301.434174,211.241318 301.902649,216.039871   C302.752380,224.743088 304.699860,226.605682 313.193970,227.566605   C314.421814,227.705521 315.629944,228.018753 316.847198,228.251328   C316.839722,228.755859 316.832214,229.260376 316.824738,229.764908   C298.854340,230.751785 280.883972,231.738663 262.301361,232.759155   C263.070007,221.877640 263.830750,211.108017 264.671600,199.204391   C259.011414,205.236237 254.504227,210.492645 249.521561,215.251190   C240.248138,224.107483 229.893738,231.310394 216.775055,233.072586   C188.062775,236.929382 169.932404,222.455078 168.092575,193.433212   C167.040314,176.834793 167.392288,160.147354 167.112015,142.999969  z"
   id="path14" />
<path
   fill="#1F1F1D"
   opacity="1.000000"
   stroke="none"
   d=" M945.467712,81.255699   C947.160950,82.031525 949.223206,82.704651 949.797241,84.024864   C953.078247,91.570557 956.058655,99.249695 959.005859,106.935364   C959.579163,108.430367 959.555298,110.154366 959.887024,112.288841   C963.883057,107.871971 967.363647,103.704437 971.177368,99.867966   C983.924805,87.044334 998.863708,79.060051 1017.498596,80.568100   C1040.157715,82.401817 1053.442749,94.166809 1057.819458,116.515205   C1059.312134,124.137794 1059.909424,132.029602 1060.019409,139.811096   C1060.323120,161.296265 1060.107910,182.788330 1060.210815,204.277145   C1060.230713,208.428955 1060.578735,212.601578 1061.098633,216.723846   C1062.102783,224.686218 1064.367920,226.717682 1072.523193,227.661652   C1073.375000,227.760254 1074.183472,228.232483 1074.888916,229.558868   C1052.279297,229.558868 1029.669678,229.558868 1007.059937,229.558868   C1006.979309,229.185776 1006.898621,228.812683 1006.817993,228.439590   C1008.522156,228.112274 1010.213684,227.677307 1011.932617,227.476578   C1018.730835,226.682693 1021.007935,224.939499 1022.332703,218.163849   C1023.189880,213.779633 1023.658020,209.242798 1023.641052,204.776871   C1023.547485,180.126907 1023.394592,155.474884 1022.906250,130.830597   C1022.805725,125.755463 1021.674133,120.564926 1020.194214,115.676933   C1014.430542,96.639786 997.017090,88.835854 979.693176,98.489197   C972.532837,102.479134 967.032898,109.487251 960.920959,115.273880   C960.122986,116.029358 959.888367,117.689529 959.886780,118.931313   C959.840149,154.580353 959.856201,190.229477 959.872620,225.878601   C959.872742,226.200607 960.015259,226.522537 960.319214,227.808487   C965.665405,227.808487 971.267273,227.808487 976.869202,227.808487   C976.852966,228.371307 976.836670,228.934143 976.820374,229.496964   C953.735657,229.496964 930.650879,229.496964 907.566162,229.496964   C907.472412,229.182037 907.378662,228.867126 907.284912,228.552200   C908.821838,228.173294 910.342102,227.573608 911.898804,227.455704   C917.158936,227.057266 920.236206,224.169891 921.013184,219.155930   C921.851624,213.744980 922.655090,208.263168 922.699951,202.805878   C922.908325,177.486710 922.798645,152.165100 922.915833,126.844894   C922.948914,119.706734 919.837646,114.038170 915.325317,108.923035   C913.252869,106.573769 911.014771,104.370621 908.933167,102.186562   C921.130676,95.203178 933.140015,88.327522 945.467712,81.255699  z"
   id="path16" />
<path
   fill="#1E1E1C"
   opacity="1.000000"
   stroke="none"
   d=" M846.702881,180.999863   C846.541016,157.694687 846.638184,134.883408 846.099548,112.087151   C845.857788,101.855286 842.955627,100.115181 832.776855,101.858948   C831.037964,102.156845 829.267151,102.268005 827.511047,102.465439   C827.352966,102.006538 827.194824,101.547638 827.036743,101.088730   C828.487915,100.454201 829.922058,99.776787 831.392883,99.191780   C846.018738,93.374733 860.717834,87.734238 875.248779,81.689590   C881.296143,79.173965 883.109436,79.983315 883.110779,86.558167   C883.118225,124.521217 883.088074,162.484314 883.152466,200.447266   C883.160950,205.429977 883.452881,210.430008 883.939026,215.390121   C884.762573,223.791946 887.460327,226.372162 895.753540,227.339539   C897.875366,227.587021 899.983887,227.948593 902.098511,228.257751   C902.044006,228.716507 901.989502,229.175278 901.934998,229.634033   C877.130737,229.634033 852.326538,229.634033 827.522339,229.634033   C827.446106,229.211685 827.369873,228.789337 827.293640,228.367004   C829.353882,228.030884 831.404114,227.603806 833.476257,227.374390   C842.473999,226.378204 845.538635,223.564423 845.979370,214.441360   C846.509155,203.474808 846.486450,192.481567 846.702881,180.999863  z"
   id="path18" />
<path
   fill="#1E1E1C"
   opacity="1.000000"
   stroke="none"
   d=" M1085.246094,230.167847   C1083.052002,230.167892 1081.322876,230.167892 1079.593628,230.167892   C1079.515869,229.608688 1079.437988,229.049484 1079.360229,228.490280   C1081.058838,228.154846 1082.743530,227.676575 1084.458496,227.507385   C1094.697754,226.497162 1097.938843,223.870529 1098.038208,213.494659   C1098.362915,179.543289 1098.386108,145.585159 1098.064697,111.633987   C1097.973267,101.969093 1094.776001,100.105087 1085.350952,101.760406   C1083.407715,102.101700 1081.401855,102.086769 1079.424927,102.236015   C1079.313110,101.768707 1079.201172,101.301392 1079.089355,100.834076   C1080.505005,100.293869 1081.927002,99.769508 1083.335449,99.210999   C1097.967651,93.408623 1112.665161,87.762711 1127.196289,81.717239   C1133.278809,79.186737 1135.118408,79.977844 1135.121948,86.483368   C1135.143066,125.947861 1135.131714,165.412399 1135.209351,204.876770   C1135.217163,208.860016 1135.554565,212.867538 1136.076172,216.819290   C1136.976440,223.639893 1139.882568,226.333755 1146.717163,227.202026   C1149.179932,227.514893 1151.638916,227.857315 1154.099609,228.186264   C1154.058350,228.846786 1154.017090,229.507294 1153.975830,230.167816   C1131.220825,230.167816 1108.465820,230.167816 1085.246094,230.167847  z"
   id="path20" />
<path
   fill="#1F1F1D"
   opacity="1.000000"
   stroke="none"
   d=" M876.242188,54.366451   C866.915161,59.811729 857.860657,59.935253 849.203552,54.012726   C841.213806,48.546768 837.851440,40.533100 839.207153,31.070288   C840.592529,21.400242 846.255066,14.762254 855.650635,11.646272   C866.617004,8.009356 878.719238,12.978502 884.109863,23.215759   C889.820862,34.061451 886.869751,46.115944 876.242188,54.366451  z"
   id="path22" />
<path
   fill="#1F1F1D"
   opacity="1.000000"
   stroke="none"
   d=" M1123.655762,12.097286   C1134.884888,17.743130 1140.474487,27.561747 1138.693237,37.964283   C1136.875854,48.576393 1128.711060,56.761772 1118.650757,58.057125   C1108.062500,59.420444 1098.786011,54.892082 1093.879272,45.964920   C1089.199219,37.450233 1090.147217,26.831108 1096.257568,19.321625   C1102.727783,11.369899 1112.725342,8.656763 1123.655762,12.097286  z"
   id="path24" />


</svg>
