<?xml version="1.0" encoding="UTF-8" standalone="no"?>
<svg
   version="1.1"
   id="Layer_1"
   x="0px"
   y="0px"
   width="100%"
   viewBox="0 0 269 85"
   enable-background="new 0 0 269 85"
   xml:space="preserve"
   sodipodi:docname="blast.svg"
   inkscape:version="1.2.2 (b0a8486541, 2022-12-01)"
   xmlns:inkscape="http://www.inkscape.org/namespaces/inkscape"
   xmlns:sodipodi="http://sodipodi.sourceforge.net/DTD/sodipodi-0.dtd"
   xmlns="http://www.w3.org/2000/svg"
   xmlns:svg="http://www.w3.org/2000/svg"><defs
   id="defs1592" /><sodipodi:namedview
   id="namedview1590"
   pagecolor="#505050"
   bordercolor="#eeeeee"
   borderopacity="1"
   inkscape:showpageshadow="0"
   inkscape:pageopacity="0"
   inkscape:pagecheckerboard="0"
   inkscape:deskcolor="#505050"
   showgrid="false"
   inkscape:zoom="7.7698557"
   inkscape:cx="132.43489"
   inkscape:cy="7.9795562"
   inkscape:window-width="3840"
   inkscape:window-height="2160"
   inkscape:window-x="0"
   inkscape:window-y="1680"
   inkscape:window-maximized="1"
   inkscape:current-layer="Layer_1" />

<path
   fill="#2B2B2B"
   opacity="1.000000"
   stroke="none"
   d=" M19.000000,1.000000   C25.354399,1.000000 31.708796,1.000000 38.506073,1.402760   C36.830601,11.779606 34.712250,21.753691 32.615490,31.626118   C36.121128,29.551872 39.277004,26.992712 42.886147,25.675539   C54.928860,21.280510 65.211685,26.487930 65.243324,37.863140   C65.291306,55.115639 62.838375,72.062622 51.000000,86.000000   C45.645069,86.000000 40.290142,86.000000 34.233582,85.684921   C43.198616,72.363594 44.646221,57.008972 45.337170,41.669106   C45.554302,36.848545 39.005497,34.844852 35.101173,38.414402   C32.794636,40.523167 30.895477,43.671635 30.072319,46.695343   C27.771893,55.145500 25.730312,63.712563 24.388702,72.357964   C23.704422,76.767502 24.741169,81.444107 25.000000,86.000000   C17.805031,86.000000 10.610062,85.999634 3.415093,86.000320   C2.056020,86.000443 0.401812,86.361122 1.346796,83.326996   C7.462394,55.435993 13.231196,28.217997 19.000000,1.000000  z"
   id="path1565" />
<path
   fill="#2C2C2C"
   opacity="1.000000"
   stroke="none"
   d=" M98.468536,86.000000   C98.459869,82.211067 98.529327,78.324425 99.448784,74.650513   C102.987770,60.509396 112.155663,53.151127 127.432678,52.087009   C131.882645,51.777054 136.372467,52.039379 141.074539,52.039379   C141.712311,49.353714 142.478714,47.141396 142.719452,44.873283   C143.075439,41.519375 144.314011,37.598705 139.600296,36.059902   C135.054642,34.575954 130.695221,36.407635 128.625702,40.613029   C127.756165,42.379990 127.198570,44.300461 126.468391,46.232597   C120.220528,46.232597 113.968452,46.232597 107.277702,46.232597   C109.282593,36.094551 114.644699,29.327406 124.229668,26.368122   C133.179352,23.604977 142.327682,23.684843 151.345963,25.993025   C160.182312,28.254650 164.135071,34.180214 162.472870,43.165630   C159.873489,57.217316 156.797699,71.180878 153.961853,85.590881   C146.312424,86.000000 138.624832,86.000000 130.219070,85.696518   C136.283401,79.535133 137.292282,71.390167 138.692780,63.263744   C125.490303,62.379063 120.701897,65.445526 118.889748,76.230263   C118.358574,79.391418 118.932541,82.738258 119.000000,86.000000   C112.312355,86.000000 105.624710,86.000000 98.468536,86.000000  z"
   id="path1567" />
<path
   fill="#2A2A2A"
   opacity="1.000000"
   stroke="none"
   d=" M227.468414,86.000000   C230.269409,70.260704 233.538834,54.521400 236.894577,38.366451   C234.299988,38.247936 231.898560,38.138245 229.014694,38.006516   C229.822372,33.960884 230.580124,30.165274 231.395142,26.082891   C234.113647,25.929857 236.705826,25.783936 239.535889,25.624622   C241.310242,17.562035 243.050003,9.656602 244.894882,1.375585   C251.354401,1.000000 257.708801,1.000000 264.490173,1.392423   C263.202545,9.632434 261.487885,17.480022 259.626343,26.000000   C263.465302,26.000000 266.732666,26.000000 270.000000,26.000000   C270.000000,26.750000 270.000000,27.500000 269.665894,28.821529   C268.705933,32.248425 268.080048,35.103790 267.397644,38.217041   C263.821777,38.217041 260.549652,38.217041 257.041382,38.217041   C253.654465,54.334072 250.327225,70.167038 247.000000,86.000000   C240.645599,86.000000 234.291214,86.000000 227.468414,86.000000  z"
   id="path1569" />

<path
   fill="#2C2C2C"
   opacity="1.000000"
   stroke="none"
   d=" M195.468414,86.000000   C195.265213,85.103653 195.336929,84.080826 195.826828,83.331329   C199.200882,78.169380 198.701004,73.813988 193.574112,70.435356   C189.436172,67.708443 184.816605,65.720055 180.455368,63.322807   C166.791656,55.812263 165.559570,40.704529 178.266235,31.465582   C188.915436,23.722630 201.125000,22.547741 213.500626,26.249933   C222.524216,28.949362 225.605637,36.652786 222.497253,46.269085   C216.235397,46.269085 209.958801,46.269085 203.350327,46.269085   C203.513519,45.036469 203.711899,44.097118 203.749161,43.151424   C203.858826,40.367573 204.625031,37.011078 200.911636,36.087719   C197.184784,35.161015 193.497528,35.733261 191.303955,39.501850   C189.514053,42.576897 188.722015,45.801041 191.935776,48.503853   C193.573059,49.880825 195.435913,51.025234 197.306442,52.080406   C199.764481,53.466991 202.336792,54.649887 204.849136,55.941467   C218.734970,63.080120 221.508011,71.267548 214.893524,85.629128   C208.645599,86.000000 202.291214,86.000000 195.468414,86.000000  z"
   id="path1573" />
<path
   fill="#2B2B2B"
   opacity="1.000000"
   stroke="none"
   d=" M68.468399,86.000000   C72.818642,62.938427 77.628593,39.875038 82.462723,16.816713   C83.518066,11.782795 84.659729,6.766971 85.880814,1.371407   C92.354401,1.000000 98.708794,1.000000 105.531601,1.000000   C100.014305,29.065241 94.028618,57.130482 88.021469,85.597862   C81.645599,86.000000 75.291206,86.000000 68.468399,86.000000  z"
   id="path1575" />




<path
   fill="#333333"
   opacity="1.000000"
   stroke="none"
   d=" M162.468536,86.000000   C162.306335,82.383858 162.612671,78.767715 162.946671,74.824951   C169.812119,74.824951 176.202698,74.824951 182.064804,74.824951   C182.570572,78.383202 183.063339,81.850006 183.278046,85.658401   C176.312363,86.000000 169.624710,86.000000 162.468536,86.000000  z"
   id="path1585" />

</svg>
