<?xml version="1.0" standalone="no"?>
<!DOCTYPE svg PUBLIC "-//W3C//DTD SVG 20010904//EN" "http://www.w3.org/TR/2001/REC-SVG-20010904/DTD/svg10.dtd">
<svg xmlns="http://www.w3.org/2000/svg" version="1.0" width="220.000000pt" height="61.000000pt" viewBox="0 0 220.000000 61.000000" preserveAspectRatio="xMidYMid meet">
<metadata>
Created by potrace 1.16, written by Peter Selinger 2001-2019
<meta name="Producer" content="Online-Convert"/></metadata>
<g transform="translate(0.000000,61.000000) scale(0.100000,-0.100000)" fill="#000000" stroke="none">
<path d="M77 602 c-65 -3 -98 -22 -37 -22 l30 0 0 -270 0 -270 -29 0 c-17 0 -33 -5 -36 -10 -4 -6 14 -10 47 -10 29 0 63 -3 76 -6 19 -6 22 -3 22 25 0 17 2 31 4 31 3 0 18 -13 34 -29 53 -54 106 -53 168 2 135 118 73 367 -92 367 -28 0 -44 -8 -70 -34 l-34 -34 0 128 c0 71 -3 130 -7 132 -5 2 -38 2 -76 0z m240 -242 c17 -33 18 -269 1 -305 -22 -49 -89 -40 -131 17 -16 21 -22 48 -25 113 -7 137 31 209 108 203 25 -2 38 -10 47 -28z"/>
<path d="M633 602 c-74 -3 -100 -18 -40 -24 l32 -3 3 -267 2 -268 -30 0 c-16 0 -30 -4 -30 -10 0 -6 40 -10 100 -10 60 0 100 4 100 10 0 6 -13 10 -30 10 l-30 0 -2 283 -3 282 -72 -3z"/>
<path d="M1294 391 c-50 -30 -68 -105 -39 -161 15 -30 65 -53 140 -65 74 -12 96 -59 53 -110 -54 -62 -143 -34 -175 54 -10 28 -21 51 -25 51 -5 0 -8 -31 -8 -70 0 -68 5 -81 26 -60 7 7 23 3 49 -10 47 -24 64 -25 110 -6 75 32 101 147 48 206 -23 24 -42 33 -102 44 -80 15 -106 34 -95 70 14 51 85 73 130 41 12 -8 27 -28 34 -45 18 -44 30 -37 30 20 0 46 -13 67 -22 38 -3 -9 -12 -8 -31 5 -34 22 -84 22 -123 -2z"/>
<path d="M1719 395 c-36 -20 -63 -78 -55 -123 10 -62 52 -91 154 -107 51 -8 72 -27 72 -64 0 -59 -83 -98 -139 -65 -29 17 -71 84 -71 112 0 7 -4 12 -10 12 -6 0 -10 -30 -10 -70 0 -69 5 -81 27 -59 7 7 22 4 52 -12 54 -28 102 -20 148 26 30 30 33 38 33 93 0 77 -26 106 -108 122 -102 19 -107 21 -110 62 -4 43 24 68 76 68 36 0 92 -45 92 -74 0 -9 5 -16 10 -16 6 0 10 23 10 50 0 45 -13 67 -22 39 -2 -6 -14 -5 -33 5 -37 20 -82 20 -116 1z"/>
<path d="M885 390 c-4 -6 8 -10 29 -10 l36 0 0 -170 0 -170 -30 0 c-16 0 -30 -4 -30 -10 0 -6 40 -10 100 -10 60 0 100 4 100 10 0 6 -13 10 -30 10 l-30 0 0 180 0 180 -69 0 c-39 0 -73 -4 -76 -10z"/>
</g>
</svg>
