<?xml version="1.0" encoding="UTF-8" standalone="no"?>
<svg
   id="svg"
   version="1.1"
   width="400"
   height="213.33333333333334"
   viewBox="0, 0, 400,213.33333333333334"
   sodipodi:docname="causette.svg"
   inkscape:version="1.2.2 (b0a8486541, 2022-12-01)"
   xmlns:inkscape="http://www.inkscape.org/namespaces/inkscape"
   xmlns:sodipodi="http://sodipodi.sourceforge.net/DTD/sodipodi-0.dtd"
   xmlns="http://www.w3.org/2000/svg"
   xmlns:svg="http://www.w3.org/2000/svg">
  <defs
     id="defs1650" />
  <sodipodi:namedview
     id="namedview1648"
     pagecolor="#505050"
     bordercolor="#eeeeee"
     borderopacity="1"
     inkscape:showpageshadow="0"
     inkscape:pageopacity="0"
     inkscape:pagecheckerboard="0"
     inkscape:deskcolor="#505050"
     showgrid="false"
     inkscape:zoom="3.91"
     inkscape:cx="200.25575"
     inkscape:cy="106.90537"
     inkscape:window-width="3840"
     inkscape:window-height="2160"
     inkscape:window-x="0"
     inkscape:window-y="1680"
     inkscape:window-maximized="1"
     inkscape:current-layer="svgg" />
  <g
     id="svgg">
    <path
       id="path0"
       d="M291.117 63.292 C 289.364 64.379,285.263 66.522,283.520 67.261 C 282.807 67.564,281.198 68.196,278.968 69.048 L 277.936 69.443 277.964 73.356 C 277.997 78.142,278.161 77.867,275.275 77.867 L 273.055 77.867 273.114 80.800 L 273.173 83.733 275.520 83.840 L 277.867 83.947 277.985 101.227 C 278.066 112.993,278.179 118.745,278.341 119.253 C 278.471 119.664,278.669 120.288,278.781 120.640 C 280.068 124.707,283.346 126.562,289.280 126.581 C 295.633 126.601,298.783 124.884,300.372 120.536 C 301.057 118.664,301.113 118.716,298.118 118.417 C 296.287 118.234,295.893 118.362,295.893 119.140 C 295.893 119.817,295.177 120.401,294.541 120.241 C 293.304 119.930,293.326 120.292,293.385 101.298 L 293.440 83.947 296.412 83.887 C 300.175 83.812,299.973 83.999,299.899 80.662 L 299.840 77.973 297.067 77.921 C 295.541 77.893,294.077 77.819,293.813 77.757 L 293.333 77.645 293.333 69.982 C 293.333 65.767,293.261 62.274,293.172 62.219 C 293.083 62.164,292.158 62.647,291.117 63.292 M320.853 62.613 C 320.707 62.789,320.475 62.933,320.337 62.933 C 320.198 62.933,319.971 63.048,319.831 63.187 C 318.936 64.082,312.163 67.398,308.800 68.588 C 306.373 69.447,306.560 69.027,306.560 73.622 C 306.560 78.297,306.872 77.831,303.680 77.920 L 301.760 77.973 301.700 80.730 C 301.629 84.014,301.472 83.832,304.373 83.837 L 306.560 83.840 306.564 100.747 C 306.568 120.955,306.578 121.035,309.449 123.853 C 313.416 127.746,323.034 127.707,326.881 123.782 C 328.362 122.270,329.694 119.345,329.118 118.871 C 328.438 118.311,324.693 118.216,324.693 118.758 C 324.693 119.359,323.835 120.320,323.297 120.320 C 321.984 120.320,322.027 120.956,322.027 101.556 L 322.027 83.947 325.227 83.840 L 328.427 83.733 328.486 80.800 L 328.545 77.867 325.489 77.867 C 323.396 77.867,322.351 77.786,322.176 77.611 C 321.987 77.421,321.920 75.397,321.920 69.824 C 321.920 61.783,321.863 61.397,320.853 62.613 M60.907 64.421 C 58.455 64.612,56.160 65.051,53.440 65.850 C 52.290 66.188,52.300 66.184,49.920 67.187 C 42.792 70.191,37.112 75.687,32.489 84.053 C 31.568 85.720,29.686 90.829,29.227 92.907 C 27.984 98.536,27.660 101.492,27.663 107.203 C 27.673 130.401,36.358 143.194,54.293 146.432 C 71.475 149.534,88.842 142.567,92.265 131.200 C 92.353 130.907,92.494 130.571,92.578 130.453 C 92.740 130.225,93.279 128.147,93.628 126.400 C 93.950 124.789,94.076 121.159,93.909 118.296 L 93.760 115.739 93.013 115.599 C 92.603 115.522,91.691 115.293,90.987 115.091 C 90.283 114.889,89.371 114.651,88.960 114.564 C 88.549 114.476,87.258 114.151,86.090 113.842 C 84.922 113.533,83.876 113.280,83.766 113.280 C 83.555 113.280,83.673 115.233,84.043 117.867 C 84.725 122.727,83.733 128.559,81.647 131.943 C 79.588 135.286,77.113 137.699,74.560 138.854 C 74.208 139.013,73.769 139.218,73.585 139.309 C 72.649 139.774,70.379 140.160,68.580 140.160 C 60.978 140.160,56.066 134.915,53.695 124.267 C 51.576 114.756,51.874 96.094,54.310 85.653 C 55.142 82.088,57.077 77.361,58.302 75.899 C 58.561 75.590,59.040 74.996,59.366 74.579 C 62.181 70.979,69.157 69.989,73.493 72.573 C 73.845 72.783,74.325 73.041,74.560 73.147 C 78.258 74.815,80.467 80.695,80.460 88.853 C 80.458 91.435,80.501 93.707,80.557 93.902 C 80.662 94.273,81.944 93.748,88.373 90.703 L 90.667 89.617 90.667 87.510 C 90.667 79.105,87.240 71.988,81.376 68.212 C 76.710 65.207,69.037 63.786,60.907 64.421 M112.000 91.537 C 108.465 91.780,105.161 92.354,103.573 93.000 C 103.339 93.095,102.859 93.288,102.507 93.429 C 99.562 94.604,98.133 96.763,98.133 100.037 C 98.133 102.626,98.229 102.768,100.160 103.032 C 103.751 103.524,104.889 103.709,105.435 103.889 C 106.284 104.169,106.341 103.858,105.721 102.308 C 103.875 97.696,106.175 94.935,111.864 94.932 C 114.543 94.931,115.766 95.320,116.879 96.528 C 119.723 99.617,117.499 102.907,111.147 105.007 C 109.542 105.537,108.936 105.717,106.560 106.364 C 105.856 106.556,105.113 106.799,104.910 106.903 C 104.706 107.008,104.401 107.093,104.231 107.093 C 104.062 107.093,103.277 107.392,102.487 107.758 C 97.356 110.133,95.337 112.778,95.343 117.120 C 95.350 123.614,99.717 126.927,108.267 126.925 C 112.484 126.924,115.412 126.064,118.143 124.023 L 119.060 123.338 119.980 124.258 C 120.944 125.222,121.580 125.574,123.520 126.219 C 125.194 126.775,132.429 126.764,134.933 126.200 C 139.916 125.080,139.808 125.163,138.826 123.176 C 138.152 121.811,138.056 121.712,137.477 121.776 C 134.979 122.054,134.334 121.951,133.823 121.195 L 133.333 120.470 133.333 109.201 L 133.333 97.932 132.833 96.806 C 130.996 92.669,123.411 90.750,112.000 91.537 M155.520 91.741 C 154.288 91.827,151.133 92.000,148.508 92.125 C 145.884 92.250,143.704 92.385,143.664 92.425 C 143.624 92.465,143.581 98.686,143.570 106.249 C 143.547 121.333,143.528 121.076,144.836 123.138 C 148.231 128.491,161.619 127.959,166.700 122.268 C 167.367 121.521,167.467 121.719,167.467 123.797 C 167.467 125.056,167.560 125.875,167.723 126.037 C 168.120 126.435,182.472 126.401,182.803 126.002 C 183.082 125.666,183.143 92.238,182.866 91.794 C 182.740 91.593,182.026 91.583,179.725 91.749 C 175.368 92.062,168.721 92.350,168.428 92.238 C 167.630 91.931,167.577 92.534,167.446 103.552 C 167.311 114.920,167.289 115.167,166.196 117.418 C 164.671 120.560,160.825 121.991,159.431 119.936 C 159.065 119.396,159.033 118.483,158.933 105.493 L 158.827 91.627 158.293 91.605 C 158.000 91.594,156.752 91.655,155.520 91.741 M205.760 91.728 C 191.632 93.151,186.337 103.918,196.417 110.728 C 197.444 111.422,201.857 113.707,202.170 113.707 C 202.394 113.707,205.234 114.746,205.704 115.000 C 205.908 115.110,206.178 115.200,206.306 115.200 C 206.772 115.200,210.904 117.340,211.684 117.986 C 214.654 120.444,212.591 123.093,207.706 123.093 C 202.033 123.093,197.629 119.564,198.056 115.360 L 198.180 114.133 197.396 114.133 C 196.607 114.133,195.632 114.287,192.107 114.969 L 190.187 115.341 190.255 116.817 C 190.566 123.474,196.935 126.926,208.919 126.932 C 221.197 126.937,227.038 123.152,226.739 115.384 C 226.570 110.970,223.501 107.838,216.427 104.857 C 215.957 104.660,215.258 104.362,214.873 104.196 C 214.487 104.029,214.057 103.893,213.917 103.893 C 213.704 103.893,212.032 103.318,210.240 102.628 C 206.920 101.350,204.324 99.607,204.037 98.464 C 203.181 95.053,210.350 93.677,214.678 96.422 C 215.843 97.160,216.856 98.788,217.054 100.239 C 217.387 102.668,217.279 102.583,219.507 102.192 C 220.160 102.078,221.640 101.843,222.797 101.671 C 225.318 101.295,225.145 101.438,224.776 100.030 C 223.100 93.639,216.293 90.667,205.760 91.728 M248.107 91.643 C 245.428 92.105,243.625 92.666,241.858 93.590 C 241.531 93.761,241.048 94.013,240.785 94.150 C 232.793 98.319,229.463 110.316,233.935 118.827 C 236.778 124.237,243.000 126.939,252.605 126.935 C 262.996 126.930,268.188 123.751,269.642 116.505 C 269.915 115.141,269.755 114.849,268.619 114.645 C 268.190 114.568,266.892 114.273,265.733 113.990 C 263.257 113.385,263.391 113.317,263.441 115.144 C 263.587 120.452,261.172 123.082,256.147 123.090 C 251.081 123.098,247.773 118.471,248.142 111.893 L 248.213 110.613 258.963 110.558 L 269.714 110.503 269.561 107.891 C 269.055 99.241,265.278 94.083,258.027 92.138 C 256.377 91.695,249.727 91.363,248.107 91.643 M348.480 91.653 C 347.506 91.799,345.190 92.378,344.560 92.633 C 338.628 95.036,335.033 98.745,333.294 104.256 C 332.522 106.704,332.410 112.745,333.089 115.307 C 335.194 123.243,341.613 126.933,353.309 126.933 C 363.530 126.933,369.778 122.920,370.165 116.106 C 370.232 114.925,370.282 114.955,366.966 114.153 C 363.592 113.336,363.894 113.157,363.829 116.015 C 363.715 120.927,361.499 123.093,356.586 123.093 C 351.824 123.093,349.490 120.241,348.719 113.479 C 348.340 110.159,347.078 110.507,359.500 110.507 L 370.179 110.507 370.063 108.107 C 369.620 99.007,365.813 93.965,357.867 91.952 C 356.818 91.686,349.757 91.461,348.480 91.653 M253.436 95.601 C 255.215 96.685,256.806 102.005,256.395 105.493 L 256.320 106.133 252.562 106.240 C 247.679 106.379,248.107 106.539,248.107 104.571 C 248.108 98.227,250.670 93.915,253.436 95.601 M353.786 95.469 C 355.512 96.190,356.591 99.204,356.726 103.680 L 356.800 106.133 352.795 106.191 C 348.042 106.260,348.426 106.578,348.759 102.851 C 349.275 97.071,351.124 94.357,353.786 95.469 M117.852 112.552 C 117.834 118.831,117.733 119.310,116.119 120.769 C 113.605 123.040,111.335 121.577,110.715 117.285 C 110.122 113.182,111.732 109.996,115.307 108.198 C 116.011 107.844,116.779 107.406,117.013 107.224 C 117.827 106.595,117.867 106.852,117.852 112.552 "
       stroke="none"
       fill="#e3071c"
       fill-rule="evenodd" />
  </g>
</svg>
