<svg version="1.1" id="Layer_1" xmlns="http://www.w3.org/2000/svg" xmlns:xlink="http://www.w3.org/1999/xlink" x="0px" y="0px"
	 width="100%" viewBox="0 0 1024 1024" enable-background="new 0 0 1024 1024" xml:space="preserve">
<path fill="#000000" opacity="1.000000" stroke="none" 
	d="
M514.022522,559.010254 
	C520.774109,567.921570 527.177795,576.658813 533.943787,585.105774 
	C538.219604,590.444031 543.077148,595.293213 549.637573,597.959412 
	C550.446350,598.288147 550.942688,598.961731 550.893005,600.019897 
	C549.930115,601.873413 548.065491,601.296753 546.520691,601.309692 
	C538.190918,601.379395 529.858215,601.242798 521.531128,601.408630 
	C518.374023,601.471436 516.239136,600.427429 514.413513,597.838501 
	C510.109314,591.734375 505.570007,585.796082 501.003540,579.625549 
	C498.259644,580.745178 497.107605,583.051880 495.553497,584.882935 
	C483.128540,599.521973 467.830444,606.828979 448.315796,603.622253 
	C418.936249,598.794556 408.014801,568.677002 418.692596,545.395691 
	C423.932281,533.971313 432.791534,525.749817 442.676819,518.451904 
	C445.333893,516.490295 448.000763,514.541870 450.937469,512.385925 
	C447.022430,506.110229 443.212402,500.295654 439.702911,494.305054 
	C435.040863,486.347107 431.294983,478.139832 431.525726,468.492126 
	C431.989990,449.077759 450.195007,434.242035 470.432678,437.104248 
	C476.724030,437.994080 476.798767,437.993317 476.735474,431.481232 
	C476.695160,427.332703 477.172180,423.145752 476.132965,419.043945 
	C475.356110,415.977692 474.208862,413.175995 470.345398,413.330566 
	C466.709381,413.476074 465.881531,416.249664 465.279358,419.146362 
	C464.468140,423.048340 463.973358,427.031250 462.065918,430.637817 
	C459.512085,435.466583 455.631805,438.381958 450.096863,438.143646 
	C445.398132,437.941315 441.798065,435.524536 440.299652,430.888702 
	C438.596008,425.618011 440.160828,421.065552 444.034912,417.233215 
	C444.389771,416.882172 444.758759,416.542938 445.142914,416.224457 
	C456.596954,406.729553 485.952332,407.277496 497.036621,417.136108 
	C503.147156,422.570923 504.910767,429.664337 504.954132,437.414978 
	C505.013824,448.077393 504.953796,458.740417 505.002533,469.402924 
	C505.043152,478.295959 506.605927,479.175415 514.443848,474.895813 
	C514.829834,474.685059 515.388611,474.790924 515.810486,474.754211 
	C517.266541,476.159851 516.289246,477.253754 515.504333,478.302643 
	C510.020172,485.631287 502.612640,489.343719 493.539520,489.011810 
	C490.188324,488.889252 487.985138,489.879059 485.600891,491.996429 
	C481.403870,495.723602 476.858307,499.058289 471.948364,502.963257 
	C484.379059,519.602173 496.576172,535.928467 509.422211,553.123291 
	C516.189880,540.504456 523.311890,529.205627 524.605408,515.569946 
	C525.312439,508.117188 522.174622,503.591736 515.350891,500.722015 
	C513.928894,500.124054 511.953552,500.156067 511.723663,497.388672 
	C524.841370,497.388672 537.804626,497.388672 550.755432,497.388672 
	C550.776001,499.331299 549.946899,499.872467 548.945251,500.143097 
	C542.105774,501.990967 538.010010,507.005493 534.874878,512.822327 
	C527.368042,526.750061 521.684143,541.583862 513.916321,555.390381 
	C513.311584,556.465332 513.165344,557.587341 514.022522,559.010254 
M487.581543,584.088074 
	C489.315857,582.532104 491.012756,580.931763 492.792328,579.429321 
	C496.488678,576.308655 496.696991,573.492188 493.556702,569.367554 
	C481.851013,553.992493 470.593506,538.276917 459.090698,522.746155 
	C457.668030,520.825317 456.670258,518.331909 454.062653,517.598511 
	C437.179962,529.823181 430.544006,554.078491 438.461243,574.257996 
	C443.893158,588.102905 453.826019,594.271179 468.562073,592.692078 
	C475.528381,591.945557 481.690674,589.098999 487.581543,584.088074 
M460.657043,486.848541 
	C463.481476,490.416321 465.160675,494.926086 468.970032,497.652863 
	C482.535706,487.668427 486.486786,459.568665 476.386047,446.892700 
	C472.892059,442.507874 468.243134,440.489410 462.710022,441.436096 
	C457.179321,442.382324 453.492584,445.879486 451.607819,451.116730 
	C450.055237,455.430939 449.867554,459.884644 450.744873,464.405945 
	C452.295929,472.399170 455.961395,479.453064 460.657043,486.848541 
z"/>
<path fill="#000000" opacity="1.000000" stroke="none" 
	d="
M560.468262,500.439636 
	C558.713806,499.528381 556.806152,499.734619 555.763733,498.127136 
	C556.376038,495.959869 558.185974,496.714783 559.472534,496.711548 
	C576.967957,496.667236 594.467041,496.504791 611.957825,496.802307 
	C620.177307,496.942108 628.159668,498.923737 635.363464,503.127502 
	C654.278931,514.165588 655.873413,539.157654 638.645508,552.687256 
	C628.378479,560.750366 616.322327,562.684204 603.830566,562.936768 
	C594.560974,563.124084 595.307800,562.457764 595.345825,571.777588 
	C595.366882,576.933777 595.359680,582.108826 595.791077,587.239563 
	C596.262939,592.852661 598.823120,597.070251 604.910645,598.211731 
	C605.534912,598.328857 606.126770,598.735168 606.672791,599.098694 
	C606.909790,599.256470 606.992432,599.645996 607.529663,600.645630 
	C590.036072,600.645630 572.925659,600.645630 555.864563,600.645630 
	C555.523865,598.851685 556.721619,598.588623 557.581116,598.351746 
	C564.421631,596.467102 566.579041,591.238647 566.614929,585.001526 
	C566.754028,560.841614 566.732788,536.680115 566.630981,512.519836 
	C566.610901,507.751312 565.550476,503.191132 560.468262,500.439636 
M595.320496,543.491760 
	C595.321289,546.648010 595.535400,549.822388 595.270081,552.956116 
	C594.921509,557.072754 596.839478,558.075378 600.567261,557.961670 
	C609.721313,557.682373 616.581177,552.453430 619.425964,542.985840 
	C622.163940,533.873413 622.216492,524.686462 619.719177,515.493835 
	C617.012939,505.532104 610.842041,501.016998 600.468201,500.945648 
	C596.625427,500.919250 595.197632,502.148926 595.262695,506.115082 
	C595.461548,518.238525 595.327881,530.367432 595.320496,543.491760 
z"/>
<path fill="#000000" opacity="1.000000" stroke="none" 
	d="
M875.259277,588.682922 
	C874.680298,594.130859 877.038391,597.619812 880.956970,600.720886 
	C868.109985,600.720886 855.263000,600.720886 842.416016,600.720886 
	C850.310974,596.203125 849.435608,589.155945 849.386536,582.031494 
	C849.238586,560.538757 849.483948,539.043396 849.574707,517.549011 
	C849.579590,516.382507 849.658447,515.208435 849.557495,514.050598 
	C848.751831,504.813629 851.209595,502.781982 840.781738,498.023163 
	C840.988708,496.288483 842.470825,496.146606 843.689148,495.820160 
	C852.209656,493.537048 860.737244,491.279785 869.274353,489.059418 
	C874.429871,487.718597 875.220398,488.278503 875.236694,493.553894 
	C875.278320,507.052155 875.218567,520.550720 875.250305,534.049011 
	C875.254456,535.827759 874.827148,537.681091 875.988037,539.911560 
	C881.428467,535.687378 886.919800,531.855164 893.747559,530.305481 
	C907.895569,527.094421 918.307068,535.086426 918.373474,549.615784 
	C918.418396,559.447693 918.266479,569.281921 918.420654,579.111694 
	C918.543823,586.966370 916.105408,595.879089 927.078064,599.807190 
	C926.762085,600.123047 926.446167,600.438904 926.130188,600.754761 
	C913.099182,600.754761 900.068176,600.754761 887.037170,600.754761 
	C894.178223,596.575317 892.653931,589.825439 892.690918,583.677429 
	C892.755127,573.012512 892.857483,562.343262 892.628235,551.682617 
	C892.439697,542.918396 886.716309,539.585449 879.184448,543.445190 
	C876.349487,544.897949 875.144592,546.971985 875.179626,550.230286 
	C875.315735,562.894165 875.245728,575.560120 875.259277,588.682922 
z"/>
<path fill="#000000" opacity="1.000000" stroke="none" 
	d="
M88.423439,375.366577 
	C74.500038,377.814392 67.595573,387.282745 63.481071,399.167358 
	C57.918442,415.234772 57.732449,431.550171 63.380047,447.664398 
	C67.706413,460.008759 75.965202,468.550873 89.288002,470.642975 
	C103.411087,472.860779 115.768532,469.546661 124.478050,457.170074 
	C125.413353,455.841034 126.237640,453.827942 128.278336,454.929138 
	C130.756577,456.266541 128.923874,458.164612 128.275818,459.669525 
	C116.441978,487.150452 84.472610,497.839264 57.716675,482.847656 
	C36.248081,470.818665 25.644697,451.913483 27.102406,427.467468 
	C28.577831,402.724274 41.958145,385.274231 64.682648,375.908905 
	C85.095467,367.496246 106.043411,368.866333 126.813744,375.563019 
	C130.208786,376.657623 131.173050,378.348114 130.215714,381.848633 
	C128.022980,389.866364 126.199448,397.984467 124.153214,406.043335 
	C123.762787,407.581024 123.581192,409.693481 121.367050,409.600830 
	C119.281326,409.513519 119.011894,407.560364 118.629532,405.927429 
	C116.981476,398.889191 114.537971,392.188263 110.092522,386.382965 
	C104.741669,379.395264 98.000076,375.017273 88.423439,375.366577 
z"/>
<path fill="#000000" opacity="1.000000" stroke="none" 
	d="
M542.900024,489.220245 
	C529.306580,488.860474 522.064270,481.735962 521.853210,468.593750 
	C521.671265,457.264282 521.705078,445.928864 521.823792,434.597961 
	C521.890320,428.255737 520.972290,422.817169 513.305786,421.643188 
	C512.968628,421.591553 512.727722,420.912231 512.408081,420.479309 
	C512.727051,420.033600 512.936035,419.388489 513.301208,419.282745 
	C524.172363,416.133667 535.022095,412.897919 545.963928,410.012421 
	C549.635376,409.044250 549.347961,412.213745 549.352844,414.502655 
	C549.384033,429.001282 549.366211,443.500000 549.367920,457.998688 
	C549.368286,461.165009 549.270020,464.336670 549.419678,467.496246 
	C549.593872,471.173096 550.778992,474.446747 554.454651,476.033112 
	C558.276245,477.682404 561.570740,476.064240 564.753479,474.024353 
	C566.584961,472.850525 566.688782,471.083344 566.686768,469.200226 
	C566.673401,456.868042 566.677246,444.535858 566.679321,432.203674 
	C566.680298,426.509430 564.397705,422.349976 558.188354,419.817932 
	C558.785706,419.520721 559.354553,419.126617 559.984802,418.940765 
	C570.205933,415.926514 580.391541,412.776611 590.683716,410.026459 
	C594.659790,408.963959 594.303223,412.344635 594.306946,414.798462 
	C594.330139,430.130310 594.308411,445.462280 594.301575,460.794189 
	C594.300720,462.627350 594.297363,464.460541 594.299622,466.293701 
	C594.312622,476.916321 594.565857,477.402954 602.894165,482.792542 
	C602.595215,484.840149 600.812195,484.755188 599.460754,484.935272 
	C590.876343,486.079498 582.288147,487.215149 573.679016,488.148682 
	C567.189270,488.852448 567.181091,488.716095 566.887634,482.025757 
	C566.851929,481.213654 566.699524,480.406708 566.504883,478.803772 
	C559.201904,483.960846 552.180603,488.761749 542.900024,489.220245 
z"/>
<path fill="#000000" opacity="1.000000" stroke="none" 
	d="
M926.849792,555.138428 
	C935.578552,533.550049 958.595886,523.952576 979.200134,532.977539 
	C993.814514,539.378845 1002.506531,554.427124 1000.663391,570.136719 
	C998.685364,586.996155 986.781494,600.115967 970.630371,603.237793 
	C945.305725,608.132751 923.608276,589.915344 924.767395,564.761658 
	C924.915039,561.556885 925.798828,558.540100 926.849792,555.138428 
M973.407288,580.856323 
	C973.521790,573.873962 973.773560,566.890381 973.711243,559.909607 
	C973.651489,553.222229 972.616760,546.643311 970.014954,540.430969 
	C968.559570,536.955811 966.443359,533.524292 962.258545,533.605835 
	C958.083252,533.687134 956.236938,537.171692 954.771545,540.702087 
	C952.560059,546.030029 952.167786,551.693970 951.745911,557.306946 
	C950.806091,569.811096 951.022034,582.248413 955.770508,594.136597 
	C956.982117,597.169983 958.804321,599.745239 962.586243,599.854309 
	C966.568604,599.969238 968.561279,597.357056 970.069092,594.249756 
	C971.980957,590.309875 972.557739,586.000977 973.407288,580.856323 
z"/>
<path fill="#000000" opacity="1.000000" stroke="none" 
	d="
M172.887634,409.062927 
	C192.681351,411.360687 202.185974,419.868317 205.683151,438.037079 
	C206.703629,443.338654 206.152893,444.044861 200.470108,444.073334 
	C189.139954,444.130127 177.809326,444.092865 166.479019,444.128693 
	C164.690460,444.134338 162.823532,443.801270 160.679382,445.059906 
	C161.471634,454.384338 163.422791,463.395844 172.223709,468.516754 
	C185.160919,476.044373 195.304993,470.205627 203.800659,460.018127 
	C206.147568,462.106598 204.905334,463.823273 204.316528,465.414032 
	C198.479843,481.183105 185.206146,490.058105 168.818604,489.206329 
	C153.087234,488.388672 139.278961,477.019348 135.236145,461.555450 
	C128.381592,435.336609 145.688904,410.918427 172.887634,409.062927 
M160.640030,433.887787 
	C159.571915,438.388550 161.512360,439.965881 165.906006,439.678986 
	C169.556915,439.440552 173.238022,439.547485 176.901306,439.653992 
	C179.638962,439.733521 180.846832,438.626862 180.838425,435.840210 
	C180.822815,430.662445 180.674164,425.517242 179.186798,420.505402 
	C178.204773,417.196350 176.906555,413.892578 172.972290,413.540710 
	C169.474731,413.227875 167.154343,415.586823 165.399750,418.414520 
	C162.612167,422.907013 161.506882,427.929047 160.640030,433.887787 
z"/>
<path fill="#000000" opacity="1.000000" stroke="none" 
	d="
M361.420990,469.390564 
	C349.899902,444.915619 361.977570,416.877228 386.463104,410.499817 
	C407.232117,405.090363 425.569855,417.204407 428.994476,438.452759 
	C429.676361,442.683563 428.249115,444.195007 424.041016,444.143799 
	C412.226746,444.000092 400.407837,444.206360 388.594574,444.025116 
	C384.377563,443.960449 383.017731,444.978516 384.060333,449.497284 
	C386.250366,458.989014 389.528381,467.467133 399.811584,470.725739 
	C408.458649,473.465881 417.866638,470.410583 423.596771,463.372681 
	C424.603912,462.135712 425.199402,460.372101 427.299408,460.255219 
	C429.402435,462.026154 427.974579,463.911652 427.281219,465.609589 
	C421.739838,479.180298 412.179169,487.998505 397.159576,489.053986 
	C381.435394,490.158966 369.465271,483.502960 361.420990,469.390564 
M383.806305,433.092773 
	C382.992920,439.452789 383.134247,439.624634 389.427734,439.636993 
	C392.910767,439.643860 396.394562,439.575531 399.876740,439.627380 
	C402.518188,439.666687 403.933807,438.569397 403.917908,435.821289 
	C403.887238,430.510559 403.794342,425.204865 402.262787,420.058838 
	C401.322083,416.898071 399.779419,413.992096 396.202240,413.528961 
	C392.642487,413.068085 390.392242,415.490387 388.618866,418.240967 
	C385.867035,422.509186 384.554382,427.275055 383.806305,433.092773 
z"/>
<path fill="#000000" opacity="1.000000" stroke="none" 
	d="
M751.211426,594.110229 
	C747.045044,603.049011 743.387878,611.835876 738.930542,620.196045 
	C732.957825,631.398621 724.154480,638.547974 710.484009,637.338745 
	C701.321228,636.528259 695.711426,628.369629 698.942139,620.450623 
	C702.204529,612.453918 712.812439,610.932068 718.147888,617.721191 
	C718.860596,618.628052 719.347290,619.710999 719.955078,620.702209 
	C721.523071,623.259399 721.502014,627.606750 725.521484,627.537903 
	C729.328003,627.472839 731.438354,624.107117 733.295654,621.127014 
	C736.212219,616.447388 738.155884,611.287354 740.280945,606.220825 
	C741.140381,604.171753 740.634216,602.335388 739.773682,600.463196 
	C731.431946,582.314514 723.115906,564.153931 714.763123,546.010254 
	C712.577087,541.261719 709.109497,537.491333 705.279724,533.321960 
	C719.451233,533.321960 733.622742,533.321960 748.964783,533.321960 
	C740.487854,538.134216 742.723328,544.434448 745.226624,550.513062 
	C748.260315,557.879883 751.686646,565.085083 755.534424,573.681335 
	C760.114197,563.099609 765.837463,554.309509 764.807983,543.278748 
	C764.372742,538.615662 761.499207,535.888672 757.340881,533.735229 
	C766.806702,532.188049 776.032654,532.658508 785.527039,532.823242 
	C785.295898,533.792419 785.326477,534.507019 785.065002,534.637756 
	C778.186218,538.077698 774.802673,544.476257 771.675659,550.898804 
	C764.754089,565.115051 758.117249,579.469971 751.211426,594.110229 
z"/>
<path fill="#000000" opacity="1.000000" stroke="none" 
	d="
M214.616760,430.720093 
	C213.906754,424.465302 209.779663,422.111969 204.573212,421.323761 
	C205.435699,418.306366 207.614700,418.407410 209.220093,417.947235 
	C218.491898,415.289673 227.842117,412.903473 237.098495,410.195374 
	C240.879852,409.089081 242.452393,410.057312 242.288971,414.035278 
	C242.154984,417.296783 242.261658,420.568207 242.261658,424.691132 
	C244.857285,420.418884 246.946457,416.848236 250.003815,414.019379 
	C254.021759,410.301697 258.533478,407.651337 264.212921,407.636505 
	C269.721466,407.622131 273.990051,410.298706 275.721741,414.816284 
	C277.513214,419.489777 276.000946,425.923981 272.371521,429.071045 
	C268.589142,432.350647 263.094391,432.767334 258.381775,430.101074 
	C257.514923,429.610657 256.705750,429.016876 255.877747,428.459290 
	C248.877426,423.745575 245.802567,424.819092 243.200729,432.793854 
	C242.569672,434.728058 242.344421,436.661987 242.351486,438.677765 
	C242.381241,447.166595 242.276764,455.656586 242.378403,464.144287 
	C242.475342,472.239594 240.307678,481.361542 252.088074,484.612762 
	C251.759460,484.966949 251.430847,485.321106 251.102234,485.675293 
	C236.273026,485.675293 221.443817,485.675293 206.574219,485.675293 
	C206.602432,485.043671 206.524002,484.501312 206.643463,484.453552 
	C213.713684,481.624969 214.979431,475.982574 214.805191,469.093719 
	C214.485428,456.451508 214.680649,443.796234 214.616760,430.720093 
z"/>
<path fill="#000000" opacity="1.000000" stroke="none" 
	d="
M776.995544,573.548584 
	C774.061890,541.848755 800.579895,524.886658 825.869202,530.820312 
	C831.325806,532.100647 836.335693,534.295593 839.581909,539.208862 
	C843.314819,544.858643 842.016602,551.445496 836.687439,554.337585 
	C831.007324,557.420105 824.323914,555.308167 821.606445,549.266296 
	C820.183044,546.101624 819.465759,542.626709 818.268311,539.350830 
	C817.270752,536.621826 815.788452,533.923218 812.612488,533.629089 
	C809.676270,533.357117 807.813293,535.622620 806.294983,537.876404 
	C799.740906,547.604553 801.025269,571.673340 808.546448,580.760620 
	C816.233398,590.048157 830.435547,590.048035 838.325378,580.782410 
	C839.469421,579.438843 840.091003,577.497925 842.236145,577.154785 
	C844.286560,578.370544 843.321716,580.039795 842.824768,581.526489 
	C838.101501,595.659180 826.209961,604.234314 811.475464,604.183289 
	C796.871948,604.132751 783.445801,594.727417 778.887085,581.251404 
	C778.090454,578.896301 777.657654,576.418091 776.995544,573.548584 
z"/>
<path fill="#000000" opacity="1.000000" stroke="none" 
	d="
M304.248474,460.675903 
	C299.218109,449.743073 294.448883,439.103027 289.463623,428.565186 
	C286.760162,422.850555 283.403717,417.527771 277.470337,414.221161 
	C281.126556,411.434601 319.266388,410.916351 324.320312,413.072327 
	C324.510101,414.097198 323.830109,414.617523 323.078644,414.957123 
	C318.562469,416.998077 317.672394,420.668945 318.960571,424.931030 
	C322.191254,435.620117 327.410950,445.470917 332.305115,456.774841 
	C337.572266,445.831696 343.258270,436.336792 342.852173,424.634277 
	C342.647156,418.725494 338.767639,416.009674 334.349792,412.682556 
	C344.450745,412.682556 354.551697,412.682556 364.652649,412.682556 
	C364.943695,413.084625 365.234741,413.486694 365.525787,413.888763 
	C360.317322,416.313049 356.648499,420.111633 353.808228,424.784332 
	C349.643158,431.636566 346.173401,438.828949 342.794800,446.076843 
	C337.024567,458.455200 331.245026,470.829376 325.521759,483.229462 
	C324.417725,485.621490 323.286774,487.462402 320.110260,487.447906 
	C316.956512,487.433533 315.804626,485.659424 314.705902,483.229004 
	C311.344177,475.792786 307.857605,468.412994 304.248474,460.675903 
z"/>
<path fill="#000000" opacity="1.000000" stroke="none" 
	d="
M651.503540,541.700745 
	C660.078735,530.292847 671.909790,528.919617 684.454773,530.049255 
	C689.406494,530.495178 694.268921,531.756042 698.893372,533.785522 
	C701.448730,534.906982 702.401917,536.378845 701.499512,539.233398 
	C699.917969,544.236328 698.642456,549.335999 697.299866,554.175049 
	C694.105591,554.185791 694.094666,552.225220 693.492920,550.768677 
	C691.637085,546.276550 689.456787,541.978760 685.791504,538.646729 
	C682.745422,535.877625 679.298584,534.106079 675.015259,534.153015 
	C671.419250,534.192505 668.209167,535.123901 666.723145,538.557068 
	C665.076050,542.362549 666.516663,545.728210 669.462402,548.438171 
	C672.954224,551.650574 677.333008,553.387329 681.496765,555.456909 
	C686.718994,558.052612 691.969238,560.574280 696.422913,564.446411 
	C709.186707,575.543579 706.367188,594.067932 690.737000,600.648376 
	C676.885559,606.479736 663.009277,604.285645 649.238953,600.045654 
	C647.965942,599.653748 646.382446,598.961975 646.712585,597.389832 
	C648.157410,590.509094 649.885864,583.696777 652.539001,577.141418 
	C655.763245,578.282410 655.474426,580.669678 656.055176,582.415710 
	C657.659729,587.239624 659.941101,591.582397 663.595642,595.178406 
	C667.418518,598.940125 671.954407,600.427063 677.260071,599.844360 
	C680.662659,599.470581 683.459534,598.141113 684.585449,594.758362 
	C685.721985,591.343445 685.011963,588.147461 682.308228,585.602539 
	C679.482544,582.942871 676.023438,581.257812 672.611572,579.522888 
	C667.567749,576.958130 662.409363,574.594299 657.892822,571.113831 
	C647.774048,563.316223 645.554871,553.464661 651.503540,541.700745 
z"/>
</svg>