<?xml version="1.0" encoding="UTF-8" standalone="no"?>
<svg
   version="1.1"
   id="svg221"
   sodipodi:docname="Logo Courrier Picard.svg"
   xml:space="preserve"
   width="576"
   height="217.91992"
   inkscape:version="1.2 (dc2aeda, 2022-05-15)"
   xmlns:inkscape="http://www.inkscape.org/namespaces/inkscape"
   xmlns:sodipodi="http://sodipodi.sourceforge.net/DTD/sodipodi-0.dtd"
   xmlns="http://www.w3.org/2000/svg"
   xmlns:svg="http://www.w3.org/2000/svg"><defs
     id="defs225" /><sodipodi:namedview
     id="namedview223"
     pagecolor="#ffffff"
     bordercolor="#000000"
     borderopacity="0.25"
     inkscape:showpageshadow="2"
     inkscape:pageopacity="0.0"
     inkscape:pagecheckerboard="0"
     inkscape:deskcolor="#d1d1d1"
     showgrid="false"
     inkscape:zoom="1.5662415"
     inkscape:cx="287.95048"
     inkscape:cy="51.716162"
     inkscape:window-width="1920"
     inkscape:window-height="1080"
     inkscape:window-x="0"
     inkscape:window-y="0"
     inkscape:window-maximized="0"
     inkscape:current-layer="svg221" /><path
     id="rect2209"
     style="fill:#c3272a;fill-opacity:1;stroke:none;stroke-width:3.11787;stroke-dasharray:none"
     d="M 83.568359,0 0,83.912109 V 217.91992 H 576 V 0 Z" /><g
     id="g807"
     transform="matrix(1.1712317,0,0,1.1712317,-408.61653,104.58647)"
     style="fill:#ffffff;stroke:none;stroke-width:0.830749;stroke-dasharray:none"><path
       d="m 442.08,60.49 c 2.11,2.3 4.05,4.3 7.53,4.3 5.91,0 7.73,-7.29 7.73,-16.54 0,-5.58 -0.39,-15 -8.11,-15 -2.92,0 -5.71,2.01 -7.15,3.85 z M 423.91,23.45 h 17.59 v 5.21 c 4.45,-3.51 9.57,-6.57 15.45,-6.57 13.34,0 19.31,13.85 19.31,25.97 0,13.27 -5.78,27.33 -20.57,27.33 -5.23,0 -10.23,-2.69 -13.61,-6.55 V 89.99 H 423.9 v -66.54 0 z"
       style="fill:#ffffff;stroke:none;stroke-width:0.830749;stroke-dasharray:none"
       id="path190" /><rect
       x="482.48001"
       y="23.450001"
       width="18.17"
       height="51.169998"
       style="fill:#ffffff;stroke:none;stroke-width:0.830749;stroke-dasharray:none"
       id="rect194" /><path
       d="m 539.67,44.77 c -0.16,-5.71 -1.42,-9.39 -6.52,-9.39 -3.87,0 -7.52,3.28 -7.52,15.2 0,11.25 2.88,15.18 9.34,15.18 5.89,0 8.12,-4.02 9.67,-8.65 l 13.02,2.3 c -4.43,11.25 -11.95,18.1 -24.71,18.1 -15.26,0 -26.28,-9.91 -26.28,-26.93 0,-15.66 10.62,-26.95 26.09,-26.95 12.56,0 20.47,6.37 23.56,18.29 z"
       style="fill:#ffffff;stroke:none;stroke-width:0.830749;stroke-dasharray:none"
       id="path196" /><path
       d="m 592.24,51.24 c -5.19,0.68 -13.01,2.02 -13.01,8.08 0,3.73 3.65,5.47 5.59,5.47 2.68,0 4.83,-1.04 7.42,-2.87 z M 564.05,36.32 c 2.33,-10.95 12.76,-14.23 22.91,-14.23 18.83,0 22.88,6.91 22.88,15.02 v 27.41 c 0,1.71 0.22,7.49 2.04,10.09 h -18.64 c -0.41,-1.26 -0.69,-2.99 -0.77,-4.62 -4.16,3.75 -9.96,5.96 -15.65,5.96 -4.94,0 -15.17,-2.6 -15.17,-15.11 0,-14.04 15.83,-18.17 30.7,-18.28 v -4.22 c 0,-3.83 -2.8,-5.09 -6.07,-5.09 -4.45,0 -6.08,2.4 -7.15,6.26 z"
       style="fill:#ffffff;stroke:none;stroke-width:0.830749;stroke-dasharray:none"
       id="path198" /><path
       d="m 617.95,23.45 h 18.18 v 7.99 h 0.17 c 3.69,-5.79 11.23,-8.95 18.17,-9.35 v 17.43 c -4.39,-1.04 -7.24,-1.43 -9.85,-1.09 -3.36,0.47 -5.83,1.26 -8.49,3.47 v 32.71 h -18.18 z"
       style="fill:#ffffff;stroke:none;stroke-width:0.830749;stroke-dasharray:none"
       id="path200" /><path
       d="m 692.84,37.57 c -2.14,-2.3 -4.06,-4.31 -7.53,-4.31 -5.89,0 -7.73,7.3 -7.73,16.54 0,5.58 0.38,15 8.11,15 2.89,0 5.7,-2 7.15,-3.86 z M 711,74.61 h -17.6 v -5.2 c -4.42,3.46 -9.55,6.55 -15.43,6.55 -13.33,0 -19.32,-13.86 -19.32,-25.98 0,-13.25 5.78,-27.33 20.57,-27.33 5.23,0 10.26,2.71 13.64,6.57 V 1.91 h 18.15 v 72.7 z"
       style="fill:#ffffff;stroke:none;stroke-width:0.830749;stroke-dasharray:none"
       id="path208" /><path
       d="m 500.41,9.65 c 0,4.85 -3.96,8.76 -8.84,8.76 -4.88,0 -8.82,-3.91 -8.82,-8.76 0,-4.85 3.96,-8.78 8.82,-8.78 4.87,0 8.84,3.91 8.84,8.78"
       style="fill:#ffffff;stroke:none;stroke-width:0.830749;stroke-dasharray:none"
       id="path210" /></g><g
     id="g2155"
     transform="translate(104.70429,40.336975)"
     style="fill:#ffffff"><path
       d="M 29.545053,-0.6585025 C 28.77204,-8.3417824 24.672729,-15.416022 16.532669,-15.416022 c -9.4986889,0 -14.230465,7.9995126 -14.230465,26.352713 0,19.032515 4.2632834,28.191547 16.490942,28.191547 8.831087,0 14.394438,-7.917526 16.081012,-15.905326 l 18.306351,3.947051 c -5.727323,20.16861 -18.306351,28.835724 -39.130851,28.835724 -16.5377917,0 -37.573113,-12.860124 -37.573113,-43.487833 0,-30.627709 20.3911439,-44.811325 41.086808,-44.811325 20.695664,0 33.145857,14.40615 34.855855,29.9483949 z"
       style="fill:#ffffff;stroke:none;stroke-width:0.973;stroke-dasharray:none"
       id="path182" /><path
       d="m 99.467586,24.452705 c 0,-13.972794 -3.736229,-17.8027217 -9.967182,-17.8027217 -6.230953,0 -9.932045,3.8299277 -9.932045,17.8027217 0,13.972794 3.701092,17.79101 9.932045,17.79101 6.230953,0 9.967182,-3.829928 9.967182,-17.79101 m -9.95547,31.552982 c -18.903679,0 -32.103461,-11.606906 -32.103461,-31.54127 0,-18.3532003 12.438481,-31.5529815 32.103461,-31.5529815 18.341484,0 32.138594,12.2745082 32.138594,31.5529815 0,19.278474 -12.91868,31.54127 -32.138594,31.54127"
       style="fill:#ffffff;stroke:none;stroke-width:0.973;stroke-dasharray:none"
       id="path184" /><path
       d="m 187.60277,54.424524 h -21.28128 v -8.561703 c -5.18856,5.153419 -11.75917,10.131154 -19.53614,10.131154 -5.7976,0 -17.35766,-3.279449 -17.35766,-18.165804 V -5.5074017 H 150.7324 V 32.452218 c 0,4.274995 0.99554,8.655402 6.41835,8.655402 3.17403,0 6.11383,-2.553285 9.17074,-5.387666 V -5.5074017 h 21.28128 z"
       style="fill:#ffffff;stroke:none;stroke-width:0.973;stroke-dasharray:none"
       id="path186" /><path
       d="m 369.07341,16.94511 c 0.22253,-6.359788 -2.74068,-11.6069062 -8.80766,-11.6069062 -7.26164,0 -9.86177,5.0597212 -9.99061,11.6069062 z m -19.57128,11.442934 c 0,8.573416 5.98499,13.867383 14.03135,13.867383 5.30568,0 11.09157,-3.38486 13.66828,-8.772525 l 14.04307,6.289514 c -7.35534,10.693345 -17.42793,16.233271 -31.78723,16.233271 -18.89197,0 -32.15031,-11.606906 -32.15031,-31.54127 0,-18.3532003 12.47362,-31.5529815 32.15031,-31.5529815 17.87299,0 31.78723,10.3654005 31.78723,33.8017465 v 1.674862 z"
       style="fill:#ffffff;stroke:none;stroke-width:0.973;stroke-dasharray:none"
       id="path188" /><path
       d="m 198.70605,-5.776785 h 21.28128 v 9.3581413 h 0.19911 c 4.34527,-6.7697193 13.14122,-10.4825238 21.31641,-10.9393041 V 13.033196 c -5.16513,-1.194656 -8.51485,-1.651437 -11.52492,-1.253218 -3.92362,0.527054 -6.81656,1.475752 -9.97889,4.075886 v 38.287565 h -21.28128 v -59.920214 0 z"
       style="fill:#ffffff;stroke:none;stroke-width:0.973;stroke-dasharray:none"
       id="path202" /><path
       d="m 247.3473,-5.776785 h 21.25786 v 9.3581413 h 0.23424 c 4.29842,-6.7697193 13.12951,-10.4825238 21.25786,-10.9393041 V 13.033196 c -5.13,-1.194656 -8.47972,-1.651437 -11.51321,-1.253218 -3.95876,0.527054 -6.81657,1.475752 -9.96718,4.075886 V 54.143429 H 247.35901 V -5.776785 Z"
       style="fill:#ffffff;stroke:none;stroke-width:0.973;stroke-dasharray:none"
       id="path204" /><path
       d="m 398.89297,-5.776785 h 21.25786 v 9.3581413 h 0.21082 c 4.29842,-6.7697193 13.14122,-10.4825238 21.28128,-10.9393041 V 13.033196 c -5.15342,-1.194656 -8.49143,-1.651437 -11.54835,-1.253218 -3.91191,0.527054 -6.76972,1.475752 -9.94375,4.075886 v 38.287565 h -21.25786 z"
       style="fill:#ffffff;stroke:none;stroke-width:0.973;stroke-dasharray:none"
       id="path206" /><rect
       x="298.17877"
       y="-5.7767844"
       width="21.257854"
       height="59.931923"
       style="fill:#ffffff;stroke:none;stroke-width:0.973;stroke-dasharray:none"
       id="rect214" /><path
       d="m 319.08524,-22.759645 c 0,5.680474 -4.63808,10.25999 -10.37711,10.25999 -5.73904,0 -10.33026,-4.591228 -10.33026,-10.25999 0,-5.668761 4.63807,-10.283414 10.33026,-10.283414 5.73903,-0.01171 10.37711,4.567804 10.37711,10.283414"
       style="fill:#ffffff;stroke:none;stroke-width:0.973;stroke-dasharray:none"
       id="path216" /></g><path
     id="rect2211"
     style="fill:#e4e1d8;fill-opacity:1;stroke:none;stroke-width:0.974115;stroke-dasharray:none"
     d="M 53,0.38085938 0,53.601562 v 0.978516 h 53 z" /></svg>
