<?xml version="1.0" encoding="utf-8"?>
<!-- Generator: Adobe Illustrator 22.0.1, SVG Export Plug-In . SVG Version: 6.00 Build 0)  -->
<svg version="1.1" id="Livello_1" xmlns="http://www.w3.org/2000/svg" xmlns:xlink="http://www.w3.org/1999/xlink" x="0px" y="0px"
	 viewBox="0 0 2019 595.3" style="enable-background:new 0 0 2019 595.3;" xml:space="preserve">
<style type="text/css">
	.st0{fill:#0082E6;}
	.st1{fill:#232323;}
</style>
<g>
	<path class="st0" d="M222.1,383.6c0,61.3-49.7,111.1-111.1,111.1S0,444.9,0,383.6c0-61.3,49.7-111.1,111.1-111.1
		S222.1,322.2,222.1,383.6"/>
	<path class="st1" d="M561,197.9L667.5,67.1V0H311.1v100.6h191.8L397.5,225.3v72.3c21.8-10.9,46.9-16.8,70.4-16.8
		c65.4,0,115.7,46.1,115.7,107.3c0,62.9-54.5,106.5-109.8,106.5c-44.4,0-84.7-24.3-109-58.7l-81.3,67.9
		c52,58.7,121.6,91.4,194.5,91.4c121.6,0,218.8-83,218.8-207.1C696.8,299.3,641.5,228.9,561,197.9"/>
	<path class="st1" d="M806.9,240.4h24.7v7.7c7.5-6.1,17.2-9.7,28.1-9.7c26.1,0,47,21.7,47,50c0,13-4.5,24.9-12.1,33.6
		c-8.5,9.9-22.1,16.2-36.3,16.2c-9.7,0-18-2.7-25.7-8.7v54.2h-25.7V240.4z M832.6,302.7c4.9,7.1,13.4,11.9,23.1,11.9
		c14.4,0,25.3-11.1,25.3-26.1c0-13.8-9.7-26.3-24.7-26.3c-9.9,0-18.4,4.8-23.7,11.9V302.7z"/>
	<path class="st1" d="M1016.4,336.2h-24.7v-7.7c-7.9,6.7-17,9.7-26.7,9.7c-14.2,0-27.6-6.3-36.2-16.2c-7.5-8.7-12.2-20.5-12.2-33.6
		c0-28.3,21-50,47-50c10.9,0,20.5,3.5,28.1,9.7v-7.7h24.7V336.2z M990.7,274c-5.3-7.1-13.8-11.9-23.7-11.9
		c-15,0-24.7,12.5-24.7,26.3c0,15,10.9,26.1,25.3,26.1c9.7,0,18.2-4.8,23.1-11.9V274z"/>
	<path class="st1" d="M1100.3,263.1c-1.8-0.6-5.5-1-9.3-1c-11.3,0-20.2,8.1-23.3,13.8v60.3H1042v-95.8h24.7v9.7
		c5.7-7.1,16.2-11.7,27.9-11.7c3.8,0,5.9,0.4,8.7,0.8L1100.3,263.1z"/>
	<path class="st1" d="M1133.9,190c9.3,0,16.8,7.1,16.8,16.4c0,9.3-7.5,16.4-16.8,16.4c-9.3,0-16.8-7.1-16.8-16.4
		C1117.1,197.2,1124.6,190,1133.9,190 M1146.7,336.2H1121v-95.8h25.7V336.2z"/>
	<path class="st1" d="M1179.3,307c6.5,5.9,16.6,9.5,26.3,9.5c6.9,0,12.2-3.4,12.2-8.1c0-14.4-46.4-9.3-46.4-40.1
		c0-18.4,17.8-29.8,36.7-29.8c12.5,0,26.1,4.8,32.4,9.7l-12,18.6c-4.9-3.6-11.5-6.5-18.4-6.5c-7.1,0-13,2.8-13,7.7
		c0,12.4,46.4,7.5,46.4,40.7c0,18.4-18,29.6-38.1,29.6c-13.2,0-27.3-4.5-38.5-12.8L1179.3,307z"/>
	<rect x="806.9" y="456.9" class="st1" width="25.7" height="95.8"/>
	<rect x="862.2" y="412.5" class="st1" width="25.7" height="140.3"/>
	<path class="st1" d="M999.2,537.6c-9.3,11.1-24.5,17.2-39.3,17.2c-28.7,0-50.2-19.7-50.2-49.8c0-26.7,18.2-50,46.6-50
		c26.5,0,45.2,22.3,45.2,49c0,2.6-0.2,5.1-0.6,7.3h-66.4c1.4,13.4,12.2,22.7,25.9,22.7c10.9,0,19.6-6.1,24.1-11.1L999.2,537.6z
		 M975.3,492.5c-0.8-8.5-8.5-16.8-19-16.8c-10.7,0-19.4,8.1-20.6,16.8H975.3z"/>
	<rect x="1022.3" y="490.5" class="st1" width="65.2" height="21.7"/>
	<path class="st1" d="M1183.3,552.8v-7.7c-7.9,6.7-17,9.7-26.7,9.7c-14.2,0-27.6-6.3-36.2-16.2c-7.5-8.7-12.2-20.5-12.2-33.6
		c0-28.3,21-50,47-50c10.5,0,19.6,2.9,27.1,8.9v-51.4h25.7v140.3H1183.3z M1182.3,490.5c-5.3-7.1-13.8-11.9-23.7-11.9
		c-15,0-24.7,12.5-24.7,26.3c0,15,10.9,26.1,25.3,26.1c9.7,0,18.2-4.8,23.1-11.9V490.5z"/>
	<path class="st1" d="M1319.2,537.6c-9.3,11.1-24.5,17.2-39.3,17.2c-28.7,0-50.2-19.7-50.2-49.8c0-26.7,18.2-50,46.6-50
		c26.5,0,45.2,22.3,45.2,49c0,2.6-0.2,5.1-0.6,7.3h-66.4c1.4,13.4,12.2,22.7,25.9,22.7c10.9,0,19.6-6.1,24.1-11.1L1319.2,537.6z
		 M1295.3,492.5c-0.8-8.5-8.5-16.8-19-16.8c-10.7,0-19.4,8.1-20.6,16.8H1295.3z"/>
	<rect x="1342.3" y="490.5" class="st1" width="65.2" height="21.7"/>
	<path class="st1" d="M1495.4,434.2c-2.2-0.6-5.3-1-7.7-1c-6.3,0-11.3,1.8-14.4,5.5c-2.2,2.8-3.6,6.3-3.6,15.2v3h29.6v21.7h-29.6
		v74.1h-25.7v-74.1h-24.7v-21.7h24.7V453c0-15.4,3.5-24.7,10.3-31.2c6.7-6.5,16.8-11.3,29.8-11.3c5.1,0,9.9,0.4,15.2,1.8
		L1495.4,434.2z"/>
	<path class="st1" d="M1571.5,479.7c-1.8-0.6-5.5-1-9.3-1c-11.3,0-20.2,8.1-23.3,13.8v60.3h-25.7v-95.8h24.7v9.7
		c5.7-7.1,16.2-11.7,27.9-11.7c3.7,0,5.9,0.4,8.7,0.8L1571.5,479.7z"/>
	<path class="st1" d="M1680.2,552.8h-24.7v-7.7c-7.9,6.7-17,9.7-26.7,9.7c-14.2,0-27.6-6.3-36.2-16.2c-7.5-8.7-12.2-20.5-12.2-33.6
		c0-28.3,21-50,47-50c10.9,0,20.5,3.5,28.1,9.7v-7.7h24.7V552.8z M1654.5,490.5c-5.3-7.1-13.8-11.9-23.7-11.9
		c-15,0-24.7,12.5-24.7,26.3c0,15,10.9,26.1,25.3,26.1c9.7,0,18.2-4.8,23.1-11.9V490.5z"/>
	<path class="st1" d="M1705.9,552.8v-95.8h24.7v7.7c7.3-5.9,16.4-9.7,27.1-9.7c13.2,0,25.3,5.9,33.2,15.4c6.3,7.5,9.9,17.2,9.9,33.6
		v48.8H1775V502c0-9.5-2.2-14.4-5.7-18c-3.4-3.4-8.5-5.3-14.4-5.3c-10.9,0-19.7,6.9-23.3,11.9v62.2H1705.9z"/>
	<path class="st1" d="M1915.3,533.2c-11.3,15-25.5,21.5-43.5,21.5c-29.6,0-51.4-22.1-51.4-49.8c0-27.9,22.3-50,51.6-50
		c16.6,0,31.4,7.7,40.3,19.2l-18.2,16c-5.1-6.7-12.8-11.5-22.1-11.5c-14.8,0-25.9,11.7-25.9,26.3c0,15,10.9,26.1,26.5,26.1
		c10.5,0,18.8-6.3,22.9-12.7L1915.3,533.2z"/>
	<path class="st1" d="M2016.6,537.6c-9.3,11.1-24.5,17.2-39.3,17.2c-28.7,0-50.2-19.7-50.2-49.8c0-26.7,18.2-50,46.6-50
		c26.5,0,45.2,22.3,45.2,49c0,2.6-0.2,5.1-0.6,7.3H1952c1.4,13.4,12.2,22.7,25.9,22.7c10.9,0,19.6-6.1,24.1-11.1L2016.6,537.6z
		 M1992.7,492.5c-0.8-8.5-8.5-16.8-19-16.8c-10.7,0-19.4,8.1-20.6,16.8H1992.7z"/>
	<polygon class="st1" points="833.6,410.5 853.3,442.1 835.6,442.1 819.8,424.3 804,442.1 786.2,442.1 805.9,410.5 	"/>
</g>
</svg>
