<?xml version="1.0" encoding="UTF-8" standalone="no"?>
<!DOCTYPE svg PUBLIC "-//W3C//DTD SVG 1.1//EN" "http://www.w3.org/Graphics/SVG/1.1/DTD/svg11.dtd">
<svg width="100%" height="100%" viewBox="0 0 500 500" version="1.1" xmlns="http://www.w3.org/2000/svg" xmlns:xlink="http://www.w3.org/1999/xlink" xml:space="preserve" xmlns:serif="http://www.serif.com/" style="fill-rule:evenodd;clip-rule:evenodd;stroke-linejoin:round;stroke-miterlimit:2;">
    <g transform="matrix(9.37014,0,0,9.37014,-115.435,-32.0579)">
        <path d="M53.239,33.386L45.321,21.204L34.361,38.089L50.882,38.089C53.207,37.982 54.504,35.336 53.239,33.386Z" style="fill:rgb(255,200,0);fill-rule:nonzero;"/>
    </g>
    <g transform="matrix(9.37014,0,0,9.37014,-115.435,-32.0579)">
        <path d="M38.154,5.55L24.6,5.55C22.725,5.55 21.193,7.082 21.193,8.957L21.193,31.661L38.154,5.55Z" style="fill:rgb(30,50,200);fill-rule:nonzero;"/>
    </g>
    <g transform="matrix(9.37014,0,0,9.37014,-115.435,-32.0579)">
        <path d="M50.1,5.55L38.164,5.55L21.193,31.661L21.193,34.682C21.193,36.557 22.725,38.089 24.6,38.089L34.361,38.089L45.321,21.204L52.436,10.243C53.711,8.293 52.414,5.657 50.1,5.55Z" style="fill:rgb(250,30,20);fill-rule:nonzero;"/>
    </g>
    <g transform="matrix(9.37014,0,0,9.37014,-115.435,-32.0579)">
        <path d="M63.964,43.414C64.457,43.414 64.821,43.789 64.821,44.271C64.821,44.754 64.446,45.129 63.964,45.129C63.471,45.129 63.107,44.754 63.107,44.271C63.107,43.789 63.471,43.414 63.964,43.414M63.964,43.168C63.332,43.168 62.861,43.65 62.861,44.271C62.861,44.893 63.332,45.375 63.964,45.375C64.596,45.375 65.068,44.893 65.068,44.271C65.068,43.65 64.596,43.168 63.964,43.168ZM25.704,46.039C23.025,46.039 21.471,47.925 21.471,50.336C21.471,52.746 23.025,54.632 25.704,54.632C28.382,54.632 29.936,52.746 29.936,50.336C29.936,47.925 28.382,46.039 25.704,46.039ZM25.704,52.886C24.375,52.886 23.614,51.707 23.614,50.336C23.614,48.964 24.375,47.786 25.704,47.786C27.032,47.786 27.793,48.964 27.793,50.336C27.782,51.707 27.021,52.886 25.704,52.886ZM35.421,46.039C34.35,46.039 33.45,46.639 32.839,47.507L32.839,46.168L30.793,46.168L30.793,54.504L32.839,54.504L32.839,51.182C32.839,48.986 33.75,47.796 34.746,47.796C35.443,47.796 35.936,48.182 35.936,49.168L35.936,54.514L37.982,54.514L37.982,48.557C37.993,46.886 36.911,46.039 35.421,46.039ZM43.35,46.039C42.504,46.039 41.7,46.468 41.336,46.929L41.336,43.254L39.289,43.254L39.289,54.514L41.336,54.514L41.336,53.657C41.571,54.086 42.332,54.654 43.35,54.654C45.868,54.654 47.154,52.918 47.154,50.357C47.154,47.796 45.857,46.039 43.35,46.039ZM43.061,52.886C41.989,52.886 41.143,51.996 41.143,50.336C41.143,48.675 41.989,47.786 43.061,47.786C44.132,47.786 45,48.675 45,50.336C45,51.996 44.143,52.886 43.061,52.886ZM49.082,43.168C48.45,43.168 47.979,43.65 47.979,44.271C47.979,44.893 48.45,45.375 49.082,45.375C49.714,45.375 50.186,44.893 50.186,44.271C50.186,43.65 49.714,43.168 49.082,43.168ZM48.054,46.168L50.1,46.168L50.1,54.504L48.054,54.504L48.054,46.168ZM60.857,45.375C61.489,45.375 61.961,44.893 61.961,44.271C61.961,43.65 61.489,43.168 60.857,43.168C60.225,43.168 59.754,43.65 59.754,44.271C59.743,44.893 60.214,45.375 60.857,45.375ZM59.829,46.168L61.875,46.168L61.875,54.504L59.829,54.504L59.829,46.168ZM55.993,46.039C54.921,46.039 54.021,46.639 53.411,47.507L53.411,46.168L51.364,46.168L51.364,54.504L53.411,54.504L53.411,51.182C53.411,48.986 54.321,47.796 55.318,47.796C56.014,47.796 56.507,48.182 56.507,49.168L56.507,54.514L58.554,54.514L58.554,48.557C58.554,46.886 57.482,46.039 55.993,46.039Z" style="fill-rule:nonzero;"/>
    </g>
    <g transform="matrix(9.37014,0,0,9.37014,-115.435,-32.0579)">
        <path d="M21.621,43.254L18.975,43.254L15.086,47.582L15.086,43.254L12.932,43.254L12.932,54.504L15.086,54.504L15.086,50.529L16.2,49.286L19.532,54.504L22.082,54.504L17.689,47.625L21.621,43.254ZM64.125,44.304L64.436,44.807L64.2,44.807L63.9,44.314L63.793,44.314L63.793,44.807L63.579,44.807L63.579,43.671L63.996,43.671C64.221,43.671 64.339,43.811 64.339,43.993C64.339,44.143 64.264,44.261 64.125,44.304ZM64.136,43.993C64.136,43.896 64.082,43.864 64.007,43.864L63.804,43.864L63.804,44.121L64.007,44.121C64.071,44.121 64.136,44.089 64.136,43.993Z" style="fill-rule:nonzero;"/>
    </g>
</svg>
