<svg width="364" height="69" viewBox="0 0 364 69" fill="none" xmlns="http://www.w3.org/2000/svg">
<g clip-path="url(#clip0_28_900)">
<path d="M155.866 45.3688L157.567 45.5859L156.553 63.1737C150.148 66.9977 142.416 69.2052 131.631 68.9881C108.567 68.5297 95.937 55.1398 95.937 35.8391C95.937 13.7638 110.98 0 132.15 0C142.548 0 150.908 2.2799 156.819 6.03148V23.8123H155.033C151.813 13.8965 144.237 4.27029 136.71 4.27029C124.056 4.27029 121.028 22.5939 121.028 34.488C121.028 50.1698 126.01 63.9819 138.085 63.9819C145.19 63.9819 152.657 57.3594 155.805 45.3326" fill="#FA9749"/>
<path d="M299.668 67.3111L299.379 42.0393V24.138C299.379 19.2284 300.018 18.4322 303.275 16.3574V15.1511H280.934L281.067 41.4603L280.898 58.3484C280.898 63.258 279.788 64.2713 276.869 66.141V67.3473L299.668 67.3111Z" fill="#FA9749"/>
<path d="M186.686 40.6039H183.815L183.743 18.2875H186.686C193.091 18.2875 196.469 22.2803 196.469 29.1441C196.469 36.0079 193.091 40.6159 186.686 40.6159M218.182 61.2556C216.215 58.413 214.411 55.4609 212.778 52.4134C209.787 46.6232 205.975 43.125 197.856 42.7631C207.374 42.4254 214.986 37.6726 214.986 29.2526C214.986 19.6023 206.94 15.0063 195.48 15.0063H165.552L165.66 41.1346L165.467 58.3363C165.467 63.2459 164.369 64.2592 161.45 66.129V67.3353H183.96L183.815 44.1383H185.492C190.413 44.1383 191.921 45.3446 192.947 48.9635L196.011 59.3496C196.8 62.2544 198.153 64.9758 199.991 67.3594H223.056V65.9963C221.177 64.7124 219.543 63.1028 218.231 61.2435" fill="#FA9749"/>
<path d="M255.734 42.2204C255.734 27.8051 252.935 17.3224 246.699 17.3224C241.222 17.3224 238.954 27.395 238.954 40.0973C238.954 54.5125 241.753 64.9952 247.989 64.9952C253.478 64.9952 255.734 54.9227 255.734 42.2204ZM273.961 40.1817C273.961 57.8178 262.055 68.9398 246.421 68.9398C229.533 68.9398 220.208 56.5873 220.208 42.3289C220.208 24.6808 232.103 13.5588 247.664 13.5588C264.552 13.5588 273.961 25.9112 273.961 40.1817Z" fill="#FA9749"/>
<path d="M61.6657 49.8321H49.0358L55.3568 36.3698L61.6657 49.8321ZM85.9122 59.1084C81.7746 51.8707 63.2218 14.1378 63.2218 14.1378H61.919C61.919 14.1378 42.6183 54.5969 41.2794 57.3473C40.6856 58.5776 39.8674 59.6862 38.8668 60.6163C36.9246 62.2931 33.8365 63.62 28.9872 63.62H22.7025V41.4966L22.9196 23.9088C22.9196 18.9871 24.0294 17.9859 26.9486 16.1161V15.1029H4.02905C4.02905 15.1029 4.14968 56.1772 4.14968 58.7948C4.14968 63.7286 2.23167 64.7177 0.0844727 66.105V67.3112H41.3517L48.0225 53.077H63.2339L70.3269 67.3112H92.2211V66.105C89.5613 64.3426 87.391 61.9357 85.9122 59.1084Z" fill="#FA9749"/>
<path d="M355.363 57.9022C349.416 48.8671 344.905 41.5207 341.817 36.394C344.905 32.1599 349.477 26.3093 352.07 23.4745C355.062 20.3205 358.745 17.9046 362.83 16.4177V15.0908H350.611C349.652 17.947 348.291 20.6522 346.569 23.1247C345.665 24.5119 342.01 29.6146 339.621 32.7751L329.078 15.1028H306.4V16.3091C309.515 17.9484 312.126 20.4045 313.951 23.4142C316.762 27.8051 320.67 34.1864 326.726 44.1746C324.784 46.8284 319.573 53.825 315.869 58.2762C312.654 62.0147 308.36 64.6654 303.577 65.8638V67.3113H318.463C318.989 64.4451 320.014 61.6934 321.491 59.1809C322.214 57.9746 325.966 52.3171 328.97 47.8779C330.598 50.4714 331.225 51.4968 332.178 53.0529C336.147 59.4222 340.55 67.3113 340.55 67.3113H363.976V66.105C360.425 64.1877 357.452 61.3556 355.363 57.9022Z" fill="#FA9749"/>
</g>
<defs>
<clipPath id="clip0_28_900">
<rect width="364" height="69.0001" fill="white"/>
</clipPath>
</defs>
</svg>
