<?xml version="1.0" encoding="utf-8"?>
<!-- Generator: Adobe Illustrator 19.2.1, SVG Export Plug-In . SVG Version: 6.00 Build 0)  -->
<svg version="1.1" id="E-LOGO-LP-128x40.AI" xmlns="http://www.w3.org/2000/svg" xmlns:xlink="http://www.w3.org/1999/xlink"
	 x="0px" y="0px" width="130px" height="42px" viewBox="0 0 130 42" style="enable-background:new 0 0 130 42;"
	 xml:space="preserve">
<style type="text/css">
	.st0{fill-rule:evenodd;clip-rule:evenodd;fill:#FFFFFF;}
	.st1{fill-rule:evenodd;clip-rule:evenodd;fill:#1EA0E6;}
	.st2{fill-rule:evenodd;clip-rule:evenodd;fill:#F03333;}
	.st3{fill-rule:evenodd;clip-rule:evenodd;fill:none;stroke:#FFFFFF;stroke-miterlimit:10;}
	.st4{fill:#FFFFFF;}
</style>
<g id="E-LOGO-LP-128x40_1_">
	<rect id="Cartouche_blanc_4_" x="1" y="1" class="st0" width="128" height="40"/>
	<rect id="Cartouche_bleu_4_" x="1" y="1" class="st1" width="128" height="37"/>
	<rect id="Filet_rouge_5_" x="1" y="39" class="st2" width="128" height="2"/>
	<rect id="Filet_blanc" x="0.5" y="0.5" class="st3" width="129" height="41"/>
	<g id="Le_Parisien_4_">
		<polygon id="L_4_" class="st0" points="15,37 15,15 19,15 19,34 24,34 24,37 		"/>
		<path id="e_9_" class="st0" d="M30,36.975c0,0-0.204,0.125-0.75,0.125c-2.586,0-6.25-1.519-6.25-8.85c0-7.598,3.21-8.85,5.25-8.85
			c1.93,0,4.75,1.494,4.75,5.111c0,4.28-4.539,6.101-6.25,6.232c0.182,2.522,1.548,3.49,2.75,3.49c0.25,0,0.5,0,0.5,0V36.975z
			 M26.5,28c1.226-0.064,3-1.523,3-3.792l0,0c0-1.524-0.489-2.208-1.25-2.208C27.279,22,26.5,23.06,26.5,28z"/>
		<path id="P_4_" class="st0" d="M50,16c0,7.998-7.5,10.891-9,11.315V37h-4V7h3.284C45.086,7,50,9.201,50,16z M45.5,16
			c0-4.52-2.5-5.606-4.5-5.606v13.135C41.5,23.413,45.5,21.409,45.5,16z"/>
		<path id="a_4_" class="st0" d="M59,36.972h-3.5v-1.302L54,37.125c-3.125,0.516-6-2.839-6-6.625c0-6.181,5.5-8.269,7-8.5v-0.507
			C55,20.334,54.105,20,53,20c-1.062,0-1.565,0.268-2.5,0.5v-3c0,0,1.13-0.625,3-0.625c3.23,0,5.5,1.256,5.5,5.66V36.972z M55,25
			c-0.55,0.085-3,1.753-3,5.5c0,2.394,1.027,3.5,1.749,3.5C54.387,34,55,33.213,55,32.75V25z"/>
		<path id="r_4_" class="st0" d="M68.5,20.5c-1.997,0-3.5,1.643-3.5,4V37h-4V17h4v1.5c0.5-0.502,1.46-1.5,3.5-1.5H69v3.5H68.5z"/>
		<path id="i_9_" class="st0" d="M70,15v-4h4v4H70z M74,37V17h-4v20H74L74,37z"/>
		<path id="s_4_" class="st0" d="M85,31.25c0,3.427-2.975,5.875-6.503,5.875c-1.531,0-2.683-0.201-3.747-0.625l1.5-3
			c0.595,0.27,1.184,0.353,1.865,0.353c1.317,0,2.385-0.91,2.385-2.103c0-1.386-0.559-2.401-2.088-4.134
			C75.778,25.114,75,23.79,75,21.75c0-2.81,2.52-4.875,5.75-4.875c1.486,0,2.358,0.067,3.25,0.375l-1.5,3
			C82.076,20.057,81.679,20,81,20c-0.935,0-1.653,0.692-1.653,1.5c0,0.77,0.34,1.534,2.04,3.113C83.852,26.845,85,28.441,85,31.25z"
			/>
		<path id="i_8_" class="st0" d="M86,15v-4h4v4H86z M90,17h-4v20h4V17z"/>
		<path id="e_8_" class="st0" d="M102,22.5c0,4.967-4.774,7.347-6.747,7.5c0.21,2.926,1.628,4,3.014,4C98.647,34,99,34,99,34v3
			c0,0-0.438,0.125-1.07,0.125C94.951,37.125,91,35.507,91,27c0-8.816,3.647-10.125,6-10.125C99.226,16.875,102,18.304,102,22.5
			L102,22.5z M94.9,27c1.271-0.077,3.2-1.805,3.2-4.5c0-1.809-0.509-2.5-1.3-2.5C95.791,20,94.9,20.625,94.9,27z"/>
		<path id="n_4_" class="st4" d="M108,17c4.109-0.398,7,1.531,7,6.75V37h-4V22.5c0-1.39-1.022-2.5-2-2.5c-1.02,0-2,1.11-2,2.5V37h-4
			V17h4v1.005L108,17z"/>
	</g>
</g>
</svg>
