<?xml version="1.0" encoding="utf-8"?>
<!-- Generator: Adobe Illustrator 17.0.0, SVG Export Plug-In . SVG Version: 6.00 Build 0)  -->
<!DOCTYPE svg PUBLIC "-//W3C//DTD SVG 1.1//EN" "http://www.w3.org/Graphics/SVG/1.1/DTD/svg11.dtd">
<svg version="1.1" id="svg5039" xmlns:svg="http://www.w3.org/2000/svg"
	 xmlns="http://www.w3.org/2000/svg" xmlns:xlink="http://www.w3.org/1999/xlink" x="0px" y="0px" width="805px" height="170.491px"
	 viewBox="-245.52 -56.94 805 170.491" enable-background="new -245.52 -56.94 805 170.491" xml:space="preserve">
<g id="g5017" transform="matrix(1.25,0,0,-1.25,-720.46773,1046.7118)">
	<g id="g85">
		<path id="path87" fill="#ED1C24" d="M379.958,746.528h644v136.393h-644V746.528z"/>
	</g>
	<g id="g89">
		<path id="path91" fill="#FFFFFF" d="M410.963,870.145h25.683V784.06h34.369v-22h-60.052V870.145z"/>
	</g>
	<g id="g93">
		<path id="path95" fill="#FFFFFF" d="M454.524,836.175c3.234,3.768,6.216,7.927,7.957,12.606
			c-6.713,0.26-11.811,4.939-11.811,12.217c0,7.539,5.595,12.738,12.68,12.738c8.207,0,13.429-7.149,13.429-15.336
			c0-10.527-9.076-21.445-16.659-27.556L454.524,836.175z"/>
	</g>
	<g id="g97">
		<path id="path99" fill="#FFFFFF" d="M488.459,870.145h63.102v-20.95h-37.748v-21.859h31.629v-20.952h-31.629v-22.466h37.748
			V762.06h-63.102V870.145z"/>
	</g>
	<g id="g101">
		<path id="path103" fill="#FFFFFF" d="M661.28,851.016h4.507c7.324,0,15.776-3.188,15.776-13.359
			c0-10.169-8.451-13.207-15.776-13.207h-4.507V851.016z M635.925,762.06h25.354v43.872c3.239-0.305,6.478-0.608,9.719-0.608
			c20.142,0,36.754,9.259,36.754,34.157c0,21.252-15.204,30.665-34.078,30.665h-37.749V762.06z"/>
	</g>
	<g id="g105">
		<path id="path107" fill="#FFFFFF" d="M737.863,850.107h4.225c8.451,0,16.48-0.912,16.48-12.145
			c0-8.653-6.198-11.841-15.776-11.841h-4.93V850.107z M712.503,762.06h25.36v46.756h8.451l15.738-46.756h25.071l-19.963,52.523
			c9.86,3.947,16.761,13.512,16.761,24.897c0,21.252-14.648,30.665-33.663,30.665h-37.755V762.06z"/>
	</g>
	<g id="g109">
		<path id="path111" fill="#FFFFFF" d="M790.375,870.145h63.101v-20.95h-37.748v-21.859h31.619v-20.952h-31.619v-22.466h37.748
			V762.06h-63.101V870.145z"/>
	</g>
	<g id="g113">
		<path id="path115" fill="#FFFFFF" d="M878.192,796.367c3.661-9.108,7.606-15.485,17.326-15.485c5.773,0,10.422,3.948,10.422,9.109
			c0,22.01-44.509,9.867-44.509,51.614c0,16.242,15.071,30.664,32.396,30.664c16.903,0,29.579-10.323,33.946-23.834l-20.142-9.107
			c-2.675,6.375-6.479,11.992-13.804,11.992c-4.367,0-8.732-2.885-8.732-9.109c0-15.332,45.353-11.841,45.353-45.693
			c0-22.164-16.903-36.585-36.621-36.585c-17.042,0-30.706,9.716-36.622,27.325L878.192,796.367z"/>
	</g>
	<g id="g117">
		<path id="path119" fill="#FFFFFF" d="M951.575,796.367c3.661-9.108,7.606-15.485,17.325-15.485c5.774,0,10.423,3.948,10.423,9.109
			c0,22.01-44.509,9.867-44.509,51.614c0,16.242,15.07,30.664,32.395,30.664c16.903,0,29.581-10.323,33.947-23.834l-20.143-9.107
			c-2.676,6.375-6.478,11.992-13.804,11.992c-4.366,0-8.732-2.885-8.732-9.109c0-15.332,45.354-11.841,45.354-45.693
			c0-22.164-16.902-36.585-36.622-36.585c-17.042,0-30.704,9.716-36.621,27.325L951.575,796.367z"/>
	</g>
	<g id="g121">
		<path id="path123" fill="#FFFFFF" d="M608.135,820.806l25.493,49.339h-24.882l-12.406-24.991l-9.474,24.991h-29.672l24.507-54.347
			l-27.325-53.738h25.165l13.851,28.445l11.832-28.445h29.25L608.135,820.806z"/>
	</g>
</g>
</svg>
