<?xml version="1.0" encoding="UTF-8" standalone="no"?>
<svg
   version="1.0"
   width="2057.000000pt"
   height="358.000000pt"
   viewBox="0 0 2057.000000 358.000000"
   preserveAspectRatio="xMidYMid meet"
   id="svg213"
   sodipodi:docname="lindependant.svg"
   inkscape:version="1.2.2 (b0a8486541, 2022-12-01)"
   xmlns:inkscape="http://www.inkscape.org/namespaces/inkscape"
   xmlns:sodipodi="http://sodipodi.sourceforge.net/DTD/sodipodi-0.dtd"
   xmlns="http://www.w3.org/2000/svg"
   xmlns:svg="http://www.w3.org/2000/svg">
  <defs
     id="defs217" />
  <sodipodi:namedview
     id="namedview215"
     pagecolor="#505050"
     bordercolor="#eeeeee"
     borderopacity="1"
     inkscape:showpageshadow="0"
     inkscape:pageopacity="0"
     inkscape:pagecheckerboard="0"
     inkscape:deskcolor="#505050"
     inkscape:document-units="pt"
     showgrid="false"
     inkscape:zoom="0.57024793"
     inkscape:cx="1033.7609"
     inkscape:cy="240.24638"
     inkscape:window-width="3840"
     inkscape:window-height="2160"
     inkscape:window-x="0"
     inkscape:window-y="1680"
     inkscape:window-maximized="1"
     inkscape:current-layer="g211" />
  <metadata
     id="metadata197">
Created by potrace 1.16, written by Peter Selinger 2001-2019
<meta
   name="Producer"
   content="Online-Convert" />
</metadata>
  <g
     transform="translate(0.000000,358.000000) scale(0.100000,-0.100000)"
     fill="#000000"
     stroke="none"
     id="g211">
    <rect
       style="fill:#ffffff;fill-opacity:1;stroke-width:20.6032"
       id="rect5127"
       width="20496.902"
       height="3499.4163"
       x="16.122473"
       y="-3556.4348"
       transform="scale(1,-1)" />
    <path
       d="M0 1790 l0 -1790 10285 0 10285 0 0 1790 0 1790 -10285 0 -10285 0 0 -1790z m8480 1324 c0 -4 -16 -26 -35 -50 l-35 -43 577 -4 c542 -3 586 -5 702 -25 68 -12 127 -25 132 -27 4 -3 9 7 11 22 l3 28 1225 2 1225 2 75 -106 75 -106 3 107 3 107 902 -4 c872 -3 906 -4 1017 -25 267 -49 493 -168 661 -345 l36 -38 23 63 c12 35 43 126 68 203 l47 140 1017 3 1016 2 22 -27 c20 -27 36 -49 105 -143 l30 -42 3 106 3 106 1324 0 1325 0 -2 -572 -3 -573 -242 -3 -243 -2 0 -690 0 -690 -1048 0 -1049 0 -12 22 c-6 13 -25 41 -41 63 -17 22 -46 62 -65 90 l-35 50 0 -113 0 -112 -750 0 -749 0 -22 73 c-11 39 -32 104 -44 142 -13 39 -25 79 -27 90 -2 11 -10 20 -17 20 -10 0 -32 -53 -68 -160 -29 -88 -53 -161 -53 -162 0 -2 -690 -3 -1533 -3 l-1532 0 -35 51 c-19 28 -42 61 -50 73 -8 12 -27 38 -42 57 l-28 34 0 -107 0 -108 -1260 0 -1260 0 0 361 0 361 -22 -6 c-13 -4 -87 -17 -165 -29 l-143 -22 0 -332 0 -333 -1360 0 -1360 0 0 70 0 71 -30 -16 c-66 -34 -197 -76 -303 -97 -110 -22 -130 -22 -999 -26 l-887 -3 -61 83 c-34 46 -70 94 -80 108 l-19 25 0 -107 -1 -108 -900 0 -900 0 0 170 0 170 -35 0 -35 0 0 -170 0 -170 -1010 2 -1010 3 0 1260 0 1260 660 3 660 2 2 -670 3 -671 57 85 58 85 0 586 0 585 1187 -2 1188 -3 63 -85 c34 -47 71 -96 82 -110 l20 -25 -1 110 -2 110 899 0 c832 0 908 -1 1019 -19 100 -16 259 -62 348 -100 15 -7 17 -1 17 58 l0 66 328 0 327 0 40 50 40 50 487 0 c269 0 488 -3 488 -6z"
       id="path199"
       style="fill:#154e86;fill-opacity:1" />
    <path
       d="M7533 3032 c-10 -10 -29 -32 -42 -50 l-24 -32 -311 -2 -311 -3 -3 -87 c-1 -49 -5 -88 -8 -88 -2 0 -41 18 -86 41 -44 22 -124 54 -177 70 -188 58 -234 61 -1163 66 l-848 5 -2 -189 -3 -188 -92 125 c-51 69 -113 153 -138 188 l-46 62 -1127 -2 -1127 -3 -5 -570 -5 -570 -63 -90 c-35 -49 -91 -132 -125 -182 -34 -51 -65 -93 -69 -93 -5 0 -8 340 -8 755 l0 755 -582 -2 -583 -3 0 -1190 0 -1190 935 0 935 0 3 173 2 173 108 -3 107 -3 3 -173 2 -172 820 0 820 0 0 185 c0 102 3 185 8 185 4 0 22 -21 39 -48 38 -55 181 -254 214 -295 l22 -28 841 4 c808 3 846 4 962 25 158 28 326 90 417 154 15 11 27 16 28 11 0 -4 1 -48 2 -98 l2 -90 1283 -3 1282 -2 0 333 0 333 150 17 c82 10 188 29 235 42 47 14 87 25 90 25 3 0 6 -168 7 -372 l3 -373 1183 -3 1182 -2 0 185 c0 102 3 185 8 185 4 0 28 -30 54 -68 26 -37 86 -120 133 -185 l86 -117 1482 2 1481 3 56 165 55 165 62 3 c58 3 64 1 72 -20 7 -19 49 -150 90 -288 l8 -25 681 -3 682 -2 2 191 3 190 82 -113 c45 -62 107 -148 138 -191 l56 -77 985 0 984 0 2 692 3 693 243 3 242 2 0 500 0 500 -1245 0 -1245 0 -2 -190 -3 -190 -46 62 c-25 35 -87 120 -138 191 l-93 127 -968 0 -968 0 -77 -232 c-43 -128 -81 -239 -85 -246 -4 -9 -18 1 -45 35 -62 77 -106 122 -175 177 -127 101 -218 149 -365 195 -196 61 -235 63 -1152 68 l-833 5 0 -186 c0 -102 -3 -186 -7 -186 -5 0 -24 23 -43 52 -49 71 -68 99 -153 213 l-73 100 -1167 3 -1167 2 0 -45 c0 -25 -3 -45 -7 -45 -5 0 -44 11 -88 25 -165 52 -284 59 -942 60 -332 0 -603 4 -603 9 0 4 14 25 30 46 17 21 30 40 30 44 0 3 -175 5 -390 6 -364 0 -391 -1 -407 -18z m497 -281 c0 -4 -18 -31 -40 -59 -22 -27 -40 -53 -40 -56 0 -4 109 -6 243 -6 l242 1 3 -180 2 -181 -410 0 -410 0 0 -155 0 -155 260 0 260 0 0 -185 0 -185 -260 0 -260 0 0 -165 0 -165 420 0 420 0 -2 -192 c-2 -106 -6 -192 -10 -190 -5 1 -307 2 -673 2 l-665 0 2 876 3 875 245 -1 c245 -1 245 -1 259 22 8 13 30 42 50 66 l35 42 163 0 c90 0 163 -4 163 -9z m-6580 -806 l0 -685 363 -2 362 -3 0 -188 0 -187 -610 0 -610 0 -3 867 c-1 478 0 873 2 878 2 6 92 9 250 7 l246 -3 0 -684z m2752 645 c47 -69 150 -217 209 -300 33 -47 71 -101 84 -120 13 -19 39 -56 57 -81 18 -26 61 -87 95 -137 34 -50 80 -116 103 -148 l40 -57 2 442 3 442 190 0 190 0 0 -876 0 -876 -188 0 c-131 0 -193 4 -203 12 -8 7 -44 53 -79 103 -36 50 -88 123 -117 163 -100 135 -253 345 -273 373 -11 16 -65 90 -120 165 l-100 136 -3 -475 -2 -475 -191 -3 c-105 -2 -193 -1 -195 1 -5 6 -5 1746 0 1752 2 2 110 2 239 -1 l236 -5 23 -35z m2168 13 c169 -47 260 -96 367 -196 59 -56 163 -192 163 -215 0 -5 11 -34 24 -64 38 -85 59 -216 59 -363 1 -281 -77 -483 -253 -655 -126 -125 -276 -198 -449 -219 -45 -6 -263 -11 -484 -11 l-402 -1 -3 868 c-1 477 0 873 2 878 2 7 157 8 452 4 416 -5 454 -7 524 -26z m3197 12 c181 -34 288 -82 373 -167 100 -99 134 -205 128 -387 -6 -155 -35 -233 -120 -326 -33 -36 -64 -65 -69 -65 -5 0 -26 -11 -47 -25 -38 -25 -121 -55 -227 -81 -40 -10 -139 -17 -297 -21 l-238 -6 -2 -329 -3 -329 -245 0 -245 0 -3 868 c-1 477 0 873 2 878 2 7 162 9 457 8 358 -2 471 -6 536 -18z m1941 -165 l2 -180 -412 -2 -413 -3 -3 -152 -3 -153 266 0 265 0 0 -185 0 -185 -262 -2 -263 -3 0 -160 0 -160 418 -3 417 -2 0 -190 0 -190 -666 -2 c-366 -2 -668 -1 -670 1 -5 6 -5 1746 0 1752 2 2 301 3 663 2 l658 -2 3 -181z m626 170 c7 -5 38 -47 69 -92 31 -46 73 -105 92 -133 20 -27 47 -66 60 -85 13 -19 37 -53 53 -75 15 -22 56 -80 90 -130 34 -49 89 -128 122 -175 34 -47 75 -106 93 -133 l32 -48 5 441 5 441 190 0 190 0 0 -876 0 -876 -194 0 c-175 0 -195 2 -206 18 -7 10 -45 61 -83 113 -39 52 -80 109 -92 125 -40 57 -153 213 -305 420 -48 66 -102 139 -119 163 -17 23 -43 59 -58 79 l-28 36 -2 -477 -3 -477 -190 0 -190 0 -3 868 c-1 477 0 873 2 878 5 14 454 9 470 -5z m2103 0 c268 -42 479 -182 600 -400 114 -204 137 -537 53 -784 -101 -299 -346 -505 -651 -545 -51 -7 -247 -11 -490 -11 l-404 -1 -3 868 c-1 477 0 873 2 878 5 14 799 9 893 -5z m2063 -860 c159 -476 289 -869 290 -875 0 -7 -91 -8 -262 -5 l-262 5 -51 160 -51 160 -290 0 -289 0 -55 -163 -55 -164 -200 1 c-109 1 -201 3 -203 5 -2 2 49 158 113 347 63 189 194 580 291 869 97 289 180 527 184 530 5 3 130 3 280 0 l272 -5 288 -865z m833 797 c26 -40 80 -117 118 -172 39 -55 81 -116 94 -135 13 -19 51 -73 84 -120 33 -47 88 -125 123 -175 34 -49 81 -117 105 -150 l43 -59 0 442 0 441 188 3 c103 2 190 1 195 -3 4 -3 6 -398 5 -878 l-3 -873 -193 1 -194 0 -62 83 c-63 86 -146 198 -181 248 -11 16 -54 74 -95 130 -41 56 -84 114 -95 130 -97 136 -141 197 -150 206 -6 7 -34 44 -61 84 l-49 72 -5 -476 -5 -477 -190 0 -190 0 -3 875 -2 876 227 2 c126 2 233 2 238 0 6 -2 32 -36 58 -75z m-14363 -139 l0 -212 -43 -65 c-46 -70 -112 -172 -190 -295 l-48 -76 -79 0 c-45 0 -80 4 -80 10 0 5 10 33 21 62 35 85 119 316 119 325 0 2 -31 3 -70 3 l-70 0 0 230 0 230 220 0 220 0 0 -212z m680 -663 l0 -874 -246 -3 c-135 -2 -248 -1 -250 1 -2 2 -4 397 -4 878 l0 873 250 0 250 0 0 -875z m16200 690 l0 -185 -242 -2 -243 -3 -3 -687 -2 -687 -246 -3 c-135 -2 -248 -1 -250 1 -2 2 -4 314 -4 693 l0 688 -235 0 -235 0 0 185 0 185 730 0 730 0 0 -185z"
       id="path201"
       style="fill:#154e86;fill-opacity:1" />
    <path
       d="M5890 1765 l0 -535 113 0 c128 0 198 16 262 60 86 60 132 132 167 260 32 118 32 337 -1 455 -33 124 -93 208 -181 255 -51 27 -128 40 -242 40 l-118 0 0 -535z"
       id="path203"
       style="fill:#154e86;fill-opacity:1" />
    <path
       d="M9070 2095 l0 -195 133 0 c233 1 309 24 343 106 32 77 5 203 -51 240 -46 30 -134 44 -282 44 l-143 0 0 -195z"
       id="path205"
       style="fill:#154e86;fill-opacity:1" />
    <path
       d="M13840 1765 l0 -535 114 0 c212 0 313 56 394 216 82 163 82 498 0 661 -72 143 -171 193 -384 193 l-124 0 0 -535z"
       id="path207"
       style="fill:#154e86;fill-opacity:1" />
    <path
       d="M15676 2110 c-3 -8 -24 -73 -47 -145 -23 -71 -59 -183 -80 -249 -22 -65 -39 -122 -39 -127 0 -5 77 -9 170 -9 101 0 170 4 170 10 0 5 -4 19 -9 32 -5 13 -37 115 -71 228 -77 254 -87 279 -94 260z"
       id="path209"
       style="fill:#154e86;fill-opacity:1" />
  </g>
</svg>
