<?xml version="1.0" encoding="UTF-8" standalone="no"?>
<svg
   xmlns:dc="http://purl.org/dc/elements/1.1/"
   xmlns:cc="http://creativecommons.org/ns#"
   xmlns:rdf="http://www.w3.org/1999/02/22-rdf-syntax-ns#"
   xmlns:svg="http://www.w3.org/2000/svg"
   xmlns="http://www.w3.org/2000/svg"
   xmlns:sodipodi="http://sodipodi.sourceforge.net/DTD/sodipodi-0.dtd"
   xmlns:inkscape="http://www.inkscape.org/namespaces/inkscape"
   version="1.1"
   id="Calque_1"
   x="0"
   y="0"
   viewBox="0 0 199.99989 51.473999"
   xml:space="preserve"
   sodipodi:docname="MF.svg"
   width="199.99989"
   height="51.473999"
   inkscape:version="1.0.2-2 (e86c870879, 2021-01-15)"><metadata
     id="metadata11"><rdf:RDF><cc:Work
         rdf:about=""><dc:format>image/svg+xml</dc:format><dc:type
           rdf:resource="http://purl.org/dc/dcmitype/StillImage" /><dc:title></dc:title></cc:Work></rdf:RDF></metadata><defs
     id="defs9" /><sodipodi:namedview
     pagecolor="#ffffff"
     bordercolor="#666666"
     borderopacity="1"
     objecttolerance="10"
     gridtolerance="10"
     guidetolerance="10"
     inkscape:pageopacity="0"
     inkscape:pageshadow="2"
     inkscape:window-width="1920"
     inkscape:window-height="1017"
     id="namedview7"
     showgrid="false"
     fit-margin-top="0"
     fit-margin-left="0"
     fit-margin-right="0"
     fit-margin-bottom="0"
     inkscape:zoom="2.3878374"
     inkscape:cx="121.74755"
     inkscape:cy="33.162055"
     inkscape:window-x="1912"
     inkscape:window-y="-8"
     inkscape:window-maximized="1"
     inkscape:current-layer="Calque_1" /><style
     id="style2">.st0{fill:#1d1d1b}</style><path
     class="st0"
     d="m 199.47634,14.823578 c -0.70033,-1.517374 -1.40065,-1.984258 -3.73508,-2.100979 -3.96851,0.233442 -7.2367,2.2177 -10.27145,4.668843 -6.53638,5.36917 -7.47015,13.422925 -13.18948,19.25898 -1.05049,0.933768 -2.10098,1.984258 -3.50164,1.867537 -0.70032,-0.466884 -0.23344,-1.283932 -0.11672,-1.867537 1.86754,-4.552123 3.8518,-8.987524 5.60261,-13.539646 0.81705,-3.15147 0.81705,-7.353429 -1.75081,-9.687851 -0.93377,-0.700326 -2.45115,-0.466884 -3.38491,0.116721 -3.15147,1.634095 -5.60262,5.019007 -7.7036,7.703592 0,-2.918027 0,-5.836054 -1.86753,-8.053755 -0.81705,-0.466884 -1.75082,-0.817048 -2.68459,-0.466884 -3.61835,1.050489 -6.41966,4.785564 -8.52064,7.820313 h -0.11672 v -1.05049 c 0,-2.451143 -0.11672,-5.36917 -2.68458,-6.41966 -1.16721,-0.350163 -2.2177,0.116721 -3.15147,0.700326 -3.38491,2.567864 -5.01901,6.302939 -6.88655,9.687851 -2.8013,4.785564 -4.90228,9.921292 -9.22096,14.00653 -0.70033,0.466885 -1.51738,1.283932 -2.45115,0.700327 -0.5836,-0.466884 -0.23344,-1.400653 -0.11672,-2.10098 l 9.68785,-23.110775 a 72.367075,72.367075 0 0 0 -7.11998,0 l -1.16721,2.801306 -0.11673,-0.116721 c 0,-1.400653 -1.40065,-2.567864 -2.56786,-3.034748 -2.80131,-0.583606 -5.36917,0.466884 -7.58687,1.867537 -3.26819,2.10098 -5.83605,5.019007 -7.93703,8.053755 -1.98426,3.034748 -3.8518,6.536381 -5.60261,9.571129 -1.51738,2.334422 -3.268196,4.902286 -5.719339,6.186218 -0.466884,0.116721 -0.933769,0 -1.167211,-0.233442 -0.350163,-0.466885 -0.233442,-1.05049 -0.116721,-1.517374 L 109.36766,0 h -7.00327 l -6.769819,15.874068 a 4.3186803,4.3186803 0 0 0 -3.26819,-3.618354 c -5.019007,-0.583605 -8.870803,3.268191 -12.022272,7.003266 l -1.283932,1.634095 c -2.567864,3.851796 -4.20196,8.520639 -6.769824,12.372435 -2.100979,3.15147 -5.719333,6.653102 -6.302938,4.902286 -0.350164,-0.817048 0.116721,-1.634095 0.350163,-2.334422 l 9.454408,-22.643891 -7.353428,-0.116721 c -0.583606,0.817048 -0.700327,1.867537 -1.283932,2.684585 -0.350164,-0.933769 -0.583606,-1.867537 -1.517375,-2.684585 -2.100979,-1.517374 -5.135727,-0.700327 -7.353428,0.233442 a 28.363224,28.363224 0 0 0 -8.053755,6.886544 62.095619,62.095619 0 0 0 -5.952776,9.921293 c -1.750816,3.034748 -3.618353,6.536381 -7.003265,8.287197 -0.466884,0.116721 -1.05049,0.233442 -1.400653,-0.233442 -0.350163,-0.466884 -0.116721,-1.167211 0,-1.634095 1.984258,-5.836055 5.719333,-10.855062 6.186218,-17.391442 -0.116722,-1.867538 0,-3.851796 -1.283932,-5.252449 -0.700327,-1.05049 -2.334422,-1.05049 -3.501633,-0.583606 -3.268191,1.517374 -5.836054,4.552123 -8.170476,7.353429 -0.116721,-2.567864 -0.233442,-5.135728 -1.867538,-7.003266 -0.817047,-0.817047 -1.867537,-1.16721 -3.034748,-0.933768 -3.501633,0.817047 -6.186218,4.435401 -8.287197,7.236707 h -0.116721 c 0,-2.451143 -0.116721,-5.019007 -1.867538,-6.886544 -0.933768,-0.817048 -2.451143,-0.583605 -3.501632,-0.116721 A 24.161265,24.161265 0 0 0 2.334422,21.359959 C 1.517374,22.760612 0.583605,24.044544 0,25.445197 l 0.933768,0.233442 A 30.347483,30.347483 0 0 1 9.6878501,14.706857 c 0.3501629,-0.116721 0.8170479,-0.350163 1.0504899,0.116721 l -0.116721,0.700327 -9.921293,23.694381 h 7.4701499 l 5.3691701,-12.83932 1.400653,-3.151469 c 1.867537,-3.034749 3.968517,-6.653102 7.47015,-8.52064 0.466884,-0.116721 0.933768,-0.116721 1.283932,0.233442 0.233442,0.466885 0,0.933769 -0.116721,1.400653 l -9.687851,22.877334 h 7.47015 L 25.561918,29.180272 A 45.521224,45.521224 0 0 1 32.448462,18.20849 c 1.400653,-1.400653 2.801306,-3.034749 4.668844,-3.384912 0.466884,0.116721 0.466884,0.583606 0.466884,1.05049 l -4.085238,9.804571 -1.05049,2.801307 c -1.050489,3.384911 -1.400653,8.053755 1.517374,10.621619 1.167211,0.933768 2.801307,0.583605 4.085239,0.116721 3.735074,-2.334422 5.836054,-6.536381 7.937034,-10.038014 0.116721,1.400653 0,3.034748 0.233442,4.435401 0.350163,2.451143 1.867537,5.369171 4.552122,6.069497 2.567864,0.700327 4.785565,-0.817048 6.653102,-2.684585 1.517374,-1.634095 2.684585,-3.501633 4.085238,-5.252449 0.233443,2.801306 0.583606,5.485891 2.801306,7.353429 0.817048,0.583605 1.984259,0.700326 2.918028,0.466884 3.968517,-1.750816 5.836054,-5.836054 7.937034,-9.220966 l 0.583605,3.501633 c 0.583606,2.451143 2.10098,5.602612 5.019007,5.952775 4.201959,-0.466884 7.003265,-4.668843 9.220966,-7.937034 0.350163,2.684585 0.116721,5.602612 2.451143,7.353429 1.167211,0.817047 2.918027,0.350163 4.085238,-0.350164 3.384911,-2.451142 5.25245,-6.069496 7.23671,-9.337687 0.11672,0.466885 0.46688,5.836055 1.63409,7.586871 0.81705,1.400653 2.33442,2.567864 3.96852,2.567864 4.4354,-0.466884 7.47015,-5.019007 10.03801,-8.403918 v 1.167211 c 0.23344,2.567864 0.46689,5.36917 2.68459,7.003265 1.05049,0.700326 2.45114,0.233442 3.38491,-0.233442 3.15147,-1.984259 5.25245,-5.252449 6.88654,-8.287198 l 4.66885,-8.63736 c 1.05049,-1.750816 2.10098,-3.618354 3.38491,-5.252449 1.86754,-2.334422 3.85179,-2.918027 3.26819,-1.517374 l -9.68785,22.760612 -0.35017,0.933769 h 7.35343 l 6.18622,-14.706857 c 0.81705,-1.867538 1.86754,-3.501633 3.03475,-5.252449 1.40065,-1.750817 3.15147,-3.851796 5.25245,-4.668844 0.35016,-0.116721 0.93377,-0.233442 1.16721,0.233442 0.11672,0.933769 -0.46688,1.750817 -0.81705,2.567864 l -8.75408,21.126517 -0.23344,0.583606 h 7.35343 l 1.40065,-3.501633 3.73507,-8.870803 c 1.98426,-3.968517 4.43541,-7.937034 8.05376,-11.205224 0.70033,-0.466885 1.40065,-1.167211 2.33442,-1.05049 0.35016,0.116721 0.46689,0.583605 0.35016,0.933769 l -1.86753,4.435401 -3.96852,9.571129 -0.58361,2.10098 c -0.23344,2.801306 0.23345,5.719333 2.56787,7.353428 1.05049,0.700327 2.56786,0.700327 3.73507,0.233443 3.61836,-1.984259 5.83606,-5.836055 7.93704,-9.104245 0,1.867537 0.11672,3.735075 0.81705,5.36917 a 7.5868707,7.5868707 0 0 0 6.76982,4.902286 c 6.53638,-0.350164 11.0885,-6.653103 12.83932,-12.138994 l -0.70033,-0.350163 c -1.51737,4.785565 -7.23671,11.672109 -12.37243,11.438667 -0.93377,-0.233442 -1.98426,-0.817048 -2.2177,-1.867538 -0.35017,-3.384911 1.40065,-6.069496 2.45114,-9.104245 l 0.35016,-0.700326 c 4.66885,0.116721 8.8708,-1.400653 11.90555,-5.019007 l 1.16721,-1.867537 a 5.8360544,5.8360544 0 0 0 0.58361,-5.836055 z M 61.395292,29.063551 c -1.867537,3.26819 -4.085238,7.236708 -7.820313,8.987524 -0.700326,0.233442 -1.750816,0.350163 -2.451143,-0.233442 -1.283931,-1.400653 -0.116721,-3.384912 0.233443,-4.785565 1.400653,-3.501633 2.801306,-7.003265 4.435401,-10.504898 0.933769,-1.984258 2.684585,-5.252449 3.851796,-7.119986 1.05049,-1.400653 2.567864,-2.684585 4.435401,-2.334422 0.466885,0.116721 0.933769,0.350163 1.283932,0.700326 1.517374,1.984259 0.350164,4.552123 -0.233442,6.536381 z m 27.662898,1.517374 c -1.517374,2.918027 -4.085238,6.41966 -7.353428,7.586871 -0.583606,0.116721 -1.283932,0 -1.750817,-0.466884 -0.466884,-0.700327 -0.466884,-1.750817 -0.233442,-2.567864 l 1.05049,-3.268191 3.26819,-7.937034 0.933769,-1.867537 c 1.283932,-2.918027 2.684585,-6.302939 5.252449,-8.52064 0.700327,-0.350163 1.517374,-0.700326 2.334422,-0.350163 0.583605,0.233442 1.167211,0.700327 1.517374,1.283932 0.817048,2.10098 0,4.435401 -0.817048,6.302939 z M 122.9073,20.309469 c -2.45114,5.952776 -4.66884,12.022272 -10.27145,16.574395 -1.16721,0.700326 -2.45114,1.750816 -3.8518,1.05049 -0.81704,-0.583606 -0.70032,-1.634095 -0.5836,-2.567864 1.16721,-3.968517 3.03475,-7.820313 4.66884,-11.555388 1.75082,-3.384912 3.03475,-7.119986 6.0695,-9.921292 0.93377,-0.583606 2.45114,-0.933769 3.50163,-0.233443 0.46688,0.116721 0.58361,0.583606 0.81705,0.933769 1.05049,1.867537 0.23344,3.968517 -0.35017,5.719333 z m 74.35134,0.116721 -0.11672,0.233443 -0.46689,0.700326 a 12.255714,12.255714 0 0 1 -10.38817,5.135728 c 1.75081,-3.968517 3.61835,-7.820313 6.41966,-11.438667 1.05049,-1.16721 2.33442,-2.100979 3.85179,-1.634095 0.58361,0.233442 1.28393,0.700327 1.51738,1.283932 0.70032,1.984259 0.11672,3.968517 -0.81705,5.719333 z M 0.933768,43.420245 h 0.817048 c 0.466884,0 0.466884,0.233442 0.466884,0.466884 v 4.785565 c 0,0.233442 -0.116721,0.466884 -0.466884,0.466884 H 0.933768 v 2.10098 h 6.5363814 v -2.10098 H 6.6531018 c -0.4668844,0 -0.7003265,-0.116721 -0.7003265,-0.583605 V 47.15532 H 8.0537548 V 45.287782 H 5.9527753 V 43.536966 H 8.287197 c 0.3501633,0 0.5836055,0.233442 0.5836055,0.583605 v 0.583606 h 2.5678635 v -3.15147 H 0.933768 Z m 11.438667,0 h 0.817048 c 0.466884,0 0.466884,0.233442 0.466884,0.466884 v 4.785565 c 0,0.350163 -0.233442,0.466884 -0.466884,0.466884 h -0.817048 v 2.10098 h 6.186218 v -2.10098 h -0.700327 c -0.350163,0 -0.466884,-0.116721 -0.466884,-0.466884 v -4.785565 c 0,-0.350163 0.116721,-0.466884 0.466884,-0.466884 h 0.817048 v -2.10098 h -6.302939 z m 13.656367,4.435401 h 1.400654 c 0,0.466885 -0.350164,1.517374 -1.867538,1.517374 -0.700326,0 -2.334422,-0.233442 -2.334422,-3.26819 0,-1.750816 1.05049,-2.801306 2.334422,-2.801306 1.750816,0 2.451143,1.517374 2.451143,1.517374 h 2.217701 v -3.501633 h -2.217701 v 0.700327 c 0,0 -0.933769,-0.933769 -3.151469,-0.933769 -3.851796,0 -5.485892,2.801306 -5.485892,4.902286 0,3.151469 1.984259,5.36917 5.836055,5.36917 5.36917,0 5.602612,-3.851796 5.602612,-4.085238 v -1.283932 h -4.785565 z m 15.523905,0.233442 -2.567864,-6.769823 h -3.851796 l -2.684585,7.353429 c -0.116721,0.350163 -0.350163,0.466884 -0.700326,0.466884 H 31.16453 v 2.10098 h 4.668844 v -1.984259 h -0.700327 c -0.233442,0 -0.350163,-0.233442 -0.233442,-0.466884 l 0.350163,-0.933769 h 2.801307 l 0.350163,0.933769 c 0.116721,0.350163 -0.233442,0.466884 -0.466885,0.466884 h -0.583605 v 1.984259 h 5.602612 v -2.10098 h -0.583605 c -0.466885,0 -0.583606,-0.466884 -0.817048,-1.05049 z m -5.952775,-1.634095 0.933768,-2.918027 0.933769,2.918027 z m 19.258979,2.217701 -1.400653,-2.10098 c 0,0 1.750817,-0.466884 1.750817,-2.334421 0,-1.867538 -1.517375,-2.451143 -2.217701,-2.684586 l -2.451143,-0.233442 h -6.769823 v 2.10098 h 0.700326 c 0.466885,0 0.466885,0.233442 0.466885,0.466884 v 4.668844 c 0,0.233442 0,0.466884 -0.466885,0.466884 h -0.700326 v 2.10098 h 5.952775 v -2.10098 h -0.583605 c -0.466884,0 -0.466884,-0.233442 -0.466884,-0.466884 v -1.634095 h 1.283932 l 2.451142,4.201959 h 3.735075 v -2.10098 h -0.700326 c -0.350164,0.116721 -0.350164,-0.116721 -0.583606,-0.350163 z m -4.785564,-3.384912 h -1.400653 v -1.984258 h 1.517374 c 0.466884,0 1.167211,0.116721 1.167211,1.05049 0,0.583605 -0.466885,0.933768 -1.283932,0.933768 z m 11.672109,-4.085238 c -4.20196,0 -5.602613,2.801306 -5.602613,5.019007 0,2.918027 2.10098,5.252449 5.602613,5.252449 3.151469,0 5.602612,-1.750816 5.602612,-5.135728 -0.116721,-3.26819 -2.451143,-5.135728 -5.602612,-5.135728 z m 0,8.053755 c -0.933769,0 -1.867538,-0.583605 -1.867538,-3.26819 0,-1.750816 0.700327,-2.801306 1.750816,-2.801306 1.05049,0 1.867538,0.700326 1.867538,2.918027 0,2.451143 -0.817048,3.151469 -1.750816,3.151469 z"
     id="path4"
     style="stroke-width:1.16721" /></svg>
