<?xml version="1.0" encoding="UTF-8" standalone="no"?>
<svg
   version="1.0"
   width="2268.000000pt"
   height="850.000000pt"
   viewBox="0 0 2268.000000 850.000000"
   preserveAspectRatio="xMidYMid meet"
   id="svg141"
   sodipodi:docname="midi_libre.svg"
   inkscape:version="1.2.2 (b0a8486541, 2022-12-01)"
   xmlns:inkscape="http://www.inkscape.org/namespaces/inkscape"
   xmlns:sodipodi="http://sodipodi.sourceforge.net/DTD/sodipodi-0.dtd"
   xmlns="http://www.w3.org/2000/svg"
   xmlns:svg="http://www.w3.org/2000/svg">
  <defs
     id="defs145" />
  <sodipodi:namedview
     id="namedview143"
     pagecolor="#505050"
     bordercolor="#eeeeee"
     borderopacity="1"
     inkscape:showpageshadow="0"
     inkscape:pageopacity="0"
     inkscape:pagecheckerboard="0"
     inkscape:deskcolor="#505050"
     inkscape:document-units="pt"
     showgrid="false"
     inkscape:zoom="1.1739418"
     inkscape:cx="1534.9994"
     inkscape:cy="436.9893"
     inkscape:window-width="3840"
     inkscape:window-height="2160"
     inkscape:window-x="0"
     inkscape:window-y="1680"
     inkscape:window-maximized="1"
     inkscape:current-layer="g139" />
  <metadata
     id="metadata129">
Created by potrace 1.16, written by Peter Selinger 2001-2019
<meta
   name="Producer"
   content="Online-Convert" />
</metadata>
  <g
     transform="translate(0.000000,850.000000) scale(0.100000,-0.100000)"
     fill="#000000"
     stroke="none"
     id="g139">
    <rect
       style="fill:#ffffff;fill-opacity:1;stroke-width:19.7984"
       id="rect5127"
       width="19769.211"
       height="3350.3176"
       x="1451.8169"
       y="-6020.8701"
       transform="matrix(0.99999998,0,0,-0.99999998,0,2.5e-4)" />
    <path
       d="M1450 4345 l0 -1675 9885 0 9885 0 0 1675 0 1675 -9885 0 -9885 0 0 -1675z m5073 1322 c54 -32 93 -76 120 -136 24 -55 21 -177 -7 -232 -23 -48 -81 -106 -131 -131 -58 -30 -151 -35 -216 -12 -77 27 -153 106 -175 180 -45 154 35 306 186 355 14 5 59 7 101 5 61 -2 85 -8 122 -29z m3294 20 c141 -52 216 -212 168 -358 -24 -70 -101 -149 -169 -172 -107 -37 -223 -10 -296 69 -58 63 -80 115 -80 194 0 115 63 215 165 261 46 21 161 24 212 6z m4250 0 c54 -20 123 -86 149 -141 27 -57 32 -165 11 -223 -39 -106 -136 -175 -257 -181 -58 -3 -72 0 -130 30 -136 70 -193 225 -135 364 21 50 85 115 140 140 56 27 165 32 222 11z m-10748 -67 c10 -5 26 -29 35 -52 18 -45 48 -117 299 -708 85 -201 198 -468 251 -595 121 -288 138 -325 146 -325 3 0 13 19 22 43 9 23 32 78 51 122 80 183 268 627 286 673 11 27 29 69 40 93 11 24 50 116 87 204 36 88 75 178 84 200 10 22 46 108 81 190 34 83 67 153 73 157 6 4 218 7 471 5 l460 -2 3 -90 3 -90 -163 -61 -163 -61 0 -972 0 -973 128 -55 127 -56 0 -63 0 -64 -515 0 -516 0 3 66 3 66 120 52 120 52 2 739 c1 407 -1 733 -4 725 -3 -8 -16 -37 -28 -65 -29 -64 -157 -363 -206 -481 -20 -50 -42 -100 -48 -110 -5 -11 -60 -136 -120 -279 -61 -143 -115 -271 -121 -285 -32 -69 -173 -401 -188 -437 l-16 -43 -76 0 -76 0 -98 233 c-55 127 -112 260 -127 295 -16 34 -29 65 -29 68 0 3 -6 20 -14 37 -22 49 -133 309 -241 562 -54 127 -107 253 -119 280 -12 28 -40 92 -62 142 -21 51 -41 93 -44 93 -3 0 -3 -332 0 -737 l5 -737 95 -43 c52 -23 107 -47 123 -52 26 -9 27 -13 27 -75 0 -59 -2 -65 -22 -68 -13 -2 -245 -2 -515 0 l-493 2 0 64 0 65 58 21 c31 12 90 35 130 52 l72 30 0 972 0 973 -167 65 -168 66 -3 82 c-2 60 1 86 10 91 19 12 905 11 927 -1z m5378 2 c10 -6 13 -247 15 -1128 l3 -1119 105 -45 c159 -69 150 -61 150 -130 l0 -60 -385 0 -384 0 -3 65 -3 64 -52 -39 c-111 -85 -260 -140 -380 -140 -33 0 -99 7 -147 15 -318 56 -548 271 -632 593 -34 130 -43 352 -20 493 54 329 230 580 505 718 202 102 502 94 684 -19 l47 -29 -2 280 -3 281 -90 38 c-128 55 -124 52 -118 102 2 24 6 49 9 56 3 9 81 12 346 12 189 0 349 -4 355 -8z m3863 -86 l0 -93 -127 -47 c-71 -26 -144 -55 -163 -64 l-35 -17 -3 -928 -2 -927 322 0 323 0 24 63 c13 34 36 89 51 122 15 33 55 126 90 207 l63 146 59 4 c33 2 62 1 64 -1 2 -2 4 -197 4 -433 l0 -428 -910 0 -911 0 3 65 3 66 80 35 c44 20 99 44 123 54 l42 19 -2 972 -3 972 -160 62 -160 61 -3 79 c-2 43 -1 84 2 92 4 11 115 13 616 13 l610 0 0 -94z m2894 85 c3 -4 6 -175 6 -380 1 -204 3 -371 6 -371 3 0 43 18 87 40 113 55 210 73 361 68 104 -4 133 -9 205 -36 361 -135 578 -464 598 -908 18 -381 -147 -708 -427 -847 -168 -84 -359 -115 -504 -83 -89 20 -213 79 -272 130 -23 19 -44 32 -48 29 -3 -3 -6 -33 -6 -65 l0 -58 -380 0 -380 0 0 64 c0 62 1 64 33 76 17 7 59 26 92 41 33 15 77 34 98 42 l37 16 -2 1022 -3 1022 -95 41 c-52 23 -101 45 -107 49 -8 5 -13 29 -13 57 0 29 5 50 13 53 22 9 696 7 701 -2z m2746 -647 c242 -72 329 -361 164 -544 -73 -80 -196 -121 -302 -100 -132 27 -219 112 -246 242 -6 27 -6 27 -50 14 -86 -26 -149 -91 -183 -189 -16 -47 -18 -95 -18 -536 l0 -484 128 -55 127 -55 0 -63 0 -64 -510 0 -511 0 3 62 c3 71 -10 60 153 131 l100 44 0 628 c0 548 -2 629 -15 636 -8 5 -52 25 -97 45 l-83 37 0 58 c0 53 2 59 23 64 12 3 110 23 217 44 107 22 249 51 315 65 65 15 125 26 132 26 10 0 13 -27 13 -115 0 -63 3 -115 7 -115 4 0 23 15 43 34 56 54 136 105 219 141 67 28 101 38 206 59 47 9 115 5 165 -10z m1369 6 c168 -28 306 -102 422 -228 154 -167 231 -383 241 -677 l3 -70 -603 -3 -603 -2 6 -58 c33 -292 240 -490 565 -542 111 -17 303 -7 456 25 35 8 36 5 49 -111 l7 -61 -46 -26 c-62 -34 -136 -62 -242 -88 -72 -18 -118 -22 -244 -23 -165 0 -240 10 -362 50 -72 24 -246 106 -258 122 -3 4 -18 16 -35 26 -140 89 -271 263 -329 438 -61 183 -52 464 20 677 46 137 155 292 263 375 110 85 265 155 389 176 69 11 228 11 301 0z m-12939 -800 l0 -801 48 -21 c26 -11 83 -35 127 -53 l80 -33 3 -66 3 -66 -511 0 -510 0 0 60 c0 70 -8 62 145 129 l110 48 3 627 2 627 -57 24 c-32 14 -78 35 -102 47 -44 23 -44 23 -44 76 0 29 3 55 6 58 5 6 650 141 680 143 16 1 17 -43 17 -799z m3330 788 c0 -7 0 -367 0 -799 l0 -786 107 -46 c170 -73 158 -63 161 -135 l3 -62 -511 0 -510 0 0 63 0 63 123 55 122 55 3 630 2 629 -97 41 -98 42 0 58 0 59 40 11 c22 6 69 17 105 24 36 7 94 19 130 25 61 12 284 58 360 75 52 11 60 11 60 -2z m4258 -793 l3 -800 124 -54 125 -53 0 -64 0 -64 -510 0 -510 0 0 60 c0 70 -9 62 145 128 l110 48 3 627 2 628 -77 34 c-132 59 -126 53 -126 113 0 29 3 55 5 58 3 3 136 31 294 64 159 32 307 63 329 69 22 5 49 9 60 8 20 -2 20 -10 23 -802z"
       id="path131"
       style="fill:#ed1e24;fill-opacity:1" />
    <path
       d="M7808 4656 c-133 -48 -260 -188 -311 -346 -34 -104 -42 -159 -42 -295 0 -141 10 -202 46 -303 65 -180 182 -285 346 -313 100 -16 214 20 311 98 l42 34 0 522 0 522 -48 32 c-26 17 -69 39 -95 47 -58 19 -197 20 -249 2z"
       id="path133"
       style="fill:#ed1e24;fill-opacity:1" />
    <path
       d="M15623 4661 c-50 -13 -137 -66 -150 -92 -10 -18 -13 -147 -13 -525 l0 -502 38 -34 c53 -48 97 -73 172 -98 59 -20 72 -21 140 -11 100 15 186 58 242 120 171 190 214 546 102 827 -38 95 -67 139 -142 211 -92 89 -134 107 -257 110 -55 1 -114 -2 -132 -6z"
       id="path135"
       style="fill:#ed1e24;fill-opacity:1" />
    <path
       d="M19327 4740 c-168 -43 -284 -211 -290 -422 l-2 -73 363 -3 362 -2 0 50 c0 139 -66 311 -145 375 -81 67 -198 97 -288 75z"
       id="path137"
       style="fill:#ed1e24;fill-opacity:1" />
  </g>
</svg>
