<?xml version="1.0" encoding="UTF-8" standalone="no"?>
<svg
   width="2279.4231"
   height="364.03537"
   viewBox="0 0 175.74899 28.068001"
   version="1.1"
   id="svg18"
   sodipodi:docname="nice-matin.svg"
   inkscape:version="1.2.2 (b0a8486541, 2022-12-01)"
   xmlns:inkscape="http://www.inkscape.org/namespaces/inkscape"
   xmlns:sodipodi="http://sodipodi.sourceforge.net/DTD/sodipodi-0.dtd"
   xmlns="http://www.w3.org/2000/svg"
   xmlns:svg="http://www.w3.org/2000/svg">
  <defs
     id="defs22" />
  <sodipodi:namedview
     id="namedview20"
     pagecolor="#505050"
     bordercolor="#eeeeee"
     borderopacity="1"
     inkscape:showpageshadow="0"
     inkscape:pageopacity="0"
     inkscape:pagecheckerboard="0"
     inkscape:deskcolor="#505050"
     showgrid="false"
     inkscape:zoom="0.4108"
     inkscape:cx="998.05258"
     inkscape:cy="576.92308"
     inkscape:window-width="3840"
     inkscape:window-height="2160"
     inkscape:window-x="0"
     inkscape:window-y="1680"
     inkscape:window-maximized="1"
     inkscape:current-layer="g16" />
  <g
     fill-rule="evenodd"
     clip-rule="evenodd"
     id="g16"
     transform="translate(-8.504,-82.344)">
    <path
       d="M 8.504,109.84 V 90.587 h 8.243 v 1.384 c 0,0 1.264,-1.805 5.055,-1.805 3.79,0 5.054,2.076 5.054,3.701 v 15.974 H 18.854 V 97.989 c 0,-0.723 -0.301,-1.415 -1.203,-1.415 -0.903,0 -0.903,1.022 -0.903,2.046 v 11.221 H 8.504 Z M 29.833,90.587 h 7.972 v 19.253 h -7.972 z m 19.645,-0.722 c -5.415,0 -11.191,4.151 -11.191,10.258 0,6.107 5.716,10.289 11.101,10.289 5.385,0 10.258,-4.482 10.258,-8.453 h -7.701 c 0,0 -0.812,2.346 -2.407,2.346 -1.595,0 -2.708,-1.744 -2.708,-4.393 0,-2.646 1.655,-4.151 2.678,-4.151 1.022,0 2.136,1.715 2.136,2.227 h 8.002 c 0,0 -1.625,-8.123 -10.168,-8.123 z m 10.589,10.289 c 0,-5.988 4.994,-10.229 10.771,-10.229 6.227,0 12.213,5.896 10.589,12.034 H 68.852 c 0,0 -0.06,2.346 2.196,2.346 1.805,0 1.775,-1.082 1.775,-1.082 h 8.123 c 0,0 -2.016,7.129 -10.108,7.129 -7.702,0 -10.771,-6.559 -10.771,-10.198 z"
       fill="#358bcc"
       id="path4" />
    <path
       d="m 68.852,97.686 4.753,-0.059 c 0,0 -0.09,-1.956 -2.287,-1.956 -2.195,0 -2.466,2.015 -2.466,2.015 z"
       fill="#ffffff"
       id="path6" />
    <path
       fill="#358bcc"
       d="m 84.315,97.266 h 6.317 L 89.068,102.5 H 82.69 Z m 7.942,-6.679 h 8.122 v 1.384 c 0,0 1.775,-1.805 5.115,-1.805 3.338,0 4.633,1.384 4.902,2.196 0.723,-0.933 2.016,-2.196 5.145,-2.196 3.129,0 5.055,1.504 5.055,3.43 v 16.245 h -7.943 V 97.989 c 0,-1.145 -0.871,-1.445 -1.172,-1.445 -0.301,0 -0.873,0.361 -0.873,1.143 v 12.154 h -8.002 V 97.989 c 0,-1.113 -0.783,-1.445 -1.324,-1.445 -0.541,0 -0.902,0.693 -0.902,1.445 v 11.852 H 92.258 V 90.587 Z m 30.022,7.401 h 7.371 c 0,0 -0.029,-1.806 1.475,-1.806 1.504,0 1.174,1.774 0.301,2.196 -0.873,0.42 -3.039,0.33 -4.002,0.48 -0.963,0.15 -5.896,1.143 -5.896,5.445 0,4.302 2.678,5.986 6.559,5.986 3.881,0 5.807,-1.684 5.807,-1.684 v 1.232 h 6.617 V 97.263 c 0,-4.813 -3.971,-7.371 -9.324,-7.371 -5.296,0.003 -8.908,2.861 -8.908,8.096 z"
       id="path8" />
    <path
       d="m 132.178,102.078 c 0,0 0.029,1.715 0.029,2.227 0,0.512 -0.512,1.113 -1.383,1.113 -0.873,0 -1.084,-0.812 -1.084,-1.504 0,-0.692 1.024,-1.353 2.438,-1.836 z"
       fill="#ffffff"
       id="path10" />
    <path
       fill="#358bcc"
       d="m 140.871,96.183 v -6.017 h 2.467 v -7.405 h 8.062 v 7.405 h 3.19 v 6.017 h -3.19 v 13.657 h -8.062 V 96.183 Z m 14.5,-5.596 h 8.004 v 19.253 h -8.004 z m 10.469,0 h 8.184 v 1.384 c 0,0 1.084,-1.805 5.145,-1.805 4.061,0 5.084,1.986 5.084,4.332 v 15.342 h -8.062 V 98.229 c 0,-1.234 -0.42,-1.775 -1.293,-1.775 -0.873,0 -0.873,1.082 -0.873,1.535 v 11.852 h -8.184 V 90.587 Z M 33.684,82.374 c 2.737,0 4.362,1.835 4.362,3.821 0,1.986 -1.745,3.76 -4.453,3.76 -2.708,0 -4.302,-2.166 -4.302,-3.88 0.001,-1.716 1.655,-3.701 4.393,-3.701 z m 125.539,-0.03 c 2.889,0 4.422,2.166 4.422,3.73 0,1.564 -1.414,3.76 -4.393,3.76 -2.977,0 -4.391,-2.166 -4.391,-3.791 0,-1.624 1.774,-3.699 4.362,-3.699 z"
       id="path12" />
    <path
       fill="#ffffff"
       d="m 9.549,91.409 h 0.903 v 17.628 H 9.549 Z m 10.409,17.628 h 0.843 v -11.07 c 0,-2.226 -1.745,-2.226 -2.798,-2.226 0.751,0.421 1.955,1.083 1.955,2.226 z M 30.849,91.409 h 0.962 v 17.628 h -0.962 z m 1.443,-8.393 c 0,0 -1.865,0.933 -1.865,2.918 0,1.985 1.053,2.768 1.865,3.099 -0.751,-1.595 -1.534,-3.34 0,-6.017 z m 12.876,8.393 c 0,0 -5.656,3.52 -5.656,8.604 0,5.084 3.069,7.49 5.656,8.514 -1.805,-1.775 -4.513,-4.303 -4.513,-8.545 10e-4,-4.241 4.513,-8.573 4.513,-8.573 z m 7.371,6.196 h 1.113 c 0,0 -0.24,-2.015 -2.828,-2.255 1.023,0.812 1.715,1.294 1.715,2.255 z m 0.03,4.875 h 1.083 c 0,0 -0.21,1.955 -2.798,2.316 0.993,-0.843 1.715,-1.234 1.715,-2.316 z m 14.29,-10.996 c 0,0 -5.656,3.52 -5.656,8.604 0,5.084 3.069,7.49 5.656,8.514 -1.806,-1.775 -4.513,-4.301 -4.513,-8.543 0,-4.242 4.513,-8.575 4.513,-8.575 z m 7.942,6.137 h 1.113 c 0,0 -0.241,-2.015 -2.828,-2.256 1.023,0.813 1.715,1.293 1.715,2.256 z m 10.378,-0.016 -1.263,4.333 h 1.023 l 1.353,-4.333 z m 8.484,-6.196 h 0.902 v 17.628 h -0.902 z m 10.093,17.628 h 0.842 v -11.07 c 0,-2.226 -1.744,-2.226 -2.797,-2.226 0.752,0.421 1.955,1.083 1.955,2.226 z m 9.867,0.061 h 0.842 v -11.07 c 0,-2.226 -1.744,-2.226 -2.797,-2.226 0.752,0.421 1.955,1.083 1.955,2.226 z m 12.199,-8.844 c 0,0 -2.137,1.775 -2.137,4.031 0,2.256 1.084,3.971 2.137,4.752 -1.625,-0.602 -3.129,-1.773 -3.129,-4.752 0,-2.588 3.129,-4.031 3.129,-4.031 z m -2.287,-3.369 h 0.904 c 0,0 -0.121,-2.828 1.383,-4.152 -0.812,0.421 -2.287,1.143 -2.287,4.152 z m 9.147,-1.295 c 0,0 1.203,0.211 1.203,1.656 0,1.443 -0.662,1.713 -1.354,1.744 0.451,-0.511 1.383,-1.715 0.151,-3.4 z m 0.361,6.498 0.871,-0.15 c 0,0 0.121,3.34 -1.594,3.73 0.512,-0.781 0.992,-1.744 0.723,-3.58 z m 11.221,-18.681 h 0.902 v 6.739 h -0.902 z m -2.317,8.002 h 0.813 v 3.881 h -0.813 z m 2.317,4.753 h 0.902 v 12.875 h -0.902 z m 12.154,-4.768 h 0.963 v 17.629 h -0.963 z m 1.443,-8.393 c 0,0 -1.865,0.933 -1.865,2.918 0,1.986 1.053,2.768 1.865,3.099 -0.752,-1.595 -1.535,-3.34 0,-6.017 z m 9.237,8.348 h 0.961 v 17.63 h -0.961 z m 10.597,17.719 h 0.842 v -11.07 c 0,-2.227 -1.744,-2.227 -2.797,-2.227 0.752,0.421 1.955,1.083 1.955,2.227 z"
       id="path14" />
  </g>
</svg>
