<?xml version="1.0" encoding="UTF-8"?>
<svg id="Calque_2" data-name="Calque 2" xmlns="http://www.w3.org/2000/svg" viewBox="0 0 477.57 74.87">
  <defs>
    <style>
      .cls-1 {
        fill: #fff;
      }

      .cls-2 {
        fill: #fcc009;
      }

      .cls-3 {
        fill: #de0a28;
      }
    </style>
  </defs>
  <g id="Calque_1-2" data-name="Calque 1">
    <g>
      <rect class="cls-3" x="432.84" y="71.25" width="43.77" height="3.61"/>
      <path class="cls-1" d="M449.54,66.68c0,1.17-.04,1.52-.35,1.52h-1.13c-.23,0-.31.04-.31.19s.08.19.31.19h7.07c.23,0,.31-.04.31-.19s-.08-.19-.31-.19h-.89c-.31,0-.35-.35-.35-1.52v-9.98c-1.57-.58-3.03-1.44-4.35-2.53v12.51Z"/>
      <path class="cls-2" d="M462.74,56.99c9.97-2.88,14.82-16.3,14.82-28.08,0-12.99-6.64-28.27-18.97-28.27s-18.87,15.28-18.87,28.55c0,9.26,3.42,19.72,9.82,24.97,1.32,1.09,2.78,1.95,4.35,2.53,1.41.52,2.91.82,4.51.85.1,0,.2.01.3.01,1.44,0,2.78-.21,4.05-.57M458.39,56.6c-1.86-.08-3.09-1.23-3.91-3.15-.05-.13-.1-.27-.15-.4-.96-2.51-1.32-6.16-1.52-10.37-.28-6.83-.38-19.83,0-26.76.48-8.82,1.23-14.32,5.98-14.32,4.36,0,5.22,6.17,5.6,13.94.38,6.83.47,19.83,0,26.85-.3,5.62-.71,9.81-2.12,12.14-.82,1.36-1.98,2.09-3.67,2.09-.07,0-.13-.01-.2-.02"/>
      <path class="cls-1" d="M470.67,69.05c-1.13,0-2.45-.27-3.38-.66-.54-.23-1.13-.43-1.13,0v.04c0,.23-.08.35-.23.35s-.19-.08-.19-.35v-5.83c0-.23.04-.35.19-.35.2,0,.23.08.23.35v.54c0,2.64,1.98,5.52,4.27,5.52,1.59,0,2.53-.97,2.53-2.37,0-4.04-7.15-4.08-7.15-9.67,0-2.21,1.55-4.86,4.86-4.86.89,0,1.83.19,2.72.58.62.31,1.05.43,1.05,0v-.08c0-.23.12-.31.23-.31.15,0,.23.08.23.31v5.28c0,.23-.08.35-.23.35s-.23-.12-.23-.35v-.43c0-2.68-1.79-4.97-3.61-4.97-1.36,0-1.9,1.45-1.98,2.1-.49,4.01,7.34,4.23,7.34,9.75,0,2.48-1.83,5.05-5.52,5.05"/>
      <path class="cls-1" d="M447.7,67.19c-.12,1.09-1.09,1.86-2.99,1.86s-2.95-.85-3.19-2.02h-.08c-.58,1.4-1.75,2.02-3.69,2.02-2.64,0-4.35-1.83-4.35-4.31,0-2.33,1.09-3.77,3.34-4.66.97-.31,2.25-.74,3.11-1.13,1.13-.54,1.48-.82,1.48-1.59v-2.84c0-1.94-.93-2.37-2.1-2.37-1.71,0-2.21.58-2.21,1.09,0,.82,1.05,1.05,1.05,2.33s-.93,1.9-1.94,1.9-1.98-.7-1.98-2.06c0-2.06,2.29-3.65,5.36-3.65,3.54,0,6.18,1.9,6.18,5.55v9.87c0,.74.12,1.09.58,1.09.43,0,.89-.47,1.01-1.17.04-.19.12-.27.27-.23.16,0,.19.12.16.31M441.33,65.67v-7.11c-2.25,1.2-3.26,1.86-3.34,4.43-.04,1.09-.04,2.8,0,3.81.04.86.31,1.63,1.24,1.63,1.05,0,2.1-1.09,2.1-2.76"/>
      <path class="cls-1" d="M464.18,68.2h-1.05c-.35,0-.39-.35-.39-1.51v-9.69s0,0,0,0c0-.22-.09-1.75-.48-2.49h0c-.9-1.98-2.91-2.74-4.68-2.74-1.62,0-2.61.51-3.25,1.28.05.13.1.27.15.4.44-.63,1.11-1.13,2-1.13,1.05,0,1.9.51,1.9,2.41v1.87h0v10.1c0,1.17-.04,1.51-.35,1.51h-.89c-.19,0-.31.04-.31.19s.12.19.31.19h7.03c.23,0,.31-.04.31-.19s-.08-.19-.31-.19"/>
      <path class="cls-1" d="M418.93,32.34c0-1.1-1.2-2-2.68-2-.45,0-.88.09-1.25.24-2.44-4.83-7.12-7.61-13.51-7.61s-10.65,3.55-13.56,7.25v-6.28h-15.91v44.71h15.91v-24.19c0-4.86,2.96-7.51,6.71-7.51s6.37,2.65,6.37,7.51v24.19h15.91v-4.44c-.55-1.67-.8-3.73-.95-5.98-.28-4.46-.28-10.05,0-14.7.15-2.36.36-4.46.87-6.13-.09-1.08-.25-2.11-.48-3.08,1.43-.04,2.58-.91,2.58-1.99"/>
      <path class="cls-2" d="M432,64.95c0-2.8,1.31-4.73,3.99-5.87-1.89-.06-3.25-1.5-3.25-3.46,0-2.88,2.91-5.05,6.76-5.05.42,0,.82.02,1.21.07,0-.03,0-.06,0-.09,0-8.63-5.5-15.84-14.23-17.83v-.1c7.78-1.8,12.33-8.25,12.33-15.93,0-9.01-6.64-16.69-16.79-16.69s-16.79,7.68-16.79,16.88c0,7.4,4.65,13.85,12.14,15.74v.1c-8.92,1.9-14.04,9.11-14.04,18.02,0,10.15,7.4,18.5,18.69,18.5,3.98,0,7.4-.96,10.19-2.62-.14-.52-.22-1.08-.22-1.67M417,23.52c-.28-4.08-.28-9.01,0-13.28.29-5.31.85-9.29,5.03-9.29s4.74,4.08,5.12,9.2c.28,4.08.28,9.11,0,13.28-.38,5.31-.95,9.01-5.12,9.01-3.89,0-4.74-3.89-5.03-8.92M428.1,58.14c-.38,5.79-1.04,10.15-6.07,10.15-4.74,0-5.69-4.46-6.07-10.05-.28-4.46-.28-10.05,0-14.7.38-5.88,1.04-10.15,6.07-10.15,4.74,0,5.69,4.46,6.07,9.96.28,4.65.28,10.15,0,14.8"/>
      <path class="cls-1" d="M366.92,12.66c0,4.51-3.65,8.17-8.17,8.17s-8.16-3.66-8.16-8.17,3.65-8.16,8.16-8.16,8.17,3.66,8.17,8.16"/>
      <path class="cls-1" d="M65.96,12.66c0,4.51-3.65,8.17-8.17,8.17s-8.16-3.66-8.16-8.17,3.65-8.16,8.16-8.16,8.17,3.66,8.17,8.16"/>
      <path class="cls-1" d="M0,23.2h15.9v6.36c2.93-3.76,7.11-7.36,13.56-7.36,9.63,0,15.4,6.36,15.4,16.66v29.62h-15.9v-24.52c0-4.94-2.6-7.62-6.36-7.62s-6.69,2.68-6.69,7.62v24.52H0V23.2Z"/>
      <rect class="cls-1" x="49.88" y="23.2" width="15.9" height="45.28"/>
      <path class="cls-1" d="M69.3,46.05v-.17c0-12.81,9.96-23.6,24.27-23.6,9.29,0,15.49,4.01,19.33,10.13l-10.8,8.04c-2.18-3.01-4.6-4.77-8.46-4.77-5.1,0-8.87,4.52-8.87,10.05v.17c0,5.86,3.68,10.29,9.04,10.29,3.76,0,6.19-1.76,8.7-4.69l10.63,7.7c-4.19,6.19-10.21,10.38-20.17,10.38-13.64,0-23.69-10.71-23.69-23.52"/>
      <path class="cls-1" d="M112.15,46.05v-.17c0-13.23,9.45-23.69,22.85-23.69,15.65,0,22.85,11.46,22.85,24.77,0,1.01,0,2.18-.09,3.26h-30.3c1.26,4.94,4.85,7.45,9.79,7.45,3.77,0,6.78-1.42,10.05-4.6l8.79,7.28c-4.35,5.53-10.63,9.21-19.67,9.21-14.23,0-24.27-9.46-24.27-23.52M142.95,42.12c-.59-5.02-3.52-8.2-7.87-8.2s-7.03,3.26-7.87,8.2h15.74Z"/>
      <rect class="cls-1" x="162.29" y="35.34" width="27.45" height="13.97"/>
      <path class="cls-1" d="M193.83,23.2h15.9v6.19c2.93-3.76,7.11-7.2,13.48-7.2,6.02,0,10.63,2.68,13.06,7.36,3.93-4.51,8.54-7.36,15.15-7.36,9.62,0,15.48,6.02,15.48,16.57v29.71h-15.9v-24.6c0-4.94-2.43-7.53-6.2-7.53s-6.53,2.59-6.53,7.53v24.6h-15.9v-24.6c0-4.94-2.43-7.53-6.19-7.53s-6.45,2.59-6.45,7.53v24.6h-15.9V23.2Z"/>
      <path class="cls-1" d="M269.32,55.5v-.17c0-9.37,7.12-14.23,17.74-14.23,4.19,0,8.29.84,10.88,1.76v-.75c0-4.69-2.93-7.36-9.04-7.36-4.77,0-8.46.92-12.47,2.51l-3.26-11.22c5.1-2.09,10.55-3.52,18.33-3.52s13.64,1.92,17.24,5.53c3.43,3.35,4.85,8.04,4.85,14.39v26.03h-15.74v-4.69c-3.1,3.43-7.36,5.69-13.31,5.69-8.62,0-15.23-4.94-15.23-13.98M298.11,52.08v-2.09c-1.59-.67-3.85-1.17-6.19-1.17-4.61,0-7.28,2.26-7.28,5.61v.17c0,3.1,2.34,4.94,5.61,4.94,4.61,0,7.87-2.93,7.87-7.45"/>
      <path class="cls-1" d="M320.54,54.42v-18.41h-5.35v-12.8h5.35v-11.47h15.9v11.47h10.55v12.8h-10.55v15.32c0,3.18,1.42,4.52,4.35,4.52,2.1,0,4.1-.59,6.03-1.51v12.47c-2.85,1.59-6.62,2.59-11.05,2.59-9.54,0-15.23-4.18-15.23-14.98"/>
      <rect class="cls-1" x="350.68" y="23.2" width="15.9" height="45.28"/>
    </g>
  </g>
</svg>