<svg xmlns="http://www.w3.org/2000/svg" viewBox="0 0 178 30"><path d="M176.755 18.331c-.671-.995-1.477-1.772-2.417-2.331-1.5-.896-3.15-1.483-4.71-2.25-.883-.434-1.831-.884-2.534-1.6-.86-.87-.976-2.909.244-3.535 1.474-.757 3.237.196 4.454 1.034 1.502 1.034 2.751 2.354 3.763 3.872h.696V8.52a28.763 28.763 0 0 0-3.108-.61 25.62 25.62 0 0 0-3.57-.231c-1.345 0-2.655.244-3.927.735a7.481 7.481 0 0 0-3.194 2.331c-.855 1.066-1.282 2.424-1.282 4.074 0 1.43.315 2.614.948 3.551.629.938 1.377 1.673 2.247 2.206 1.39.851 2.906 1.461 4.389 2.12 1.111.494 2.238 1.245 2.813 2.353.578 1.11.552 3.179-.87 3.634-1.577.505-3.484-.356-4.743-1.28-1.627-1.198-2.687-2.893-3.711-4.589-.019-.035-.048-.064-.074-.096h-.748v5.673c1.12.308 2.324.562 3.612.758a27.09 27.09 0 0 0 4.074.295c1.708 0 3.214-.273 4.518-.818 1.303-.546 2.318-1.371 3.047-2.48.729-1.107 1.092-2.471 1.092-4.096 0-1.486-.334-2.726-1.009-3.718ZM39.574 9.277c-1.4-.925-3.166-1.387-5.295-1.387-2.296 0-4.293.45-5.988 1.345-1.695.896-2.999 2.2-3.907 3.908-.912 1.708-1.365 3.753-1.365 6.132 0 1.991.321 3.76.966 5.314.646 1.554 1.66 2.78 3.047 3.677 1.387.895 3.157 1.345 5.314 1.345 2.213 0 4.174-.456 5.882-1.365 1.709-.908 3.038-2.218 3.991-3.93.95-1.708 1.43-3.724 1.43-6.049 0-1.933-.332-3.682-.99-5.252-.655-1.567-1.685-2.816-3.085-3.738Zm-3.503 17.98c-.1.504-.28.854-.546 1.05-.267.196-.623.296-1.072.296-.758 0-1.317-.35-1.68-1.05-.366-.7-.67-1.981-.924-3.844-.25-1.862-.72-6.43-1.195-11.446-.083-.867-.077-1.554.02-2.058.096-.504.279-.854.545-1.05.267-.196.623-.292 1.073-.292.757 0 1.316.35 1.679 1.05.363.7.67 1.98.925 3.843.25 1.862.719 6.434 1.194 11.447.083.863.077 1.55-.02 2.054Zm28.642-1.899c-.504 0-1.008-.132-1.19-.399-.184-.266-.113-1.338-.113-2.234V8.437h-9.074v.411l.463.125c.446.113.735.273.86.482.125.209.19.61.19 1.197v14.336a4.548 4.548 0 0 1-.546.354c-.42.224-.938.337-1.554.337-.588 0-.99-.196-1.198-.588-.209-.392-.315-1.063-.315-2.016V8.437h-9.073v.411l.462.125c.447.113.735.273.86.482.126.209.19.61.19 1.197v12.529c0 2.324.44 3.99 1.323 4.999.883 1.008 2.01 1.512 3.38 1.512 1.288 0 2.586-.504 3.886-1.512.806-.623 1.67-1.397 2.597-2.318.065.947.354 1.785.87 2.507.588.826 1.471 1.24 2.646 1.24 1.12 0 2.151-.315 3.089-.944.937-.63 1.91-1.548 2.922-2.752v-.639a6.308 6.308 0 0 1-.38.064c-.112.013-.211.02-.295.02Zm68.702-22.762c-1.933-1.217-4.186-1.827-6.765-1.827-2.661 0-5.05.639-7.163 1.914-2.116 1.274-3.776 3.101-4.98 5.484-3.182 6.29-2.231 15.758 4.155 19.784 1.933 1.217 4.187 1.827 6.765 1.827 2.716 0 5.131-.63 7.247-1.891 6.411-3.82 8.229-12.747 5.519-19.367-.973-2.386-2.582-4.537-4.778-5.924Zm-3.14 23.933c-.337.937-.783 1.547-1.345 1.827-.562.28-1.22.42-1.975.42-1.037 0-1.849-.533-2.437-1.595-.587-1.063-1.085-2.996-1.493-5.799-.404-2.8-.963-7.147-1.467-13.084-.112-1.512-.064-2.751.148-3.718.208-.966.594-1.682 1.156-2.141.558-.463 1.303-.694 2.225-.694 1.091 0 1.945.562 2.562 1.68.616 1.12 1.127 3.088 1.535 5.904.404 2.816.934 7.14 1.383 13.023.142 1.843.042 3.236-.292 4.177Z" fill="#171717"/><path d="m24.074 2.452.462-.167v-.453h-6.745v.453l.629.167c.812.225 1.393.395 1.743 1.178.35.787.569 1.692.652 2.855.084 1.162.125 3.278.125 5.548v2.026l-.138 3.907L8.168 1.83H.292v.453l.42.167c.588.225 1.015.729 1.282 1.512.266.783.427 1.766.485 2.941.054 1.178.083 1.101.083 3.368v7.918c0 2.212-.035 5.028-.106 6.177-.07 1.15-.25 2.11-.546 2.877-.295.77-.764.934-1.406 1.156L0 28.565v.453h6.746v-.453l-.588-.167c-.812-.225-1.4-.395-1.766-1.178-.363-.784-.587-1.757-.67-2.919-.084-1.162-.126-4.013-.126-6.283v-8.011l14.137 19.226h4.244V11.904c0-2.24.036-4.334.107-5.484.07-1.149.25-2.042.545-2.812.29-.77.774-.934 1.445-1.156ZM98.32 23.939c-.672.366-1.452.754-2.01.924-.563.167-1.346.254-2.354.254-1.625 0-3.047-.777-4.264-2.331-.828-1.056-1.374-2.6-1.637-4.63l10.44-1.525c.364-3.166-.022-5.42-1.155-6.765-1.133-1.345-2.822-2.016-5.063-2.016-2.241 0-4.21.49-5.905 1.47-1.695.98-3.005 2.389-3.927 4.222-.924 1.837-1.387 3.985-1.387 6.45 0 1.962.363 3.683 1.092 5.17.729 1.483 1.772 2.626 3.13 3.423 1.359.8 2.96 1.197 4.81 1.197 1.654 0 3.172-.343 4.56-1.03 1.386-.688 2.719-2.245 3.67-3.449V23.94Zm-10.458-8.994c0-2.24.173-4.38.51-5.079.338-.7.784-1.05 1.346-1.05.587 0 1.02.308 1.303.925.28.616.498 3.188.498 4.643 0 .979-.112 1.63-.337 1.955-.225.32-.658.54-1.304.652l-1.917.35c-.064-.742-.1-1.538-.1-2.396Z" fill="#171717"/><path d="M83.158 9.708c.405-.433.86-.693 1.365-.777l.504-.083v-.411h-7.061v.411l.546.083c.588.084 1.037.357 1.346.82.308.462.574 1.19.517 2.183-.058.995-.826 3.586-1.355 5.24l-1.631 5.602-3.535-12.207c-.03-.055-.049-.106-.065-.148a.41.41 0 0 1-.022-.147c-.167-.476-.231-.784-.19-.925.042-.141.257-.267.652-.379l.463-.125v-.408H64.147v.411l.421.125c.446.141.784.308 1.008.504.225.196.42.562.588 1.092l5.503 18.455h4.832l3.532-11.847c.588-1.766 1.432-4.4 1.869-5.365.433-.97.854-1.667 1.258-2.104Zm73.725-.811c-1.037-.67-2.142-1.008-3.32-1.008-1.037 0-2.052.315-3.047.944a13.084 13.084 0 0 0-2.585 2.142V.623l-9.032 2.9v.41l.63.167c.308.084.526.196.652.337a.735.735 0 0 1 .189.504v24.752l5.705-2.09c.206.263.434.51.681.745 1.008.95 2.283 1.429 3.824 1.429 1.596 0 3.153-.47 4.665-1.407 1.513-.937 2.752-2.347 3.718-4.222.967-1.875 1.448-4.145 1.448-6.807 0-2.1-.33-3.865-.985-5.294-.658-1.429-1.506-2.479-2.543-3.15Zm-4.078 18.915c-.154.475-.392.805-.713.988a2.21 2.21 0 0 1-1.114.273c-.671 0-1.185-.295-1.535-.883-.349-.587-.651-1.743-.902-3.464-.253-1.724-.896-6.148-1.287-10.181-.084-.867-.036-1.541.147-2.017.183-.475.428-.799.736-.966a2.169 2.169 0 0 1 1.05-.254c.671 0 1.168.29 1.493.86.321.576.603 1.667.841 3.28.237 1.61.915 6.106 1.393 10.389.077.841.042 1.5-.109 1.975Zm-45.467.189c-.125-.209-.189-.61-.189-1.198V.623l-9.035 2.9v.41l.629.167c.308.084.526.196.652.337a.737.737 0 0 1 .189.504v21.863c0 .587-.064.988-.19 1.197-.125.209-.414.372-.86.485l-.462.125v.411h10.586v-.41l-.463-.126c-.446-.113-.732-.276-.857-.485ZM29.754 4.924h-.427c-.116.373-.247.732-.392.947-.144.219-.302.37-.469.456-.167.087-.35.132-.549.132h-.34l.632-3.766c.033-.186.068-.315.107-.382a.296.296 0 0 1 .199-.135l.163-.048.049-.276h-2.341l-.048.276.138.032c.109.029.173.074.19.141.015.067.009.2-.026.395l-.553 3.269a1.42 1.42 0 0 1-.106.382.277.277 0 0 1-.199.134l-.163.052-.049.276h3.889l.295-1.885Zm1.628 2.024c.33 0 .645-.077.947-.23.302-.155.575-.37.816-.643l.057-.379c-.16.106-.33.187-.51.248-.18.06-.34.09-.478.09a.756.756 0 0 1-.51-.18c-.139-.122-.206-.389-.206-.806 0-.129.006-.273.019-.434.35.02.687.01.998-.038.36-.055.655-.17.887-.347.23-.177.346-.42.346-.732a.803.803 0 0 0-.276-.597c-.183-.174-.494-.26-.928-.26-.51 0-.956.131-1.335.398a2.608 2.608 0 0 0-.874 1.05 3.259 3.259 0 0 0-.305 1.393c0 .51.125.883.38 1.117.253.235.577.35.972.35Zm.173-2.729a3.72 3.72 0 0 1 .2-.87c.093-.257.218-.382.378-.382.07 0 .132.032.177.1.048.064.07.183.07.353 0 .231-.038.417-.115.559a.59.59 0 0 1-.337.292.9.9 0 0 1-.379.029c.003-.026.003-.049.006-.08Z" fill="#171717"/></svg>