<?xml version="1.0" encoding="UTF-8"?><svg id="Calque_2" xmlns="http://www.w3.org/2000/svg" viewBox="0 0 1950 759.17"><defs><style>.cls-1{fill:#fff;}</style></defs><g id="Calque_1-2"><g><g><path class="cls-1" d="M1077.82,468.88c-47.41-47.38-125.77-46.64-174.14,1.74l-29.97,29.74-29.76-29.74c-48.36-48.38-126.71-49.12-174.14-1.74-47.41,47.41-46.64,125.78,1.73,174.15l112.13,111.97h180.26l112.17-111.97c48.36-48.38,49.14-126.74,1.71-174.15Z"/><path d="M81.61,451.88l77.86,219.85,77.45-219.85h82.03v303.13h-62.67v-82.86l6.25-143.02-81.82,225.89h-42.89l-81.61-225.68,6.25,142.82v82.86H0V451.88H81.61Z"/><path d="M556.08,692.55h-109.51l-20.82,62.46h-66.41l112.84-303.13h57.88l113.47,303.13h-66.41l-21.03-62.46Zm-92.65-50.6h75.78l-38.1-113.46-37.68,113.46Z"/><path d="M1300.86,692.55h-109.51l-20.82,62.46h-66.41l112.84-303.13h57.88l113.47,303.13h-66.41l-21.03-62.46Zm-92.65-50.6h75.78l-38.1-113.46-37.68,113.46Z"/><path d="M1672,755.01h-62.46l-121.59-199.45v199.45h-62.46V451.88h62.46l121.79,199.87v-199.87h62.25v303.13Z"/><path d="M1887.33,675.48c0-11.79-4.16-20.85-12.49-27.17-8.33-6.32-23.32-12.98-44.97-19.99-21.65-7.01-38.8-13.91-51.42-20.72-34.42-18.6-51.63-43.65-51.63-75.15,0-16.38,4.61-30.99,13.84-43.83,9.23-12.84,22.49-22.86,39.77-30.08,17.28-7.21,36.67-10.83,58.19-10.83s40.94,3.92,57.88,11.76c16.93,7.85,30.09,18.92,39.45,33.21,9.37,14.3,14.06,30.54,14.06,48.72h-62.46c0-13.87-4.37-24.67-13.12-32.38-8.74-7.7-21.03-11.55-36.85-11.55s-27.14,3.22-35.6,9.68c-8.47,6.45-12.7,14.96-12.7,25.5,0,9.86,4.96,18.12,14.89,24.78,9.92,6.66,24.53,12.9,43.82,18.73,35.53,10.69,61.42,23.95,77.66,39.77,16.24,15.82,24.36,35.54,24.36,59.13,0,26.23-9.93,46.81-29.77,61.73-19.85,14.93-46.57,22.38-80.15,22.38-23.32,0-44.55-4.27-63.71-12.81-19.15-8.53-33.76-20.22-43.82-35.08-10.07-14.85-15.1-32.06-15.1-51.63h62.67c0,33.45,19.99,50.18,59.96,50.18,14.85,0,26.44-3.03,34.77-9.06,8.33-6.04,12.49-14.47,12.49-25.3Z"/></g><g><path d="M70.58,352.94v-11.21l37.54-2.44V18.77l-37.54-2.44V5.12H202.93c17.87,0,34.41,1.91,49.6,5.73,15.19,3.82,28.88,9.59,41.07,17.31,12.19,7.72,21.73,18.04,28.64,30.95,6.91,12.92,10.36,27.83,10.36,44.73,0,15.6-2.64,29.66-7.92,42.17s-12.39,22.99-21.33,31.44c-8.94,8.45-19.7,15.48-32.3,21.08-12.59,5.61-25.92,9.67-39.97,12.19-14.06,2.52-28.96,3.78-44.73,3.78-3.41,0-8.69-.16-15.84-.49v125.28l37.54,2.44v11.21H70.58Zm99.93-152.58c5.69,.49,11.46,.73,17.31,.73,53.3,0,79.95-32.54,79.95-97.63,0-15.78-1.79-29.25-5.36-40.39-3.57-11.15-8.73-19.77-15.48-25.88-6.74-6.09-14.22-10.49-22.42-13.17-8.21-2.69-17.59-4.03-28.15-4.03-7.96,0-16.57,.65-25.84,1.95V200.35Z"/><path d="M359.65,300.04c0-7.96,1.26-15.64,3.78-23.03,2.52-7.39,6.62-14.5,12.31-21.33,5.69-6.82,12.67-12.76,20.96-17.79,8.29-5.04,18.56-9.06,30.83-12.07,12.27-3.01,25.88-4.51,40.83-4.51,7.96,0,15.52,.32,22.67,.97v-33.71c0-10.74-.2-19.46-.61-26.14-.41-6.67-1.42-13.56-3.05-20.64-1.62-7.09-3.94-12.54-6.95-16.37-3.01-3.83-7.23-7.01-12.67-9.53-5.44-2.53-12.07-3.79-19.86-3.79-23.72,0-41.03,9.36-51.92,28.11v.97c2.76-.49,5.28-.73,7.56-.73,8.45,0,15.11,2.6,19.99,7.82,4.87,5.22,7.31,12.72,7.31,22.49,0,8.47-2.92,15.6-8.77,21.39-5.85,5.78-13.16,8.67-21.94,8.67-9.59,0-17.14-3.25-22.67-9.75-5.52-6.5-8.29-14.14-8.29-22.91,0-19.17,8.82-35.18,26.45-48.02,17.63-12.84,37.9-19.26,60.81-19.26,16.25,0,30.1,1.71,41.56,5.12,11.46,3.41,20.6,7.92,27.42,13.53s12.15,13.24,15.96,22.91,6.34,19.54,7.56,29.61c1.22,10.07,1.83,22.42,1.83,37.05v131.38l25.11,2.44v9.99h-77.51l-6.82-38.51h-.49c-7.96,15.44-17.59,26.93-28.88,34.49-11.29,7.56-24.98,11.33-41.07,11.33-19.82,0-35.02-5.93-45.58-17.79-10.56-11.86-15.84-26-15.84-42.41Zm58.99-5.02c0,12.97,2.44,23.47,7.31,31.49,4.87,8.02,12.02,12.03,21.45,12.03,11.05,0,21.08-6.89,30.1-20.67s13.53-30.64,13.53-50.59v-33.55c-6.5-.81-11.78-1.22-15.84-1.22-8.45,0-15.96,1.14-22.55,3.4-6.58,2.27-11.82,5.35-15.72,9.24-3.9,3.9-7.15,7.98-9.75,12.28-2.6,4.3-4.47,9.05-5.61,14.23-1.14,5.19-1.91,9.49-2.32,12.89-.41,3.41-.61,6.9-.61,10.46Z"/><path d="M600.96,127.72v-9.99l50.94-5.36,34.37-9.02,3.41,7.07v41.92h.97c3.25-6.5,7.23-12.84,11.94-19.01,4.71-6.17,9.87-11.66,15.48-16.45,5.61-4.79,11.58-8.65,17.91-11.58,6.34-2.92,12.76-4.39,19.26-4.39,12.67,0,22.46,3.37,29.37,10.12s10.36,15.72,10.36,26.93c0,4.71-.73,9.06-2.19,13.04-1.46,3.98-3.53,7.43-6.22,10.36-2.68,2.92-5.93,5.24-9.75,6.95-3.82,1.71-8,2.56-12.55,2.56-4.87,0-9.26-.81-13.16-2.44-3.9-1.62-7.19-3.82-9.87-6.58-2.68-2.76-4.75-5.97-6.22-9.63s-2.19-7.6-2.19-11.82c0-8.61,1.79-14.95,5.36-19.01v-1.46c-5.85,1.3-11.58,4.39-17.18,9.26-5.61,4.87-10.68,11.5-15.23,19.86-4.55,8.37-8.21,18.44-10.97,30.22-2.76,11.78-4.14,25.06-4.14,39.85v121.38l25.11,2.44v9.99h-109.93v-9.99l25.11-2.44V127.72h-29.98Z"/><path d="M815.93,232.04c0-24.54,4.75-46.8,14.26-66.78,9.51-19.99,22.83-35.71,39.97-47.16,17.14-11.46,36.52-17.18,58.13-17.18,17.87,0,34,3.7,48.38,11.09,14.38,7.39,25.92,17.26,34.61,29.61,8.69,12.35,15.36,26.12,19.99,41.31,4.63,15.19,6.95,31.08,6.95,47.65,0,23.89-4.55,45.66-13.65,65.32-9.1,19.66-22.14,35.3-39.12,46.92-16.98,11.62-36.2,17.43-57.64,17.43-19.01,0-35.79-3.37-50.33-10.12-14.54-6.74-26.24-16.09-35.1-28.03-8.86-11.94-15.48-25.47-19.86-40.58-4.39-15.11-6.58-31.6-6.58-49.48Zm62.4-2.92c0,18.01,.89,34.09,2.68,48.29,1.79,14.19,4.55,26.75,8.29,37.7,3.74,10.94,8.77,19.34,15.11,25.18,6.34,5.84,13.81,8.75,22.42,8.75,32.66,0,48.99-39,48.99-117,0-19.62-.77-36.49-2.32-50.6-1.54-14.11-4.14-26.55-7.8-37.33-3.66-10.79-8.73-18.81-15.23-24.09-6.5-5.26-14.38-7.9-23.64-7.9-8.61,0-16.09,2.92-22.42,8.75-6.34,5.84-11.37,14.12-15.11,24.81-3.74,10.7-6.5,22.95-8.29,36.73-1.79,13.78-2.68,29.35-2.68,46.7Z"/><path d="M1067.47,24.37V14.38l50.94-5.36,34.37-9.02,4.39,7.07V340.5l25.11,2.44v9.99h-109.93v-9.99l25.11-2.44V24.37h-29.98Z"/><path d="M1216.64,230.58c0-12.67,1.22-25.06,3.66-37.17,2.44-12.11,6.42-23.76,11.94-34.98,5.52-11.21,12.27-21.04,20.23-29.49,7.96-8.45,17.83-15.23,29.61-20.35,11.78-5.12,24.82-7.68,39.12-7.68,13.49,0,25.59,1.91,36.32,5.73s19.66,9.14,26.81,15.96c7.15,6.82,13.08,15.15,17.79,24.98,4.71,9.83,8.08,20.47,10.12,31.93,2.03,11.46,3.05,24.01,3.05,37.66l-6.58,6.09h-129.67v14.87c0,70.85,20.15,106.27,60.45,106.27,28.6,0,51.43-14.3,68.49-42.9l9.51,5.85c-20.96,35.26-50.78,52.89-89.45,52.89s-65.28-11.54-83.72-34.61c-18.44-23.07-27.66-54.76-27.66-95.06Zm62.4-18.52l78.73-3.15c.49-8.25,.73-16.18,.73-23.77,0-23.45-2.8-41.48-8.41-54.09-5.61-12.61-14.91-18.92-27.91-18.92-7.8,0-14.5,2.55-20.11,7.64-5.61,5.1-9.95,12.41-13.04,21.96-3.09,9.55-5.4,19.93-6.95,31.17-1.54,11.24-2.56,24.29-3.05,39.17Z"/><path d="M1544.92,269.28c0-10.06,.92-19.71,2.77-28.96,1.85-9.25,4.79-18.01,8.84-26.27,4.04-8.26,9.02-15.43,14.91-21.5,5.9-6.07,13.15-10.9,21.76-14.48,8.61-3.58,18.12-5.38,28.53-5.38,4.39,0,9.56,.72,15.52,2.17,5.95,1.45,10.72,3.67,14.31,6.68v-63.29h-21.33v-7.11l36.24-3.81,24.45-6.42,3.29,5.03v237.22l17.69,1.73v7.11h-57.92l-2.25-24.62h-.35c-6.71,11.44-13.7,19.27-20.98,23.5-7.28,4.22-16.02,6.33-26.18,6.33-2.66,0-5.49-.28-8.5-.87-3.01-.58-6.48-1.71-10.4-3.38-3.93-1.67-7.72-3.81-11.36-6.42-3.64-2.6-7.26-6.22-10.84-10.84-3.59-4.62-6.71-9.88-9.36-15.78-2.66-5.9-4.8-13.2-6.42-21.94-1.62-8.73-2.43-18.29-2.43-28.7Zm44.39-1.73c0,50.05,10.34,75.08,31.04,75.08,8.21,0,15.46-4.92,21.76-14.74,6.3-9.82,9.45-20.35,9.45-31.56v-106.3c-6.59-4.97-13.93-7.46-22.02-7.46-5.32,0-10.09,1.1-14.31,3.29-4.22,2.19-7.72,4.97-10.49,8.32-2.77,3.36-5.15,7.61-7.11,12.75-1.97,5.14-3.47,10.08-4.51,14.83-1.04,4.74-1.88,10.17-2.51,16.3-.64,6.13-1.02,11.27-1.13,15.43-.12,4.16-.17,8.84-.17,14.05Z"/><path d="M1736.54,264.95c0-9.02,.87-17.84,2.6-26.44,1.73-8.61,4.56-16.91,8.5-24.88,3.93-7.98,8.73-14.97,14.39-20.98,5.66-6.01,12.68-10.84,21.07-14.48,8.38-3.64,17.66-5.46,27.83-5.46,9.59,0,18.21,1.36,25.84,4.08,7.63,2.71,13.98,6.5,19.07,11.36,5.08,4.86,9.3,10.78,12.66,17.77,3.35,7,5.75,14.57,7.2,22.72,1.44,8.15,2.17,17.08,2.17,26.79l-4.68,4.34h-92.25v10.58c0,50.4,14.33,75.6,43,75.6,20.34,0,36.59-10.17,48.73-30.52l6.76,4.16c-14.91,25.08-36.13,37.63-63.64,37.63s-46.45-8.21-59.56-24.62c-13.12-16.41-19.68-38.95-19.68-67.63Zm44.39-13.18l56.01-2.24c.35-5.87,.52-11.51,.52-16.92,0-16.67-1.99-29.5-5.98-38.47-3.99-8.98-10.61-13.46-19.85-13.46-5.55,0-10.32,1.81-14.31,5.44-3.99,3.63-7.08,8.83-9.28,15.62-2.2,6.79-3.85,14.18-4.94,22.17-1.1,8-1.82,17.29-2.17,27.87Z"/></g></g></g></svg>