<svg width="165" height="41" fill="none" xmlns="http://www.w3.org/2000/svg"><path d="M55.846 13.64c0 3.038.445 4.329 2.791 4.329s2.792-1.317 2.792-4.328V.544h4.523v14.16c0 4.93-2.346 7.306-7.315 7.306-4.968 0-7.314-2.408-7.314-7.306V.544h4.523v13.097ZM69.66 1.948C70.86.69 72.588 0 74.768 0s3.936.686 5.134 1.948c1.675 1.778 1.816 4.013 1.816 7.223v3.697c0 3.21-.141 5.446-1.816 7.223-1.201 1.262-2.958 1.948-5.135 1.948-2.176 0-3.908-.689-5.109-1.948-1.675-1.777-1.816-4.012-1.816-7.223V9.171c0-3.21.138-5.445 1.816-7.223Zm7.452 6.421c0-2.953-.223-4.328-2.347-4.328-2.123 0-2.346 1.375-2.346 4.328v5.275c0 2.953.223 4.328 2.346 4.328 2.124 0 2.347-1.375 2.347-4.328V8.37ZM87.656 4.586h-5.162V.544h14.851v4.042H92.18v16.91h-4.523V4.585ZM98.255 19.518h2.318V2.38h-2.318V.544h9.183V2.38h-2.342v17.138h2.342v1.977h-9.183v-1.977ZM114.725.544c2.54 0 4.381.116 5.749 1.06 1.647 1.146 2.625 3.323 2.625 6.189v6.421c0 2.866-.978 5.072-2.625 6.19-1.339.917-3.212 1.088-5.749 1.088h-5.891V.544h5.891Zm-.308 16.91c2.933 0 4.103-1.205 4.103-4.241V8.798c0-3.037-1.145-4.212-4.103-4.212h-1.06v12.868h1.06ZM123.545 19.518h2.317V2.38h-2.317V.544h9.183V2.38h-2.343v17.138h2.343v1.977h-9.183v-1.977ZM134.591.544h13.763v4.042h-9.24V8.34h6.308v4.042h-6.308v5.072h9.827v4.041h-14.35V.545ZM150.261.544h4.354l6.533 12.727-.084-12.727H165v20.951h-3.714l-7.173-14.16.085 14.16h-3.937V.545ZM36.813 1.948C38.015.686 39.771 0 41.951 0c2.18 0 3.908.69 5.11 1.948 1.674 1.778 1.812 4.013 1.812 7.223v3.697c0 2.434-.138 4.013-.417 4.756.558.773 1.117 1.118 1.87 1.118h.25v4.701h-.392c-1.954 0-3.208-.83-3.964-2.695-1.23.918-2.569 1.288-4.272 1.288-2.177 0-3.965-.69-5.138-1.948-1.675-1.778-1.813-3.984-1.813-7.223V9.168c0-3.21.142-5.445 1.813-7.223m5.138 16.02c.81 0 1.367-.228 1.76-.801-.418-.831-.98-1.234-1.76-1.234h-.17v-4.012h.223c1.145 0 2.067.66 2.597 1.861l.085-.058c-.223-.515-.307-1.117-.307-1.864V8.36c0-2.982-.223-4.328-2.4-4.328s-2.371 1.346-2.371 4.328v5.274c0 2.953.223 4.328 2.346 4.328M0 .544h4.523v16.91h8.933v4.041H0V.545ZM13.983.544h13.763v4.042h-9.24V8.34h6.307v4.042h-6.307v5.072h9.826v4.041h-14.35V.545ZM28.332 24.335h3.745c4.652 0 7.12 2.776 7.12 8.109 0 5.332-2.468 8.13-7.12 8.13h-3.745V24.333v.003Zm3.485 14.243c3.507 0 5.022-1.845 5.022-6.13 0-4.287-1.515-6.11-5.022-6.11h-1.21v12.244h1.21v-.004ZM42.788 24.335v10.289c0 2.934.888 4.354 2.77 4.354 2.142 0 2.986-1.556 2.986-4.776v-9.867h2.014v11.088c0 3.4-2.014 5.577-5.022 5.577-3.202 0-5-2.045-5-5.91V24.336h2.252ZM56.771 24.335h3.375l3.44 12.952h.195l3.441-12.952h3.356v16.243h-1.904V25.601h-.11l-4.002 14.977h-1.775l-3.983-14.977h-.129v14.977h-1.904V24.335ZM73.297 24.313h9.846v2.022h-7.594v4.644h5.496v2h-5.496v5.577h7.898v2.022h-10.15V24.313ZM85.232 24.335h3.742c4.654 0 7.12 2.776 7.12 8.109 0 5.332-2.469 8.13-7.12 8.13h-3.742V24.333v.003Zm3.485 14.243c3.506 0 5.021-1.845 5.021-6.13 0-4.287-1.515-6.11-5.021-6.11h-1.211v12.244h1.21v-.004ZM97.68 24.313h9.849v2.022h-7.596v4.644h5.498v2h-5.498v5.577h7.898v2.022h-10.15V24.313ZM113.319 41c-3.374 0-5.3-2.934-5.3-8.556 0-5.623 1.926-8.534 5.3-8.534 2.425 0 4.178 1.623 4.718 4.576l-2.033.512c-.367-2.09-1.235-3.088-2.685-3.088-2.164 0-3.029 2.132-3.029 6.534 0 4.402.865 6.534 3.029 6.534 1.537 0 2.403-1.134 2.663-3.378l2.143.422c-.367 3.133-2.249 4.978-4.806 4.978ZM118.884 39.042h1.364V25.868h-1.364v-1.533h4.999v1.533h-1.364v13.174h1.364v1.536h-4.999v-1.536ZM125.511 24.335h3.008l3.657 8.421a71.232 71.232 0 0 1 2.099 5.355h.15V24.335h1.904v16.243h-2.92l-3.962-9.042a44.299 44.299 0 0 1-1.881-5.001h-.151v14.043h-1.904V24.335Z" fill="#0E151D"/></svg>
