<?xml version="1.0" encoding="UTF-8"?>

<svg xmlns="http://www.w3.org/2000/svg" width="300" height="134.57">
  <path
     d="m 5.0000056,6.3750075 0,121.8125025 21.1250004,0 0,-52.343753 5.03125,0 9.9375,52.343753 21.28125,0 -12.5,-57.468753 c 2.38431,-1.482991 4.335376,-3.374167 5.90625,-5.65625 1.570783,-2.281949 2.868119,-4.793119 3.84375,-7.53125 0.975503,-2.737997 1.650881,-5.523711 2.03125,-8.375 0.380242,-2.851116 0.562427,-5.593757 0.5625,-8.21875 -7.3e-5,-6.388167 -0.81216,-11.79571 -2.4375,-16.1875 -1.62545,-4.391598 -3.885845,-7.94933 -6.8125,-10.6875 C 50.04201,11.324549 46.492184,9.3539643 42.375006,8.1562575 38.257737,6.9588002 33.705696,6.3751227 28.718756,6.3750075 l -23.7187504,0 z m 21.1250004,17.7812495 3.25,0 c 3.578152,9.6e-5 6.418031,1.191907 8.53125,3.53125 2.113146,2.339555 3.187464,6.791806 3.1875,13.40625 -3.6e-5,2.168944 -0.182222,4.291591 -0.5625,6.34375 -0.380351,2.052312 -1.008611,3.834595 -1.875,5.375 -0.86648,1.540559 -1.989555,2.811778 -3.34375,3.78125 -1.35425,0.969625 -3.017634,1.437577 -4.96875,1.4375 l -4.21875,0 0,-33.875 z m 124.281254,16.78125 c -3.68404,7.7e-5 -7.11464,0.808393 -10.3125,2.40625 -3.19789,1.598011 -5.95148,4.114248 -8.28125,7.59375 -2.32979,3.479656 -4.17704,8.040839 -5.53125,13.6875 -1.35423,5.646776 -2.03125,12.527488 -2.03125,20.625 0,8.101101 0.67702,14.978303 2.03125,20.625003 1.35421,5.64674 3.20146,10.24597 5.53125,13.78125 2.32977,3.53528 5.08336,6.05325 8.28125,7.59375 3.19786,1.54048 6.62846,2.3125 10.3125,2.3125 6.50154,0 11.82816,-1.97565 16,-5.96875 4.17174,-3.99308 6.96616,-10.05866 8.375,-18.15625 l -13.15625,-4.09375 c -0.43325,1.48307 -0.87932,2.91643 -1.3125,4.34375 -0.43325,1.42736 -0.98314,2.69858 -1.6875,3.78125 -0.70443,1.08271 -1.60283,1.9722 -2.6875,2.65625 -1.08473,0.68409 -2.48592,1.03127 -4.21875,1.03125 -0.97561,2e-5 -1.91484,-0.23143 -2.78125,-0.6875 -0.86646,-0.45605 -1.63937,-1.34552 -2.34375,-2.65625 -0.70441,-1.31071 -1.24472,-3.12927 -1.625,-5.46875 -0.38033,-2.33944 -0.56254,-5.392906 -0.5625,-9.156253 l 0,-3.78125 30.0625,0 0,-8.71875 c -5e-5,-4.222812 -0.35816,-8.782248 -1.0625,-13.6875 -0.70445,-4.905137 -1.96889,-9.424936 -3.8125,-13.53125 -1.84372,-4.106141 -4.31921,-7.548147 -7.40625,-10.34375 -3.08714,-2.795411 -7.01258,-4.187423 -11.78125,-4.1875 z m -82.875004,1.375 0,69.468753 c 0,5.47615 1.225253,9.80588 3.71875,13 2.493479,3.19412 5.917802,4.78125 10.25,4.78125 3.144957,0 6.11198,-1.00345 8.875,-3 2.762983,-1.99653 5.208864,-4.16734 7.375,-6.5625 l 0.34375,0 0,8.1875 18.843754,0 0,-85.875003 -18.843754,0 0,67.593753 c -0.651515,0.91213 -1.54993,1.65463 -2.6875,2.28125 -1.137643,0.62666 -2.356631,0.96877 -3.65625,0.96875 -1.627072,2e-5 -2.93071,-0.61491 -3.90625,-1.8125 -0.975594,-1.19755 -1.468786,-3.44272 -1.46875,-6.75 l 0,-62.281253 -18.84375,0 z m 82.718754,14.03125 c 2.2752,7.7e-5 3.89941,1.312642 4.875,3.9375 0.97554,2.624993 1.46871,7.07045 1.46875,13.34375 l 0,2.375 -12.1875,0 0,-2.375 c -4e-5,-6.617957 0.41313,-11.172345 1.28125,-13.625 0.86807,-2.45254 2.39638,-3.656173 4.5625,-3.65625 z"
     style="fill:#000;" />
  <path
     d="m 207.93751,5.0000075 c -4.55046,1.152e-4 -8.47592,0.8878592 -11.78125,2.65625 -3.30538,1.7686403 -6.06061,4.1640835 -8.28125,7.1874995 -2.22067,3.023646 -3.88406,6.539994 -4.96875,10.53125 -1.08471,3.991428 -1.625,8.134585 -1.625,12.46875 0,5.820861 1.30528,11.53581 3.90625,17.125 2.60095,5.589343 5.97652,10.223141 10.09375,13.875 -4.87454,3.648481 -8.92713,7.871046 -12.125,12.71875 -3.19789,4.8478 -4.78125,10.600774 -4.78125,17.21875 0,4.449173 0.58907,8.547463 1.78125,12.312503 1.19216,3.76507 2.95939,7.01369 5.34375,9.75 2.38435,2.73633 5.26506,4.86575 8.625,6.40625 3.3599,1.54048 7.2774,2.3125 11.71875,2.3125 5.20189,0 9.62846,-1.00345 13.3125,-3 3.68397,-1.99653 6.70141,-4.55081 9.03125,-7.6875 2.32973,-3.13665 4.04024,-6.65304 5.125,-10.53125 1.08464,-3.87817 1.62493,-7.70193 1.625,-11.468753 -7e-5,-3.763289 -0.49323,-7.248388 -1.46875,-10.5 -0.97561,-3.251516 -2.28091,-6.341297 -3.90625,-9.25 -1.62545,-2.908588 -3.48062,-5.652957 -5.59375,-8.21875 -2.11324,-2.565678 -4.36569,-5.156277 -6.75,-7.78125 4.87779,-3.763251 8.48266,-7.820165 10.8125,-12.15625 2.32973,-4.335912 3.49995,-9.746794 3.5,-16.25 -5e-5,-3.533461 -0.54035,-6.977195 -1.625,-10.34375 -1.08475,-3.366325 -2.66018,-6.340399 -4.71875,-8.90625 -2.05866,-2.565621 -4.53417,-4.6156524 -7.40625,-6.1562495 -2.87219,-1.5403667 -6.15977,-2.3123848 -9.84375,-2.3125 z m 58.9375,0 c -3.9023,1.152e-4 -7.50717,0.9309514 -10.8125,2.8125 -3.30538,1.8817789 -6.15649,4.6243815 -8.59375,8.2187495 -2.43728,3.594579 -4.36288,8.076373 -5.71875,13.4375 -1.35587,5.361358 -2.03125,11.468285 -2.03125,18.3125 0,6.388301 0.62032,11.764633 1.8125,16.15625 1.19216,4.391771 2.72842,7.944417 4.625,10.625 1.89656,2.68066 4.01394,4.614985 6.34375,5.8125 2.32977,1.19763 4.67814,1.781288 7.0625,1.78125 3.3599,3.8e-5 6.16225,-0.735663 8.4375,-2.21875 2.2752,-1.48301 4.29833,-3.576116 6.03125,-6.3125 l 0.3125,0 c -0.32412,6.15853 -0.60387,11.650549 -0.875,16.5 -0.27122,4.849527 -0.71562,8.984143 -1.3125,12.406253 -0.59696,3.42218 -1.44826,6.05081 -2.53125,7.875 -1.08309,1.82425 -2.58013,2.75002 -4.53125,2.75 -2.38438,2e-5 -3.9127,-1.43002 -4.5625,-4.28125 -0.64986,-2.85119 -1.19181,-7.02385 -1.625,-12.500003 l -17.875,1.53125 c 0.21495,3.878233 0.79775,7.703713 1.71875,11.468753 0.921,3.76507 2.28298,7.16397 4.125,10.1875 1.842,3.02353 4.22952,5.45704 7.15625,7.28125 2.92667,1.82423 6.52362,2.71875 10.75,2.71875 4.33216,0 8.3143,-1.19859 12,-3.59375 3.68563,-2.39514 6.88527,-6.22569 9.59375,-11.53125 2.70839,-5.30554 4.82577,-12.25712 6.34375,-20.812503 1.51785,-8.555326 2.2812,-18.992004 2.28125,-31.3125 -5e-5,-11.975686 -0.77133,-21.683477 -2.34375,-29.15625 -1.57253,-7.472581 -3.68033,-13.304965 -6.28125,-17.46875 -2.60101,-4.163555 -5.57929,-6.9855855 -8.9375,-8.4687495 -3.35832,-1.4829336 -6.87852,-2.2186348 -10.5625,-2.21875 z m -59.75,16.4374995 c 1.73615,9.6e-5 3.17486,0.352322 4.3125,1.09375 1.13757,0.74162 2.03763,1.703707 2.6875,2.84375 0.64978,1.140235 1.1038,2.454547 1.375,3.9375 0.27111,1.483145 0.40621,2.881933 0.40625,4.25 -4e-5,3.422242 -0.63622,6.78482 -1.9375,10.09375 -1.30133,3.309084 -2.87677,6.398865 -4.71875,9.25 -2.8176,-2.168791 -5.20679,-5.299936 -7.15625,-9.40625 -1.94951,-4.106141 -2.93752,-8.163075 -2.9375,-12.15625 -2e-5,-2.280183 0.71619,-4.489014 2.125,-6.65625 1.40877,-2.167025 3.35353,-3.249904 5.84375,-3.25 z m 59.75,0 c 2.81754,9.6e-5 4.66477,2.2072 5.53125,6.65625 0.86641,4.449223 1.35953,10.283373 1.46875,17.46875 l 0,16.9375 c -0.43325,0.570991 -1.19658,1.2636 -2.28125,2.0625 -1.08473,0.799034 -2.4859,1.187558 -4.21875,1.1875 -0.97559,5.8e-5 -1.92277,-0.272759 -2.84375,-0.84375 -0.92102,-0.570876 -1.7252,-1.610644 -2.375,-3.09375 -0.64986,-1.482972 -1.19181,-3.569302 -1.625,-6.25 -0.43325,-2.680545 -0.65627,-6.124298 -0.65625,-10.34375 -2e-5,-4.678821 0.12711,-8.576918 0.34375,-11.65625 0.21659,-3.079121 0.62347,-5.481379 1.21875,-7.25 0.59524,-1.76841 1.32104,-3.03963 2.1875,-3.78125 0.86641,-0.741428 1.94701,-1.093654 3.25,-1.09375 z m -64.125,55.25 c 1.73283,1.709384 3.36664,3.445216 4.9375,5.15625 1.5708,1.711111 3.00322,3.491647 4.25,5.375 1.2467,1.883449 2.24099,3.890351 3,6 0.75892,2.109726 1.12496,4.396239 1.125,6.906253 -4e-5,2.62495 -0.31731,4.82526 -0.96875,6.59375 -0.65151,1.76853 -1.46362,3.23488 -2.4375,4.375 -0.97393,1.14016 -2.05785,1.95022 -3.25,2.40625 -1.19222,0.45607 -2.32158,0.65625 -3.40625,0.65625 -1.19056,0 -2.36075,-0.19514 -3.5,-0.59375 -1.13928,-0.3986 -2.17277,-1.17059 -3.09375,-2.3125 -0.92102,-1.14185 -1.68601,-2.69093 -2.28125,-4.6875 -0.59528,-1.99651 -0.87504,-4.58884 -0.875,-7.781253 -4e-5,-1.939078 0.18383,-3.982277 0.5625,-6.09375 0.37864,-2.111377 0.87181,-4.161409 1.46875,-6.15625 0.59688,-1.994764 1.27226,-3.85137 2.03125,-5.5625 0.75893,-1.711015 1.57102,-3.139325 2.4375,-4.28125 z"
     style="fill:#fe0000;" />
</svg>
