<svg xmlns="http://www.w3.org/2000/svg" xmlns:xlink="http://www.w3.org/1999/xlink" width="140" height="55"><defs><path id="a" d="M0 .532h23.662v27.264H0z"/><path id="c" d="M.128 0h22.656v37.796H.128z"/><path id="e" d="M0 55h139.372V0H0z"/></defs><g fill="none" fill-rule="evenodd"><path fill="#2D889E" d="M16.116 41.797c-1.599 0-2.969.43-3.951 1.222-.804-.794-2.054-1.222-3.614-1.222-1.39 0-2.574.29-3.473.836v-.648H.116v9.548h5.309v-4.139c0-1.632.767-1.853 1.518-1.853.519 0 .864.156.864.914v5.078h5.312v-4.139c0-1.632.768-1.853 1.518-1.853.449 0 .865.11.865.914v5.078h5.312v-5.5c0-2.969-1.405-4.236-4.698-4.236m11.312 6.646c-.567 0-.835-.147-.904-.21.052-.102.479-.36 1.665-.36.227 0 .451.006.671.012-.287.32-.784.558-1.431.558m6.762.463v-3.031c0-2.592-2.22-4.078-6.09-4.078-1.808 0-3.308.194-4.718.61l-.52.154.117 3.385c-1.177.69-1.512 1.645-1.512 2.51 0 1.98 1.939 3.26 4.939 3.26 1.223 0 2.198-.24 3.02-.76l.029.578h5.165l-.236-.881c-.133-.5-.194-1.038-.194-1.747m7.677-.929c-.755 0-1.517-.4-1.517-1.292 0-.833.568-1.331 1.517-1.331 1.33 0 1.801.659 1.801 1.225 0 .918-.905 1.398-1.8 1.398zm-.848 3.56c-.105 0-.208-.001-.308-.003.915-.006 1.736-.152 2.46-.434-.403.252-1.064.437-2.151.437zm2.888-8.868c-.903-.563-2.007-.872-3.191-.872-3.637 0-5.809 1.846-5.809 4.936 0 2.192 1.346 3.835 3.51 4.49-.324-.088-.645-.193-.989-.315l-.852-.303-.326 3.712.575.147c.776.2 2.393.536 4.5.536 3.72 0 7.524-.61 7.524-5.124v-7.89h-4.942v.683zm11.642 5.774c-.568 0-.835-.147-.904-.21.05-.101.477-.36 1.663-.36.229 0 .454.006.673.012-.288.32-.784.558-1.432.558m6.763.463v-3.031c0-2.592-2.22-4.078-6.091-4.078-1.807 0-3.306.194-4.717.61l-.52.153.114 3.388c-1.175.69-1.51 1.644-1.51 2.508 0 1.98 1.939 3.26 4.939 3.26 1.224 0 2.199-.24 3.022-.76l.029.578h5.164l-.237-.881c-.133-.497-.193-1.035-.193-1.747m11.658-3.618v-3.303h-10.94v3.461h3.645l-3.754 2.786v3.301h11.137v-3.464h-3.842zm16.489-3.491c-1.39 0-2.574.29-3.474.836v-.648h-4.963v9.548h5.312v-4.139c0-1.333.486-1.853 1.735-1.853.582 0 1.104.104 1.104 1.35v4.642h5.312V45.75c0-1.823-1.316-3.952-5.026-3.952m13.66 6.645c-.718 0-1.237-.064-1.614-.161h3.345c-.67.127-1.273.16-1.732.16m-1.195-3.46c.616 0 .974.132 1.183.304h-2.278c.3-.24.722-.304 1.095-.304m-.022-3.185c-4.109 0-6.764 1.944-6.764 4.952 0 2.97 2.927 4.967 7.285 4.967 1.641 0 3.104-.181 4.347-.542l.505-.146v-2.746h1.043v-1.217c0-3.3-2.398-5.268-6.416-5.268m-22.484-1.294c0-1.126-1.199-2.008-2.729-2.008s-2.729.882-2.729 2.008c0 .596.342 1.118.885 1.482h-.785v9.548h5.31v-9.548h-.838c.544-.364.886-.886.886-1.482"/><g transform="translate(0 10)"><mask id="b" fill="#fff"><use xlink:href="#a"/></mask><path fill="#2D889E" d="M14.046 10.547c-2.548-.552-4.218-.986-4.218-1.965 0-.705 1.42-1.145 3.706-1.145 2.342 0 4.977.583 6.715 1.487l.986.514.878-7.275-.577-.208C18.868 1 15.762.532 12.038.532 6.046.532 0 3.214 0 9.205c0 5.806 5.136 7.048 8.887 7.95 2.694.651 4.328 1.13 4.328 2.303 0 .746-.386 1.436-3.19 1.436-3.718 0-7.028-1.114-8.278-1.592l-.958-.368-.618 7.51.604.173c2.837.828 5.759 1.18 9.766 1.18 3.57 0 6.477-.549 8.634-1.629 2.978-1.49 4.487-3.94 4.487-7.283 0-6.25-5.558-7.455-9.616-8.338" mask="url(#b)"/></g><path fill="#2D889E" d="M37.896 30.894c-1.97 0-3.242-.847-3.242-2.154 0-2.255 2.746-2.727 5.048-2.727.973 0 1.91.047 2.817.092 0 0 .26.014.498.024-.256 2.384-2.163 4.765-5.121 4.765m14.98-.142V21.46c0-3.757-1.371-6.618-4.074-8.507-2.27-1.581-5.488-2.421-9.306-2.421-4.13 0-7.565.562-10.808 1.764l-.52.195.193 5.903.94-.257c2.974-.81 5.335-.972 8.182-.972 2.328 0 5.075.603 5.504 3.332-1.174-.151-2.527-.237-3.697-.237-3.938 0-7.14.556-9.513 1.654-3.285 1.518-4.95 4.025-4.95 7.448 0 2.714 1.135 4.936 3.286 6.434 1.857 1.29 4.47 1.999 7.357 1.999 3.47 0 6.022-1.113 8.1-3.572.017.28.034.556.054.844l.086 1.432.043.72h9.766l-.183-.917c-.32-1.602-.46-3.317-.46-5.551m21.411-20.218c-4.07 0-7.317 1.396-9.33 3.96V11.11h-9.62v26.11H65.78V26.108c0-6.482 2.972-7.232 5.205-7.232 1.73 0 3.71.648 3.71 5.697V37.22H85.14V21.075c0-2.928-.876-5.457-2.535-7.305-1.92-2.147-4.72-3.237-8.318-3.237"/><g transform="translate(86)"><mask id="d" fill="#fff"><use xlink:href="#c"/></mask><path fill="#2D889E" d="M21.062 30.515c-.665.22-1.142.379-2.03.379-2.376 0-3.142-.966-3.142-3.975v-8.62h6.506v-7.19H15.89V0L5.599 2.969v8.142H.128v7.19h5.316v9.578c0 3.47.68 5.722 2.207 7.3 1.71 1.763 4.55 2.618 8.695 2.618 2.199 0 3.892-.21 5.83-.728l.608-.163-.378-6.818-1.344.428z" mask="url(#d)"/></g><path fill="#2D889E" d="M119.872 21.217c.391-2.595 2.01-4.067 4.52-4.067 2.756 0 4.358 1.437 4.558 4.067h-9.078zm7.712-10.427L139.371.36h-13.563l-5.348 10.545c-2.752.536-5.13 1.648-6.98 3.321-2.699 2.438-4.126 5.866-4.126 9.915 0 4.131 1.631 7.616 4.708 10.08 2.887 2.308 6.974 3.575 11.514 3.575 3.698 0 7.04-.529 9.927-1.57l.511-.186v-5.516l-.874.117c-3.97.538-5.52.564-7.914.564-4.07 0-6.48-1.325-7.187-3.947h18.451v-2.157c0-4.151-1.102-7.658-3.186-10.149-1.868-2.234-4.459-3.624-7.72-4.162z"/><path fill="#FAE402" d="M137.341 1.13h-11.062l-4.961 9.786h4.961zM13.883 21.3c-2.588-.561-4.825-1.045-4.825-2.718 0-1.253 1.548-1.915 4.476-1.915 2.496 0 5.226.616 7.07 1.575l.67-5.56c-2.576-.928-5.598-1.377-9.236-1.377-5.61 0-11.267 2.444-11.267 7.9 0 5.199 4.599 6.311 8.297 7.2 2.638.639 4.919 1.189 4.919 3.053 0 1.954-2.118 2.207-3.962 2.207-3.771 0-7.088-1.086-8.555-1.647-.035.464-.457 5.571-.48 5.863 2.755.8 5.623 1.147 9.55 1.147 5.636 0 12.352-1.414 12.352-8.143 0-5.629-4.995-6.716-9.01-7.585m24.014 10.365c-2.4 0-4.012-1.174-4.012-2.926 0-2.255 2.066-3.499 5.818-3.499.995 0 1.945.05 2.864.096l1.25.058.003.185c0 2.926-2.265 6.086-5.923 6.086zm14.21-10.204c0-3.493-1.26-6.14-3.745-7.874-2.14-1.494-5.205-2.282-8.865-2.282-4.038 0-7.391.544-10.54 1.713l.143 4.375c3.033-.824 5.47-.998 8.384-.998 4.039 0 6.289 1.695 6.336 4.774l.003.23-.227-.038c-1.272-.206-2.922-.334-4.305-.334-6.248 0-13.695 1.447-13.695 8.335 0 2.45 1.024 4.456 2.957 5.803 1.73 1.202 4.186 1.862 6.918 1.862 3.754 0 6.253-1.32 8.358-4.42l.057-.083h.398v.193c0 .76.053 1.506.11 2.296l.086 1.441h8.103c-.327-1.648-.476-3.418-.476-5.702v-9.29zm22.181-10.156c-4.52 0-7.94 1.797-9.635 5.069l-.053.104h-.412v-4.601h-8.082v24.577h8.908V26.107c0-5.384 1.953-8.002 5.973-8.002 3.015 0 4.476 2.117 4.476 6.467v11.882h8.91v-15.38c0-2.735-.807-5.083-2.339-6.793-1.77-1.974-4.376-2.976-7.746-2.976m33.01 19.942c-.672.224-1.253.418-2.266.418-3.248 0-3.91-1.897-3.91-4.746v-9.39h6.504v-5.652h-6.505V1.011l-8.755 2.524v8.342h-5.467v5.652h5.315v10.35c0 3.255.616 5.341 1.994 6.764 1.551 1.604 4.211 2.384 8.14 2.384 2.147 0 3.744-.2 5.63-.705-.016-.285-.262-4.759-.285-5.198-.185.056-.395.123-.395.123m22.446-9.259h-10.725l.016-.209c.244-3.378 2.243-5.398 5.356-5.398 3.403 0 5.353 1.974 5.353 5.413v.194zm7.978 3.113c0-3.966-1.042-7.302-3.008-9.656-2.298-2.748-5.787-4.14-10.375-4.14-8.632 0-14.212 5.038-14.212 12.835 0 3.892 1.527 7.168 4.42 9.48 2.747 2.199 6.663 3.408 11.03 3.408 3.615 0 6.864-.514 9.667-1.527v-4.096c-4.006.543-5.599.57-8.016.57-4.776 0-7.572-1.82-8.088-5.265l-.034-.223h18.616v-1.386zM77.689 39.195c-1.121 0-2.03.588-2.03 1.309 0 .725.909 1.307 2.03 1.307 1.12 0 2.03-.582 2.03-1.307 0-.721-.91-1.31-2.03-1.31m-50.261 9.949c-.913 0-1.608-.332-1.608-.891 0-.78 1.043-1.078 2.369-1.078.584 0 1.15.032 1.65.046 0 .954-.933 1.923-2.41 1.923zm6.064-3.27c0-2.485-2.5-3.376-5.39-3.376-1.674 0-3.131.17-4.523.582l.066 1.905c1.088-.44 2.348-.61 3.608-.61 1.413 0 2.566.295 2.587 1.406-.5-.064-1.195-.11-1.826-.11-2.085 0-5.846.299-5.846 2.786 0 1.764 2 2.56 4.239 2.56 1.607 0 2.694-.45 3.584-1.467h.044c0 .42.066.844.087 1.285h3.587c-.173-.645-.218-1.285-.218-1.928v-3.032zm8.376 2.804c-1.172 0-2.217-.725-2.217-1.992 0-1.11.76-2.03 2.217-2.03 1.76 0 2.5 1.015 2.5 1.923 0 1.25-1.108 2.099-2.5 2.099zm2.74-4.521h-.043c-.828-.999-2.175-1.66-3.848-1.66-3.521 0-5.108 1.818-5.108 4.237 0 2.41 1.933 4.101 5.042 4.101 1.566 0 2.87-.441 3.805-1.391h.042v.433c0 1.596-1.216 2.36-3.477 2.36-1.632 0-2.63-.244-3.825-.669l-.197 2.22c.913.236 2.457.514 4.326.514 4.564 0 6.825-1.079 6.825-4.425v-7.191h-3.542v1.471zm10.942 4.987c-.915 0-1.61-.332-1.61-.891 0-.78 1.044-1.078 2.369-1.078.588 0 1.154.032 1.653.046 0 .954-.935 1.923-2.412 1.923zm6.063-3.27c0-2.485-2.5-3.376-5.391-3.376-1.672 0-3.13.17-4.52.582l.065 1.905c1.086-.44 2.348-.61 3.61-.61 1.41 0 2.563.295 2.585 1.406-.5-.064-1.196-.11-1.826-.11-2.087 0-5.848.299-5.848 2.786 0 1.764 2 2.56 4.24 2.56 1.608 0 2.695-.45 3.587-1.467h.043c0 .42.065.844.087 1.285h3.586c-.174-.645-.218-1.285-.218-1.928v-3.032zm11.658-.937v-2.251H63.73v2.063h5.063l-5.171 3.836v2.25h9.738v-2.065h-5.262zm17.189-2.44c-1.78 0-3.346.52-4.13 1.692h-.043v-1.504h-3.564v8.15h3.913v-3.44c0-1.756.824-2.552 2.434-2.552 1.065 0 1.804.52 1.804 2.048v3.944h3.912V45.75c0-1.686-1.238-3.253-4.326-3.253m10.29 3.488c.087-.938.762-1.702 2.174-1.702 1.565 0 2.173.764 2.173 1.702h-4.348zm7.868 1.08c0-2.427-1.519-4.568-5.716-4.568-3.52 0-6.065 1.567-6.065 4.252 0 2.694 2.85 4.268 6.586 4.268 1.458 0 2.891-.15 4.153-.514V48.52c-1.174.449-2.39.623-3.457.623-1.91 0-3.105-.434-3.326-1.56h7.825v-.518z"/><mask id="f" fill="#fff"><use xlink:href="#e"/></mask><path fill="#FAE402" d="M75.759 50.834h3.911v-8.149h-3.911zm-59.643-8.338c-1.61 0-3.109.473-4.021 1.567-.61-1.065-1.937-1.567-3.544-1.567-1.78 0-3.346.52-4.129 1.692h-.043v-1.504H.815v8.15h3.91v-3.44c0-1.756.827-2.552 2.218-2.552 1.109 0 1.564.686 1.564 1.613v4.38h3.913v-3.442c0-1.755.827-2.55 2.217-2.55 1.109 0 1.564.685 1.564 1.612v4.38h3.914v-4.803c0-2.205-.738-3.536-3.999-3.536" mask="url(#f)"/></g></svg>