<?xml version="1.0" encoding="UTF-8"?> <svg xmlns="http://www.w3.org/2000/svg" xmlns:xlink="http://www.w3.org/1999/xlink" version="1.1" id="Calque_1" x="0px" y="0px" viewBox="0 0 2000 823.9" style="enable-background:new 0 0 2000 823.9;" xml:space="preserve"> <style type="text/css"> .st0{fill:#F70025;} </style> <g id="_x36_0GGpM.tif"> <g> <path d="M307.4,69.5c-0.2,9.5-0.4,18.9-0.5,28.4c-0.1,7.5,0,14.9,0,22.9c-30.2,0-60,0-90.2,0c0,207.2,0,413.9,0,621 c-20.3,0-40,0-60.5,0c0-206.6,0-413.3,0-620.7c-30.6,0-60.4,0-90.7,0c0-17.6,0-34.6,0-51.5C146.1,69.5,226.7,69.5,307.4,69.5z"></path> <path d="M567.2,69.5c0,224,0,447.9,0,672.2c-20.3,0-40.4,0-60.8,0c0-2.7,0-5,0-7.3c0-219.3,0-438.6,0-657.9c0-2.3-0.1-4.7-0.2-7 C526.6,69.5,546.9,69.5,567.2,69.5z"></path> <path class="st0" d="M1934.5,286.1c-19.7,0-39.5,0-59.8,0c0-2.3,0-4.3,0-6.2c0-68,0-136,0-204c0-2.2-0.1-4.3-0.1-6.5 c20,0,39.9,0,60,0C1934.5,141.7,1934.5,213.9,1934.5,286.1z"></path> <path d="M437.3,69.5c-4.9,11.2-9.8,22.5-14.8,33.6c-12.4,27.5-25,55-37.4,82.6c-1.5,3.3-3.2,4.6-7,4.6 c-13.6-0.3-27.3-0.1-41.6-0.1c2.2-9.2,4.3-18,6.4-26.7c7.4-30.5,14.8-61,22.2-91.5c0.2-0.8,0.2-1.6,0.3-2.5 C389.3,69.5,413.3,69.5,437.3,69.5z"></path> <path d="M788.1,69.5c-4.9,11.2-9.8,22.5-14.8,33.6c-12.4,27.5-25,55-37.4,82.6c-1.5,3.3-3.2,4.6-7,4.6 c-13.6-0.3-27.3-0.1-41.6-0.1c2.2-9.2,4.3-18,6.4-26.7c7.4-30.5,14.8-61,22.2-91.5c0.2-0.8,0.2-1.6,0.3-2.5 C740.1,69.5,764.1,69.5,788.1,69.5z"></path> <path d="M1310.7,741.7c-20.1,0-39.6,0-59.4,0c0-166.7,0-333.1,0-499.9c19.6,0,39.1,0,59.1,0c0,13.9,0,27.8,0,41.7 c0.3,0.1,0.7,0.2,1,0.3c1.1-2.4,2.2-4.7,3.3-7.1c9.3-19.6,23.5-33.8,45.3-38.8c14.5-3.4,29.1-3.1,43.5,0.8 c19.7,5.4,31.2,19.4,38.2,37.7c1.3,3.4,2.4,6.9,3.8,11.4c1.2-2.2,2.1-3.8,2.8-5.4c10.5-22.9,26.8-39,52.2-44.6 c13.3-2.9,26.8-3.1,40.2-0.2c20.2,4.4,33.9,16.8,42.1,35.6c8.2,18.8,11,38.7,11,58.9c0.3,135.1,0.3,270.2,0.4,405.4 c0,1.3-0.2,2.6-0.3,4.2c-19.5,0-38.7,0-58.3,0c0-2.4,0-4.5,0-6.7c0-130.6,0-261.3-0.1-391.9c0-12.3-0.6-24.6-4.8-36.4 c-4.2-11.8-12.5-18.4-25.1-19.6c-27.4-2.7-45.1,10.2-50.6,37.4c-1.5,7.4-2.3,15.2-2.3,22.8c-0.1,129.1-0.1,258.3-0.1,387.4 c0,2.2,0,4.3,0,6.9c-19.9,0-39.6,0-59.8,0c0-2.2,0-4.3,0-6.4c0-130.6,0.1-261.3-0.2-391.9c0-11.7-1.6-23.6-4.2-35 c-2.9-12.7-11.9-19.9-25.3-21.2c-27.5-2.7-45,10.4-50.2,38.3c-1.6,8.5-2.2,17.2-2.3,25.8c-0.1,128-0.1,255.9-0.1,383.9 C1310.7,737.1,1310.7,739.2,1310.7,741.7z"></path> <path d="M465.2,499.1c-49.5,0-98.4,0-147.6,0c-0.2,1.3-0.4,2.2-0.4,3.1c0,45.3-0.1,90.5,0.2,135.8c0.1,12.5,2,24.9,7,36.5 c7.3,17.2,20.4,24.8,41.2,24.2c18.2-0.6,30-8.9,35.5-26.6c2.7-8.8,4.4-18.1,4.9-27.3c0.9-16.6,0.5-33.2,0.7-49.9c0-2,0-3.9,0-6 c19.7,0,38.8,0,57.9,0c0.3,0.4,0.6,0.7,0.6,1c0,30.1,2,60.3-5,89.9c-5.3,22.2-14.9,41.6-35.1,54.2c-13,8.1-27.5,11.7-42.6,12.9 c-20,1.5-39.9,1.8-59.3-4.7c-32.6-10.9-51.1-34.5-59.9-66.7c-4.3-15.7-6-31.7-6-47.9c-0.1-90.2-0.1-180.4,0-270.5 c0-20.4,2.6-40.5,9.9-59.7c14.2-37.4,42-57,81.3-61c15.3-1.6,30.6-0.9,45.7,2.3c33.8,7.2,54.3,28.3,64,60.9 c5,17,7.1,34.5,7.1,52.2c0.1,47.8,0,95.5,0,143.3C465.4,496.2,465.3,497.3,465.2,499.1z M404.5,451.7c0.1-1.7,0.3-3,0.3-4.3 c0-33.1,0.2-66.2-0.1-99.3c-0.1-9.1-1-18.3-2.5-27.3c-4-24.4-14.7-34.6-37.1-36.1c-20.3-1.3-35.4,7.5-41.5,26.4 c-3.6,11.2-5.7,23.4-6,35.1c-0.8,33.9-0.4,67.9-0.4,101.8c0,1.1,0.1,2.2,0.2,3.6C346.5,451.7,375.2,451.7,404.5,451.7z"></path> <path d="M816.3,588.9c-0.3,31,1.9,61.6-5.3,91.7c-9.3,38.9-31.6,59.9-71.5,65.5c-19.5,2.7-39.2,2.9-58.5-2.1 c-36.2-9.2-57-33.5-66.7-68.5c-4.3-15.6-6-31.7-6-47.9c-0.1-90.3-0.1-180.7,0-271c0-20.2,2.6-40.1,9.8-59.2 c14.2-37.4,41.9-57.1,81.2-61.1c15.3-1.6,30.6-0.9,45.7,2.3c33.8,7.2,54.4,28.3,64,60.8c5.1,17.2,7.1,34.8,7.2,52.7 c0.1,47.4,0,94.8,0,142.3c0,1.3-0.1,2.6-0.2,4.4c-49.2,0-98.3,0-147.6,0c-0.2,1.6-0.5,2.7-0.5,3.8c0,44.9-0.2,89.8,0.4,134.8 c0.1,10.2,1.9,20.6,4.6,30.4c7.1,25.5,24.8,33.3,49.3,30.3c15.6-1.9,24.9-11.5,29.8-25.9c4.3-12.8,5.2-26,5.4-39.3 c0.2-12.8,0-25.6,0-38.4c0-1.8,0-3.6,0-5.6C777.3,588.9,796.4,588.9,816.3,588.9z M755.7,451.7c0.1-1.5,0.3-2.8,0.3-4.1 c0-28.9,0.4-57.9-0.2-86.8c-0.3-14.9-1.3-29.9-3.9-44.6c-3.7-21.2-15-30.2-36.2-31.5c-21.1-1.2-36.4,8.7-42.2,29 c-3,10.6-4.9,21.8-5.1,32.8c-0.7,33.9-0.3,67.9-0.4,101.8c0,1.1,0.2,2.2,0.4,3.3C697.6,451.7,726.5,451.7,755.7,451.7z"></path> <path d="M1772.6,741.6c0-11.5,0-22.6,0-33.7c-0.2-0.1-0.5-0.2-0.7-0.3c-1.3,2.6-2.6,5.1-3.9,7.7c-11.2,21.4-29.4,31.5-53,32.1 c-8.8,0.2-17.7,0.1-26.3-1.4c-24.5-4.3-40.1-19.5-48.8-42.2c-7.2-18.7-9.6-38.4-9.8-58.2c-0.3-31.1-0.1-62.2,0.9-93.3 c0.5-16.9,4.6-33.2,12.4-48.4c12.7-24.7,33.9-37.8,60.5-42.6c11.2-2.1,22.8-2.7,34.2-3.3c11.3-0.5,22.6-0.1,34.4-0.1 c0.1-1.9,0.3-3.5,0.3-5.1c0-36.8,0.2-73.5-0.3-110.3c-0.1-10.2-1.6-20.6-3.9-30.6c-4-17-14.8-24.8-32.5-25.1 c-19-0.4-30.7,6.7-34.8,23.9c-3.1,12.6-3.8,25.9-4.7,38.9c-0.7,10.7-0.1,21.5-0.1,32.7c-19.7,0-39,0-59.3,0 c0.8-19.7,0.7-39.2,2.7-58.4c1.2-11.9,4.3-23.9,8.4-35.2c9.7-26.7,28.8-43.4,56.7-49.6c22.8-5.1,45.7-4.7,68.2,1.7 c29.9,8.5,46.9,29.6,53.5,58.8c3.4,15,5.6,30.6,5.6,45.9c0.4,130.5,0.2,260.9,0.2,391.4c0,1.5,0,3,0,4.9 C1812.2,741.6,1792.7,741.6,1772.6,741.6z M1772.6,501.7c-13.7,0-26.9-0.8-39.9,0.2c-17.2,1.4-29.2,10.9-36,26.9 c-4.9,11.7-6.8,24-7,36.5c-0.3,24.3-0.6,48.6-0.1,72.9c0.3,12.5,1.7,25.2,4.2,37.5c2.9,14.5,11.9,24,27.4,25.6 c4.3,0.4,8.7,0.5,13,0.1c14-1.3,24.4-7.9,30.6-20.8c5.5-11.5,7.4-23.9,7.5-36.3c0.3-42.4,0.2-84.9,0.3-127.3 C1772.6,511.9,1772.6,506.7,1772.6,501.7z"></path> <path d="M1150.4,457.7c0-2.7,0-4.7,0-6.6c0-32,0.4-63.9-0.2-95.9c-0.2-13.9-1.4-27.9-3.7-41.6c-2.1-12.6-8.9-22.8-22.7-25.6 c-14-2.8-27.9-2.9-38.3,9c-7.9,9.1-9.9,20.7-10.5,32.2c-0.9,15.8-0.8,31.6-1.1,47.4c0,1.8,0,3.6,0,5.7c-19.7,0-38.9,0-58.8,0 c0-11-0.2-21.8,0-32.5c0.4-18.3,2.1-36.5,7.6-54.1c11-35.5,37.8-56.8,75.1-59.3c15.5-1.1,30.9-0.8,46.2,2.6 c30.7,6.8,49.8,25.8,58.8,55.6c5,16.7,7,33.9,7,51.2c0.1,130.3,0.1,260.6,0.1,390.9c0,1.6,0,3.2,0,5.1c-19.9,0-39.3,0-59.4,0 c0-11.2,0-22.2,0-33.2c-0.4-0.1-0.7-0.1-1.1-0.2c-1.8,3.3-3.4,6.6-5.3,9.8c-11.3,19.5-28.8,28.6-50.7,29.2 c-10.2,0.3-20.8-0.1-30.7-2.2c-22.5-4.8-36.7-19.7-44.8-40.8c-7.1-18.6-9.7-38-9.9-57.7c-0.3-29.3-0.6-58.6,0.3-87.8 c0.4-12.8,2.7-25.9,6.2-38.2c9.6-34,33.2-53.2,67.4-59.5c11.1-2,22.4-2.6,33.7-3.2C1126.9,457.3,1138.2,457.7,1150.4,457.7z M1150.4,501.6c-13.4,0-26.4-0.8-39.2,0.2c-19.2,1.5-32,12.4-38,30.5c-2.7,8.1-4.8,16.8-5.1,25.3c-0.9,27.6-1.3,55.2-0.8,82.8 c0.2,12.5,2.3,25.1,4.9,37.4c1.9,9.4,7.3,17.5,16.9,20.8c19.7,6.9,48.7,4.5,56.6-26.6c3.1-12.4,4.3-25.6,4.5-38.4 c0.5-42.1,0.2-84.2,0.2-126.3C1150.4,505.4,1150.4,503.4,1150.4,501.6z"></path> <path d="M857.5,241.7c19.9,0,39.5,0,59.6,0c0,15.9,0,31.6,0,47.2c15.7-36.9,45.3-49.9,83.1-50.2c0,18.4,0,36.7,0,55.2 c-8.7,1.1-17.4,1.9-26,3.4c-6.7,1.2-13.3,3-19.7,5.3c-21.9,8-33.5,24.2-36.3,47c-0.8,5.9-1,11.9-1,17.9 c-0.1,122.5,0,244.9,0,367.4c0,2.2,0,4.3,0,6.8c-20,0-39.7,0-59.6,0C857.5,575,857.5,408.6,857.5,241.7z"></path> </g> </g> </svg> 