<svg version="1.1" id="Layer_1" xmlns="http://www.w3.org/2000/svg" xmlns:xlink="http://www.w3.org/1999/xlink" x="0px" y="0px"
	 width="100%" viewBox="0 0 1024 1024" enable-background="new 0 0 1024 1024" xml:space="preserve">
<path fill="#000000" opacity="1.000000" stroke="none" 
	d="
M442.242157,755.381531 
	C411.373810,763.307861 380.903412,771.131104 350.454865,779.038452 
	C344.320221,780.631592 338.320740,780.383057 332.193848,778.968018 
	C290.050110,769.234192 247.887619,759.581604 205.728333,749.915283 
	C196.808670,747.870239 187.849365,745.990723 178.960419,743.821472 
	C172.232864,742.179626 170.689896,740.121399 170.679871,733.376404 
	C170.644409,709.546387 170.713074,685.716125 170.617386,661.886414 
	C170.599182,657.355042 171.949371,653.785889 175.747620,651.172913 
	C180.558044,647.863525 183.735428,643.196106 186.201843,638.017822 
	C201.745132,605.384460 217.225281,572.720825 232.854156,540.128540 
	C234.391235,536.923157 234.460098,534.452759 232.446930,531.409241 
	C221.235580,514.460022 210.175049,497.410583 199.150253,480.339050 
	C197.752518,478.174683 195.849152,477.171692 193.543427,476.557404 
	C188.235443,475.143280 182.950317,473.636078 177.615326,472.332764 
	C172.828262,471.163300 170.675064,468.147736 170.675919,463.349609 
	C170.680252,439.019653 170.689545,414.689667 170.657089,390.359772 
	C170.650299,385.275940 173.099899,382.361237 177.965866,381.069672 
	C199.360199,375.390900 220.735672,369.641022 242.113373,363.899780 
	C263.968628,358.030334 285.812744,352.119415 307.672241,346.265930 
	C333.232971,339.421387 358.805206,332.619904 384.372223,325.798859 
	C414.429382,317.779877 444.489777,309.773193 474.542389,301.737274 
	C514.404846,291.078247 554.264893,280.410400 594.118591,269.718750 
	C620.311401,262.691864 646.532837,255.765518 672.651672,248.472366 
	C680.613831,246.249115 688.113708,246.164978 696.139282,248.363495 
	C737.228760,259.619446 778.415527,270.520020 819.567383,281.548096 
	C829.049561,284.089142 838.524353,286.657806 848.010132,289.185150 
	C853.060730,290.530762 855.397583,293.701508 855.379883,298.995483 
	C855.299011,323.158539 855.363159,347.322083 855.332581,371.485352 
	C855.324829,377.567993 853.848328,379.329437 847.862976,380.871948 
	C839.982971,382.902740 839.990662,382.902740 839.989258,390.766174 
	C839.980591,439.425751 839.961792,488.085297 839.972107,536.744873 
	C839.972717,539.741394 840.118042,542.743225 840.327698,545.733337 
	C840.700623,551.049377 842.407166,555.289978 848.153015,557.212708 
	C853.333191,558.946106 855.390869,563.064819 855.372559,568.531250 
	C855.291016,592.860901 855.359985,617.191101 855.333313,641.521057 
	C855.326111,648.093750 853.771301,650.175598 847.492798,651.793396 
	C822.674988,658.188416 797.839417,664.514648 773.011597,670.870911 
	C729.970276,681.890137 686.929382,692.910828 643.889160,703.934448 
	C609.061584,712.854553 574.241028,721.802368 539.406616,730.696045 
	C507.161011,738.928833 474.901306,747.106262 442.242157,755.381531 
M406.913666,339.530762 
	C384.561493,345.495850 362.223938,351.516815 339.842316,357.369293 
	C336.243469,358.310303 335.158447,360.183655 335.222260,363.758789 
	C335.409668,374.254669 335.146606,384.758545 335.326691,395.254669 
	C335.423096,400.872498 334.327850,406.195892 332.330811,411.339294 
	C328.775360,420.496307 325.038910,429.583252 321.347412,438.687042 
	C320.816925,439.995300 320.677887,441.722626 318.393616,441.836212 
	C315.196747,438.085663 313.697357,433.224365 311.154449,428.975250 
	C305.529114,419.575470 302.786560,409.560211 303.510986,398.478851 
	C304.010040,390.844879 303.669464,383.152161 303.593903,375.486786 
	C303.569885,373.051575 304.078979,370.515411 302.751556,367.932678 
	C295.437164,368.785126 288.553375,371.303162 281.525055,373.164124 
	C252.241318,380.917664 222.978348,388.749603 193.704132,396.539185 
	C191.096802,397.232971 189.262299,398.235687 189.290466,401.533844 
	C189.419968,416.698425 189.359634,431.864716 189.338684,447.030365 
	C189.335831,449.095917 189.801971,450.561249 192.238998,450.831757 
	C200.795944,451.781616 206.538620,457.258179 210.933151,463.841736 
	C225.636612,485.869476 239.948212,508.158539 254.468933,530.308838 
	C255.958786,532.581482 256.511780,534.566833 255.243851,537.228333 
	C237.837448,573.765808 220.565491,610.367310 203.130966,646.891296 
	C200.403778,652.604553 197.007751,658.033630 192.281006,662.364746 
	C189.952499,664.498352 189.267441,666.854797 189.289093,669.878845 
	C189.390518,684.043884 189.311600,698.210205 189.360016,712.375793 
	C189.365402,713.949585 188.776962,715.725708 190.446915,717.248840 
	C191.116486,717.157288 191.938492,717.132202 192.712357,716.926270 
	C222.469345,709.009277 252.213028,701.041870 281.988373,693.194580 
	C285.099640,692.374573 285.722626,690.585938 285.703583,687.746155 
	C285.615356,674.580872 285.661804,661.414673 285.670715,648.248840 
	C285.673950,643.425110 285.606293,638.633118 286.732361,633.847778 
	C289.661072,621.401489 295.843170,610.280762 300.758362,598.644897 
	C300.964203,598.157654 301.715973,597.901001 302.764740,597.133362 
	C306.081970,604.026855 309.337250,610.547058 312.369202,617.169556 
	C314.792969,622.463684 316.933563,627.818115 317.433533,633.792053 
	C318.603943,647.777527 317.771790,661.769165 317.996368,675.754700 
	C318.033081,678.039429 317.480804,680.408569 318.648102,682.589417 
	C320.601074,683.233276 322.277100,682.392639 324.024689,681.917969 
	C335.270844,678.863708 346.525574,675.841125 357.780762,672.820190 
	C381.566467,666.436035 405.352478,660.053040 429.143463,653.688599 
	C431.643982,653.019653 433.834137,652.440674 433.808807,648.984375 
	C433.695404,633.486328 433.770996,617.986938 433.777100,602.488037 
	C433.777771,600.768188 433.584198,599.231750 431.736603,598.315247 
	C426.092255,595.515137 422.762360,590.448669 419.623383,585.334290 
	C403.503357,559.069397 387.518005,532.721741 371.344421,506.490021 
	C369.463226,503.438995 369.308624,501.040558 370.915253,497.803741 
	C384.835815,469.758759 398.466827,441.569733 412.447693,413.555145 
	C417.358459,403.715027 422.866943,394.116119 431.616882,387.007019 
	C433.806702,385.227844 433.774139,383.065002 433.774719,380.734344 
	C433.778259,366.401917 433.800110,352.069427 433.748505,337.737213 
	C433.742828,336.166046 434.315613,334.384033 432.457947,332.711273 
	C424.361633,334.880402 416.035797,337.111053 406.913666,339.530762 
M638.226318,471.231049 
	C631.883972,460.859985 625.647827,450.421417 619.133240,440.159698 
	C617.225220,437.154236 616.958862,434.760651 618.594910,431.481384 
	C632.721008,403.166595 646.506104,374.680847 660.756104,346.429230 
	C665.611206,336.803589 670.677979,327.089203 679.772583,320.464081 
	C681.670349,319.081635 681.682312,317.112640 681.681030,315.082672 
	C681.671814,300.252808 681.686157,285.422943 681.655884,270.593140 
	C681.653320,269.320496 682.036743,267.889343 680.782410,266.873962 
	C679.592102,266.210571 678.508301,266.882355 677.417236,267.173370 
	C647.352783,275.192963 617.304626,283.274597 587.210754,291.182220 
	C584.141846,291.988647 583.207947,293.456818 583.234741,296.395630 
	C583.324463,306.225769 583.037781,316.063354 583.312683,325.886444 
	C583.537231,333.909729 581.700623,341.400330 578.769348,348.726135 
	C575.553345,356.763519 572.325439,364.796539 569.018494,372.796631 
	C568.507935,374.031799 568.617737,375.947876 566.011292,376.016907 
	C563.444397,371.233887 560.721069,366.306305 558.135376,361.307587 
	C554.048035,353.405853 550.867981,345.257050 550.976074,336.118530 
	C551.088440,326.622284 551.006714,317.123016 550.922180,307.625854 
	C550.905151,305.712830 551.497986,303.614929 549.620178,301.577606 
	C547.899536,301.971680 545.973694,302.354401 544.079407,302.856079 
	C532.174133,306.008789 520.275696,309.187286 508.375366,312.358551 
	C487.150452,318.014740 465.929321,323.685303 444.696655,329.312347 
	C441.899750,330.053589 439.886780,331.083496 439.918762,334.579590 
	C440.055939,349.574829 440.044250,364.571716 440.016205,379.567841 
	C440.011444,382.116394 440.891632,383.501282 443.523041,384.088806 
	C449.413483,385.403961 453.487518,389.371582 456.660553,394.200195 
	C471.934998,417.444611 487.078217,440.775330 502.373596,464.005859 
	C504.041260,466.538666 504.236115,468.603149 502.921143,471.357239 
	C489.289612,499.906982 475.879242,528.562805 462.174835,557.077271 
	C456.127991,569.658875 451.114471,582.837769 442.462280,594.011841 
	C440.698944,596.289124 439.938904,598.499207 439.951263,601.293945 
	C440.015381,615.790100 439.959900,630.286743 439.978760,644.783203 
	C439.980896,646.413757 439.667358,648.127258 440.726837,649.653442 
	C442.582458,650.352112 444.318298,649.614075 446.054962,649.150208 
	C473.699127,641.766968 501.322937,634.306274 529.000916,627.052124 
	C532.401062,626.161011 533.038147,624.274841 533.065613,621.313354 
	C533.181519,608.822388 533.868652,596.315857 533.435181,583.846680 
	C533.018066,571.846313 535.799927,560.756592 540.495605,549.961731 
	C543.305603,543.501770 546.267212,537.107666 549.160645,530.683960 
	C549.639099,530.667664 550.117493,530.651306 550.595947,530.635010 
	C554.154358,538.071960 557.731079,545.500244 561.265686,552.948608 
	C564.395813,559.544678 565.550537,566.481750 565.416626,573.796631 
	C565.190918,586.122864 565.330566,598.456360 565.378784,610.786560 
	C565.385681,612.555359 564.855347,614.461121 566.197998,616.141785 
	C568.397827,616.929688 570.419800,615.810974 572.441772,615.287659 
	C580.657410,613.161194 588.829041,610.865723 597.027222,608.670898 
	C623.872314,601.483704 650.713257,594.280640 677.582458,587.184631 
	C680.421387,586.434814 681.773315,585.262573 681.748108,582.117737 
	C681.624146,566.622314 681.672852,551.125366 681.712891,535.629089 
	C681.718445,533.458740 681.190491,531.918274 679.111206,530.733154 
	C674.392029,528.043274 670.731567,524.111633 667.895813,519.537659 
	C658.066833,503.683716 648.357361,487.755737 638.226318,471.231049 
M729.497803,277.172363 
	C715.880127,273.541962 702.262512,269.911560 688.841003,266.333466 
	C688.307068,267.153442 687.974548,267.425903 687.974121,267.698853 
	C687.950562,283.853577 687.962097,300.008362 687.946899,316.163116 
	C687.944763,318.401520 689.033752,319.814697 690.859436,321.016663 
	C696.414795,324.674133 699.519287,330.089050 701.391174,336.311981 
	C703.772888,344.230011 703.877808,352.427887 703.917603,360.558441 
	C704.076477,393.045685 704.135681,425.534515 703.986633,458.021667 
	C703.897217,477.502625 704.784912,496.997772 703.329590,516.465637 
	C702.764404,524.025757 699.189392,529.153381 691.992371,531.166077 
	C688.001709,532.282104 687.489929,534.287720 687.573792,538.029541 
	C687.883240,551.847290 688.051208,565.687195 687.564758,579.493835 
	C687.389099,584.479004 688.592590,586.527344 693.440430,587.803772 
	C732.055115,597.970642 770.597473,608.411682 809.173401,618.726257 
	C817.964111,621.076660 826.798828,623.262634 835.149658,625.405396 
	C836.562927,624.612305 836.619934,623.755249 836.620972,622.927368 
	C836.641418,607.266785 836.615295,591.606018 836.689087,575.945740 
	C836.700317,573.562988 835.421753,572.304138 833.628540,571.230652 
	C829.301575,568.640442 826.517639,564.761719 824.589783,560.217773 
	C821.537292,553.023254 820.871277,545.395264 820.865845,537.710938 
	C820.830444,487.396301 820.831421,437.081665 820.902466,386.767120 
	C820.909058,382.119263 821.229858,377.436890 821.861694,372.833252 
	C822.763000,366.266571 825.801086,361.058014 832.837952,359.577393 
	C836.319092,358.844910 836.740662,356.769135 836.721008,353.793579 
	C836.629517,339.966003 836.462280,326.132172 836.798218,312.312134 
	C836.917297,307.414276 835.368591,305.432098 830.591675,304.181061 
	C797.113586,295.413635 763.719788,286.323975 729.497803,277.172363 
M349.309326,740.806885 
	C350.679901,740.376587 352.325958,740.478394 353.129333,738.866516 
	C352.606903,736.457092 350.849396,734.834045 349.477783,732.998108 
	C344.694183,726.595093 344.661438,726.603943 349.377197,720.242798 
	C350.891785,718.199768 351.894073,715.924194 352.419891,713.469238 
	C354.735687,702.656982 348.255798,695.513245 337.501251,697.420593 
	C331.798920,698.431885 326.252289,700.315796 320.629639,701.783936 
	C317.777863,702.528503 317.352753,704.607483 317.368073,707.160583 
	C317.437897,718.801697 317.346161,730.444092 317.461670,742.084473 
	C317.529266,748.900208 319.082306,749.807556 325.248901,747.316650 
	C327.251221,746.507812 328.040192,745.187134 328.093536,743.143127 
	C328.175812,739.989197 328.378510,736.838562 328.474274,733.684814 
	C328.522552,732.093689 328.773010,730.719849 330.545074,730.127319 
	C332.328278,729.531128 333.770935,729.802246 334.925903,731.399353 
	C336.581879,733.689209 338.559265,735.786682 339.940491,738.226074 
	C342.076233,741.998108 344.865143,742.755127 349.309326,740.806885 
M648.306702,643.497192 
	C648.306702,649.030701 648.306702,654.564148 648.306702,660.198669 
	C658.655090,658.825684 658.734131,658.737549 658.744812,649.773926 
	C658.746399,648.442871 658.778015,647.111755 658.768250,645.780823 
	C658.753601,643.791260 659.232483,642.251282 661.479492,641.625732 
	C663.610229,641.032593 665.021790,641.819092 666.196106,643.437561 
	C667.368103,645.052734 668.514709,646.686401 669.680542,648.306152 
	C674.265625,654.676086 676.871643,654.998535 683.518494,649.782043 
	C681.849121,646.394592 679.386719,643.488525 677.000061,640.551636 
	C675.127625,638.247498 674.798279,636.512024 677.495544,634.323425 
	C680.641174,631.771057 682.492493,628.169922 683.308899,624.110596 
	C685.384094,613.792358 678.119629,606.600464 667.927979,609.001343 
	C662.751831,610.220642 657.653015,611.778625 652.459900,612.911255 
	C649.216919,613.618591 648.207031,615.375671 648.264771,618.538574 
	C648.410461,626.522766 648.309387,634.511475 648.306702,643.497192 
M446.237640,708.233582 
	C455.277618,718.005920 477.052704,708.904358 479.657135,694.289612 
	C481.484192,684.037109 480.441284,673.703430 480.433624,663.401672 
	C480.432800,662.295349 480.221466,661.058167 479.221191,660.231750 
	C471.041443,660.362488 470.128265,661.225891 470.133850,668.797607 
	C470.138367,674.958801 470.200317,681.120972 470.110657,687.280884 
	C470.059631,690.785278 469.708679,694.299622 467.674744,697.321838 
	C465.427399,700.661072 462.210358,702.167236 458.228760,701.504944 
	C454.210815,700.836731 453.679291,697.619629 453.469452,694.324036 
	C453.300537,691.671143 453.103058,689.015076 453.079742,686.359009 
	C453.023407,679.937744 453.061493,673.515747 453.061493,667.056824 
	C443.010895,667.929138 442.407623,668.544739 442.405457,677.342773 
	C442.403992,683.337463 442.327057,689.333374 442.423492,695.326416 
	C442.493774,699.692383 443.216125,703.938782 446.237640,708.233582 
M504.658569,662.049988 
	C507.549469,661.265503 510.457306,660.538147 513.327698,659.684692 
	C519.391296,657.882019 520.040344,656.464417 517.857178,649.496399 
	C509.533966,650.720154 501.612579,653.831665 493.364929,655.503357 
	C489.680328,656.250244 488.117340,658.007629 488.209625,661.957886 
	C488.442932,671.944397 488.241791,681.940369 488.276978,691.932312 
	C488.320557,704.307373 486.817474,704.213379 499.771881,700.645020 
	C505.065033,699.186951 510.355804,697.718689 515.630127,696.194336 
	C519.999634,694.931519 519.223755,691.292786 518.625305,688.358582 
	C517.921082,684.905823 515.240906,686.865051 513.365234,687.290710 
	C509.797516,688.100403 506.274536,689.105713 502.727081,690.006348 
	C500.260254,690.632568 498.976807,689.765991 498.741150,687.110413 
	C498.442780,683.747742 498.997101,681.212830 502.933746,680.487549 
	C505.871399,679.946289 508.762207,679.106873 511.635132,678.267517 
	C518.303101,676.319458 518.970398,674.804260 516.118164,668.182007 
	C510.400482,668.250305 505.197205,671.805420 499.260559,671.325134 
	C498.009521,666.632141 498.291107,663.075256 504.658569,662.049988 
M360.205597,708.502441 
	C360.205597,718.036194 360.205597,727.569946 360.205597,737.365784 
	C361.925446,737.176147 362.584534,737.181335 363.201904,737.023499 
	C370.447784,735.171204 377.708008,733.369873 384.922516,731.401428 
	C391.276917,729.667603 392.211212,727.480164 389.578613,720.576050 
	C386.598267,721.324341 383.592804,722.234802 380.524109,722.805237 
	C377.512390,723.365051 374.671448,725.170837 371.482208,724.428101 
	C369.658478,716.895447 370.061371,716.166321 376.827362,714.369263 
	C379.876404,713.559387 382.951019,712.830872 385.963074,711.900452 
	C390.091400,710.625061 389.129486,707.097473 388.600647,704.379822 
	C387.919922,700.881714 385.258453,702.943298 383.376251,703.293335 
	C379.377289,704.036926 375.593475,705.957336 371.428497,705.733276 
	C369.907501,698.845154 370.027863,698.559875 376.236176,696.623047 
	C378.929077,695.782898 381.688080,695.154358 384.417908,694.432983 
	C391.183105,692.644958 391.812622,691.493774 389.892609,683.401306 
	C380.782806,685.802734 371.673431,688.181213 362.579498,690.617310 
	C360.323059,691.221863 360.213501,693.121033 360.215820,695.026001 
	C360.220886,699.185303 360.207062,703.344604 360.205597,708.502441 
M423.650574,684.032288 
	C421.263977,691.345947 418.877380,698.659607 416.416779,706.200073 
	C413.714966,704.507996 413.587921,702.348694 412.942627,700.536560 
	C411.043396,695.203125 409.336792,689.801392 407.479462,684.452576 
	C405.829651,679.701294 399.757568,678.403076 396.298187,681.987976 
	C395.466278,682.850037 395.561981,683.754028 395.924194,684.743164 
	C400.445038,697.089722 404.948456,709.442688 409.503479,721.776611 
	C409.961975,723.018188 410.614868,724.027527 412.383759,723.987854 
	C417.182129,723.880005 421.288361,721.066833 422.856262,716.382629 
	C426.872437,704.384338 430.892517,692.386841 434.801239,680.353394 
	C435.702362,677.579163 437.261230,674.893982 436.791595,671.783325 
	C429.884857,671.303284 427.258514,672.982178 425.320648,679.015808 
	C424.862305,680.442871 424.401886,681.869202 423.650574,684.032288 
M557.386475,645.350037 
	C555.234314,641.773743 551.876282,640.790283 547.971130,640.942322 
	C539.724792,641.263184 533.705200,645.049927 530.229797,652.563965 
	C529.264832,654.650391 527.387939,656.782471 529.067444,659.359070 
	C536.142883,658.610352 536.480835,658.399963 540.438843,653.577026 
	C542.022583,651.647217 544.038696,650.364441 546.531982,651.720581 
	C548.905945,653.011719 548.577332,655.408447 548.032104,657.506775 
	C547.310242,660.284851 545.531189,662.559570 543.819458,664.816772 
	C539.292847,670.785828 534.795044,676.778015 530.175964,682.674988 
	C527.910645,685.566956 527.406799,688.545898 528.880127,692.308960 
	C537.262878,691.301880 545.018066,688.165894 553.071533,686.343811 
	C560.143921,684.743652 560.936462,682.702454 557.895325,675.947266 
	C553.630737,675.446533 549.877808,679.006104 545.055664,677.527161 
	C547.609985,672.451660 551.134216,668.474243 554.244812,664.229431 
	C558.294739,658.702759 560.496338,652.865479 557.386475,645.350037 
M611.348999,638.510986 
	C611.348999,648.948059 611.348999,659.385132 611.348999,669.830750 
	C621.043457,669.525635 621.900024,668.705322 621.935608,660.320862 
	C621.942688,658.655884 622.064575,656.984619 621.958862,655.327332 
	C621.755798,652.141724 623.095337,650.425293 626.283325,649.741211 
	C630.182190,648.904602 634.024658,647.775879 637.850586,646.636169 
	C642.093811,645.372131 640.830261,641.745544 640.395508,639.098633 
	C639.913086,636.161194 637.324646,637.458679 635.491150,637.895691 
	C633.064209,638.474060 630.678101,639.221191 628.263794,639.855408 
	C622.396545,641.396545 621.613342,640.652588 621.879639,634.612122 
	C622.003174,631.812134 623.212158,630.344055 625.846130,629.710144 
	C629.242676,628.892761 632.604004,627.930115 635.989990,627.067383 
	C642.307800,625.457581 643.367188,623.098083 640.403076,616.317139 
	C635.043091,617.724609 629.594543,619.112854 624.169800,620.588318 
	C611.348145,624.075684 611.352722,624.092407 611.348999,638.510986 
M584.650635,669.342773 
	C584.650635,656.941345 584.650635,644.539978 584.650635,632.117981 
	C571.916504,632.698547 561.598999,643.765259 564.332947,653.280945 
	C567.623230,652.203064 569.410583,648.614136 573.863159,647.596985 
	C573.863159,658.550659 573.863159,669.055725 573.863159,679.495605 
	C583.255310,679.886963 584.614807,678.618347 584.650635,669.342773 
M603.667358,671.033630 
	C605.278992,666.159363 604.206787,662.750488 600.478394,661.728027 
	C596.561707,660.653992 594.097778,662.852112 592.760620,666.176575 
	C591.612732,669.030396 592.295593,671.705566 595.036987,673.536865 
	C598.434387,675.806213 600.912415,673.988953 603.667358,671.033630 
z"/>
<path fill="#000000" opacity="1.000000" stroke="none" 
	d="
M334.697388,707.451294 
	C337.796021,706.738342 340.639496,706.200378 341.883545,709.508789 
	C343.098602,712.740173 342.422546,715.876526 339.588715,718.025391 
	C337.021240,719.972229 333.749725,720.300903 330.689514,721.010803 
	C329.293335,721.334717 328.643402,720.417419 328.206329,719.168823 
	C326.276459,713.655518 328.636200,709.105835 334.697388,707.451294 
z"/>
<path fill="#000000" opacity="1.000000" stroke="none" 
	d="
M666.235962,618.820679 
	C669.524719,618.442322 672.154419,618.731323 672.974915,622.088196 
	C673.778870,625.377197 672.540649,628.010803 669.737122,629.807922 
	C667.320007,631.357361 664.513977,631.929871 661.755432,632.558533 
	C660.499023,632.844788 659.555542,632.564636 658.959351,631.205017 
	C656.713928,626.084961 659.368286,620.571716 664.840454,619.145935 
	C665.162598,619.062012 665.483765,618.973938 666.235962,618.820679 
z"/>
</svg>