<?xml version="1.0" encoding="utf-8"?>
<svg version="1.1" id="Livello_1" xmlns="http://www.w3.org/2000/svg" xmlns:xlink="http://www.w3.org/1999/xlink" x="0px" y="0px"
     viewBox="0 0 333.4 132.3" style="enable-background:new 0 0 333.4 132.3;" xml:space="preserve">
<style type="text/css">
    .st0{fill:#8D8D8E;}
    .st1{fill:#819497;}
    .st2{fill-rule:evenodd;clip-rule:evenodd;fill:#819497;}
</style>
<g id="XMLID_281_">
    <path id="XMLID_355_" class="st0" d="M160,45.6h-7.9l-1.8,6.3h-3.5l7.7-24.9h3.3l7.6,24.9h-3.5L160,45.6z M152.9,42.9h6.3L156.1,32
        H156L152.9,42.9z"/>
    <path id="XMLID_358_" class="st0" d="M179.5,45.6c0-1.2-0.3-2.1-1-2.9c-0.7-0.8-1.8-1.4-3.5-2c-2.4-0.7-4.2-1.7-5.5-2.8
        c-1.3-1.2-1.9-2.7-1.9-4.6c0-2,0.7-3.6,2.1-4.8c1.4-1.3,3.2-1.9,5.4-1.9c2.3,0,4.2,0.7,5.6,2.2c1.4,1.5,2.1,3.2,2,5.3l0,0.1h-3.3
        c0-1.5-0.4-2.6-1.1-3.5c-0.7-0.9-1.8-1.4-3.2-1.4c-1.3,0-2.3,0.4-3,1.1c-0.7,0.8-1.1,1.7-1.1,2.9c0,1.1,0.4,2,1.1,2.7
        c0.8,0.7,2,1.4,3.7,2c2.3,0.7,4,1.7,5.2,2.9c1.2,1.2,1.8,2.8,1.8,4.7c0,2-0.7,3.7-2.1,4.9c-1.4,1.2-3.2,1.8-5.5,1.8
        c-2.2,0-4.2-0.7-5.8-2c-1.7-1.3-2.5-3.2-2.4-5.6l0-0.1h3.3c0,1.7,0.4,3,1.3,3.8c0.9,0.8,2.1,1.2,3.5,1.2c1.3,0,2.3-0.4,3.1-1.1
        C179.1,47.8,179.5,46.8,179.5,45.6z"/>
    <path id="XMLID_360_" class="st0" d="M198.1,45.6c0-1.2-0.3-2.1-1-2.9s-1.8-1.4-3.5-2c-2.4-0.7-4.2-1.7-5.5-2.8
        c-1.3-1.2-1.9-2.7-1.9-4.6c0-2,0.7-3.6,2.1-4.8c1.4-1.3,3.2-1.9,5.4-1.9c2.3,0,4.2,0.7,5.6,2.2c1.4,1.5,2.1,3.2,2,5.3l0,0.1H198
        c0-1.5-0.4-2.6-1.1-3.5c-0.7-0.9-1.8-1.4-3.2-1.4c-1.3,0-2.3,0.4-3,1.1c-0.7,0.8-1.1,1.7-1.1,2.9c0,1.1,0.4,2,1.1,2.7
        c0.8,0.7,2,1.4,3.7,2c2.3,0.7,4,1.7,5.2,2.9c1.2,1.2,1.8,2.8,1.8,4.7c0,2-0.7,3.7-2.1,4.9c-1.4,1.2-3.2,1.8-5.5,1.8
        c-2.2,0-4.2-0.7-5.8-2c-1.7-1.3-2.5-3.2-2.4-5.6l0-0.1h3.3c0,1.7,0.4,3,1.3,3.8c0.9,0.8,2.1,1.2,3.5,1.2c1.3,0,2.3-0.4,3.1-1.1
        C197.7,47.8,198.1,46.8,198.1,45.6z"/>
    <path id="XMLID_362_" class="st0" d="M221.1,42.9c0,3-0.8,5.2-2.3,6.9c-1.5,1.6-3.6,2.5-6.1,2.5c-2.5,0-4.5-0.8-6-2.5
        c-1.5-1.6-2.2-3.9-2.2-6.9v-6.8c0-2.9,0.7-5.2,2.2-6.9c1.5-1.7,3.5-2.5,6-2.5c2.6,0,4.6,0.8,6.1,2.5c1.5,1.7,2.3,4,2.3,6.9V42.9z
         M217.7,36c0-2.2-0.4-3.8-1.3-4.9c-0.9-1.1-2.1-1.7-3.7-1.7c-1.6,0-2.8,0.6-3.6,1.7c-0.8,1.1-1.2,2.8-1.2,4.9v6.9
        c0,2.2,0.4,3.8,1.3,5s2,1.7,3.6,1.7c1.6,0,2.8-0.6,3.7-1.7s1.3-2.8,1.3-5V36z"/>
    <path id="XMLID_365_" class="st0" d="M239.8,44.3l0.1,0.1c0,2.5-0.7,4.4-2,5.8c-1.3,1.4-3.2,2-5.6,2c-2.4,0-4.4-0.8-5.8-2.5
        c-1.5-1.6-2.2-3.9-2.2-6.9V36c0-2.9,0.7-5.2,2.2-6.9c1.4-1.7,3.4-2.5,5.8-2.5c2.4,0,4.3,0.7,5.6,2c1.3,1.3,2,3.3,2,5.8l-0.1,0.1
        h-3.3c0-1.8-0.4-3.2-1.1-4c-0.7-0.9-1.8-1.3-3.2-1.3c-1.4,0-2.5,0.6-3.3,1.7c-0.8,1.2-1.2,2.8-1.2,4.9v7c0,2.2,0.4,3.8,1.2,5
        c0.8,1.2,1.9,1.7,3.4,1.7c1.4,0,2.5-0.4,3.2-1.3c0.7-0.8,1-2.2,1-4H239.8z"/>
    <path id="XMLID_367_" class="st0" d="M247.3,51.9h-3.5V27h3.5V51.9z"/>
    <path id="XMLID_369_" class="st0" d="M264,45.6h-7.9l-1.8,6.3h-3.5l7.7-24.9h3.3l7.6,24.9h-3.5L264,45.6z M256.9,42.9h6.3L260.1,32
        H260L256.9,42.9z"/>
    <path id="XMLID_372_" class="st0" d="M284.3,29.6h-6.4v22.3h-3.5V29.6h-6.4V27h16.2V29.6z"/>
    <path id="XMLID_374_" class="st0" d="M291,51.9h-3.5V27h3.5V51.9z"/>
    <path id="XMLID_376_" class="st0" d="M311.9,42.9c0,3-0.8,5.2-2.3,6.9c-1.5,1.6-3.6,2.5-6.1,2.5c-2.5,0-4.5-0.8-6-2.5
        c-1.5-1.6-2.2-3.9-2.2-6.9v-6.8c0-2.9,0.7-5.2,2.2-6.9c1.5-1.7,3.5-2.5,6-2.5c2.6,0,4.6,0.8,6.1,2.5c1.5,1.7,2.3,4,2.3,6.9V42.9z
         M308.5,36c0-2.2-0.4-3.8-1.3-4.9c-0.9-1.1-2.1-1.7-3.7-1.7c-1.6,0-2.8,0.6-3.6,1.7c-0.8,1.1-1.2,2.8-1.2,4.9v6.9
        c0,2.2,0.4,3.8,1.3,5c0.8,1.1,2,1.7,3.6,1.7c1.6,0,2.8-0.6,3.7-1.7c0.9-1.1,1.3-2.8,1.3-5V36z"/>
    <path id="XMLID_379_" class="st0" d="M332.4,51.9h-3.5l-9.4-18.5l-0.1,0v18.5h-3.5V27h3.5l9.4,18.5l0.1,0V27h3.5V51.9z"/>
    <path id="XMLID_381_" class="st1" d="M170.6,95.8h-12.2l-2.5,9.9h-9.1l13-46.2h9.4l13,46.2h-9.1L170.6,95.8z M160.2,88.6h8.5
        l-4.2-16.3h-0.2L160.2,88.6z"/>
    <path id="XMLID_384_" class="st1" d="M187.4,105.7V59.4h14c4.7,0,8.7,1.8,11.7,5.4c3.1,3.6,4.6,8.2,4.6,13.9v7.8
        c0,5.6-1.5,10.3-4.6,13.8c-3.1,3.6-7,5.4-11.7,5.4H187.4z M196.4,66.6v31.8h4.4c2.5,0,4.5-1.1,5.8-3.3c1.4-2.2,2-5.1,2-8.7v-7.8
        c0-3.6-0.7-6.5-2-8.7c-1.4-2.2-3.3-3.3-5.8-3.3H196.4z"/>
    <path id="XMLID_387_" class="st1" d="M235,105.7h-9V59.4h9V105.7z"/>
    <path id="XMLID_389_" class="st1" d="M257.1,86.5h-3.9v19.2h-9V59.4h9v18.8h2.9l9-18.8h11.1l-12.6,21.1l13.6,25.1h-11L257.1,86.5z"
        />
    <path id="XMLID_391_" class="st1" d="M291.3,105.7h-9V59.4h9V105.7z"/>
    <path id="XMLID_393_" class="st1" d="M321.8,95.8h-12.2l-2.5,9.9H298l13-46.2h9.4l13,46.2h-9.1L321.8,95.8z M311.4,88.6h8.5
        l-4.2-16.3h-0.2L311.4,88.6z"/>
</g>
<g id="XMLID_280_">
    <g id="XMLID_43_">
        <g id="XMLID_658_">
            <g id="XMLID_733_">
                <path id="XMLID_42_" class="st0" d="M48,25.8C48,25.8,48,25.8,48,25.8c0,0.1,0.5,0,1.1-0.1c1-3.4,0.8-4.4,0.4-4.7
                    c-0.6-0.4-2,0.4-2.3,1.3C46.9,23.6,48.3,25.5,48,25.8z"/>
                <path id="XMLID_22_" class="st0" d="M48,25.8C48,25.8,48,25.8,48,25.8C48,25.8,48,25.8,48,25.8c0.1,0.1,0.1,0.1,0.2,0.1
                    c0.1,0,0.2,0,0.3-0.1c0.2,0,0.4-0.1,0.6-0.2L49,25.7c0.1-0.9,0.1-1.9,0-2.8c0-0.4-0.1-0.9-0.2-1.1c0,0,0-0.1,0,0
                    c0,0,0,0.1,0.1,0.1l0,0l0.1,0.1l0,0l-0.1,0c0,0,0.1,0.1,0.1,0c0,0,0,0,0,0c0,0-0.1,0-0.1,0c-0.3,0-0.6,0.2-0.9,0.3
                    c-0.1,0.1-0.2,0.2-0.3,0.2l-0.1,0.3c0,0.1,0,0.2-0.1,0.3c0,0.4,0,0.9,0.1,1.4c0.1,0.2,0.1,0.5,0.2,0.7l0.1,0.3
                    C48.1,25.5,48.1,25.7,48,25.8z M48,25.8c0.1-0.2-0.1-0.5-0.2-0.7c-0.1-0.2-0.2-0.4-0.4-0.6c-0.3-0.4-0.5-0.8-0.8-1.3
                    c0-0.1-0.1-0.2-0.1-0.4c0-0.2,0-0.3,0-0.4c0-0.4,0.2-0.7,0.3-1c0.3-0.6,0.8-1,1.5-1.2C48.6,20,48.7,20,49,20c0.1,0,0.2,0,0.3,0
                    c0.1,0,0.4,0.1,0.5,0.1l0.1,0l0,0l0.1,0.1l0,0l0,0l0.1,0.1c0.1,0.1,0.2,0.2,0.3,0.3c0.2,0.2,0.2,0.5,0.3,0.6
                    c0.1,0.7-0.1,1.2-0.2,1.7c-0.2,0.5-0.4,0.9-0.6,1.4c-0.2,0.4-0.5,0.9-0.6,1.3l0,0.1l0,0c-0.2,0-0.4,0-0.6,0l-0.3,0
                    C48.2,25.9,48.1,25.9,48,25.8C48,25.9,48,25.9,48,25.8C48,25.8,48,25.8,48,25.8z"/>
            </g>
        </g>
        <g id="XMLID_96_">
            <g id="XMLID_11_">
                <path id="XMLID_38_" class="st0" d="M52.1,82.7c-0.2-2.1-1.4-1.1-0.4-8.2c0.2-1.6-0.7-3.2-1.2-4.7c-0.5-1.4-0.2-4.3-0.5-5.7
                    c0-0.1,0-0.3,0.1-0.3c1.2-0.8,1.4-2,0.7-3.2c-0.2-0.3-0.5-0.7-0.5-1c0-0.2,0-0.5,0.2-0.6c0.6-0.6,0.4-2,0.4-2.8
                    c0.1-4.1,0.3-8.2,0.1-12.3c-0.1-3-0.5-7.4-0.8-10.4c-0.4,0.2-0.8,0.3-1.3,0.3c-0.4,0-0.8-0.1-1.2-0.2c-0.3,3.1-0.7,7.8-0.8,11
                    c-0.1,4.1,0,8.2,0.1,12.2c0,0.9,0.1,1.5,0.5,2.3c0.1,0.2,0.2,0.4,0.1,0.6c-0.6,1.5-1.6,2.9,0.3,4.1c0.1,0.1,0.2,0.2,0.1,0.3
                    c-0.3,1.4,0,4.3-0.5,5.7c-0.4,1.2-1.7,3.4-1.2,4.7c0.3,0.8,0.8,4.2,0.5,5.1c-0.1,0.6-0.6,6.3-0.4,8.4"/>
                <path id="XMLID_27_" class="st0" d="M52.1,82.7c0-0.5-0.2-1-0.5-1.5c-0.2-0.5-0.3-1-0.4-1.5c-0.1-1.1,0-2.1,0.1-3.2
                    c0-0.5,0.1-1,0.2-1.6c0.1-0.5,0.1-1,0-1.5c-0.2-1-0.6-2-1-2.9c-0.2-0.5-0.4-1-0.4-1.6C50,68.3,50,67.8,50,67.3
                    c-0.1-1,0-2.1-0.2-3.1c0,0,0-0.2,0-0.3c0-0.1,0.1-0.2,0.2-0.3c0.1-0.1,0.2-0.2,0.3-0.3c0.2-0.1,0.3-0.3,0.4-0.5
                    c0.2-0.4,0.3-0.8,0.2-1.3c-0.1-0.5-0.3-0.8-0.6-1.3c-0.1-0.2-0.3-0.6-0.2-1c0-0.2,0.1-0.4,0.3-0.5c0,0,0.1-0.1,0.1-0.1
                    c0,0,0-0.1,0.1-0.1c0.3-0.8,0.1-1.9,0.2-3l0.1-3.1c0-2.1,0.1-4.2,0-6.3c0-2.1-0.2-4.2-0.4-6.3l-0.5-6.3l0.7,0.4
                    c-0.9,0.4-2,0.4-2.9,0l0.7-0.4l-0.6,6.9c-0.2,2.3-0.3,4.6-0.3,6.9c0,2.3,0,4.6,0.1,6.9l0,1.7c0,0.6,0,1.2,0.1,1.7
                    c0,0.3,0.1,0.5,0.2,0.7c0,0.1,0.1,0.2,0.2,0.4c0.1,0.1,0.2,0.3,0.2,0.6c0,0.1,0,0.3-0.1,0.4L48,60l-0.2,0.4
                    c-0.1,0.3-0.2,0.5-0.3,0.8c-0.2,0.5-0.3,1-0.1,1.4c0.1,0.2,0.2,0.4,0.4,0.6c0.1,0.1,0.2,0.2,0.3,0.2l0.1,0.1
                    c0,0,0.1,0.1,0.2,0.2c0.1,0.1,0.1,0.3,0.1,0.5c-0.2,1.2-0.2,2.3-0.3,3.4c0,0.6-0.1,1.2-0.2,1.8c-0.1,0.6-0.4,1.2-0.6,1.7
                    c-0.4,1-1,2.1-0.8,3.1c0.4,1.1,0.5,2.3,0.6,3.4c0,0.6,0.1,1.2,0,1.8c-0.1,0.4-0.1,0.5-0.1,0.9L47,81.1c-0.1,1.1-0.2,2.3-0.3,3.5
                    c-0.1,1.2-0.2,2.3-0.1,3.5c-0.1-1.2-0.1-2.3-0.1-3.5c0-1.2,0.1-2.3,0.1-3.5l0.1-0.9c0-0.3,0.1-0.7,0.1-0.9c0-0.5,0-1.1-0.1-1.7
                    c-0.1-1.2-0.3-2.3-0.7-3.4c-0.1-0.7,0-1.3,0.2-1.9c0.2-0.6,0.4-1.1,0.6-1.7c0.2-0.5,0.5-1,0.5-1.6c0.1-0.5,0.1-1.1,0.1-1.7
                    l0-1.7c0-0.3,0-0.6,0-0.9c0-0.3,0.1-0.7,0.1-0.9c0,0,0,0,0,0.1c0,0,0,0,0,0L47.6,64c-0.1-0.1-0.3-0.2-0.4-0.3
                    c-0.2-0.2-0.5-0.5-0.6-0.8c-0.3-0.7-0.1-1.4,0.1-2c0.1-0.3,0.2-0.6,0.3-0.8l0.2-0.4l0.1-0.2c0,0,0,0,0,0c0,0-0.2-0.4-0.3-0.7
                    c-0.1-0.3-0.2-0.6-0.3-0.9c-0.1-0.6-0.1-1.2-0.1-1.8l0-1.7c-0.1-2.3-0.1-4.6-0.1-7c0-4.7,0.4-9.3,0.8-13.9l0.1-0.6L48,33
                    c0.7,0.3,1.5,0.3,2.1,0l0.6-0.3l0.1,0.7l0.5,6.3c0.1,2.1,0.3,4.2,0.3,6.3c0,2.1,0,4.2-0.1,6.3l-0.1,3.1c0,0.5,0,1,0,1.6
                    c0,0.5,0,1.1-0.3,1.7c0,0.1-0.1,0.2-0.1,0.2c-0.1,0.1-0.1,0.1-0.1,0.2c0,0-0.1,0.1-0.1,0.2c0,0.2,0,0.3,0.1,0.5
                    c0.2,0.4,0.6,0.9,0.7,1.5c0.1,0.6,0,1.2-0.3,1.7c-0.2,0.3-0.4,0.5-0.6,0.7c-0.1,0.1-0.2,0.2-0.3,0.2c0,0,0,0,0,0c0,0,0,0,0,0.1
                    c0.2,1.1,0.2,2.1,0.2,3.2c0,1.1,0,2.1,0.4,3c0.3,1,0.8,2,0.9,3.1c0.1,0.5,0,1.1-0.1,1.6c-0.1,0.5-0.1,1-0.2,1.6
                    c-0.1,1-0.2,2.1-0.2,3.1c0,0.5,0.1,1,0.3,1.5C51.9,81.6,52.1,82.2,52.1,82.7z"/>
            </g>
        </g>
        <g id="XMLID_76_">
            <g id="XMLID_75_">
                <g id="XMLID_74_">
                    <g id="XMLID_656_">
                        <g id="XMLID_723_">
                            <path id="XMLID_45_" class="st0" d="M28.7,79.2c6.1,0,11.3-2.7,12.1-6.3H16.6C17.4,76.5,22.6,79.2,28.7,79.2z"/>
                            <path id="XMLID_35_" class="st0" d="M28.7,79.2l0.9,0c0.3,0,0.6,0,0.9-0.1c0.6,0,1.2-0.1,1.8-0.3c0.6-0.1,1.2-0.3,1.7-0.5
                                c0.6-0.2,1.1-0.4,1.7-0.7c0.5-0.3,1.1-0.5,1.6-0.8c0.5-0.3,1-0.7,1.4-1.1c0.4-0.4,0.8-0.8,1.2-1.3c0.2-0.2,0.3-0.5,0.4-0.8
                                c0.1-0.3,0.2-0.5,0.3-0.8l0.2,0.2c-2,0-4-0.1-6-0.1c-2,0-4,0-6,0.1c-4,0.1-8,0.1-12.1,0.1l0.2-0.3c0.1,0.3,0.1,0.6,0.3,0.8
                                c0.1,0.3,0.2,0.5,0.4,0.8c0.3,0.5,0.7,0.9,1.1,1.3c0.4,0.4,0.9,0.8,1.4,1.1c0.5,0.3,1,0.6,1.6,0.8c0.5,0.3,1.1,0.5,1.7,0.7
                                c0.6,0.2,1.2,0.3,1.7,0.5c0.6,0.1,1.2,0.2,1.8,0.3c0.3,0,0.6,0.1,0.9,0.1L28.7,79.2z M28.7,79.3l-0.9,0c-0.3,0-0.6,0-0.9-0.1
                                c-0.3,0-0.6,0-0.9-0.1c-0.3,0-0.6-0.1-0.9-0.1c-0.6-0.1-1.2-0.2-1.8-0.4c-0.6-0.2-1.2-0.3-1.7-0.6c-0.6-0.2-1.1-0.5-1.7-0.8
                                c-0.5-0.3-1-0.7-1.5-1.1c-0.5-0.4-0.9-0.9-1.2-1.4c-0.2-0.3-0.3-0.5-0.5-0.8c-0.2-0.3-0.2-0.6-0.3-0.9l-0.1-0.3l0.4,0
                                c4,0,8,0,12.1,0.1c2,0,4,0.1,6,0.1c2,0,4-0.1,6-0.1l0.2,0L40.9,73c-0.1,0.3-0.1,0.6-0.3,0.9c-0.1,0.3-0.3,0.6-0.4,0.8
                                c-0.3,0.5-0.8,1-1.2,1.4c-0.5,0.4-1,0.8-1.5,1.1c-0.5,0.3-1.1,0.6-1.7,0.8c-0.6,0.2-1.2,0.4-1.7,0.6
                                c-0.6,0.1-1.2,0.3-1.8,0.4c-0.3,0.1-0.6,0.1-0.9,0.1c-0.3,0-0.6,0.1-0.9,0.1c-0.3,0-0.6,0.1-0.9,0.1L28.7,79.3z"/>
                        </g>
                    </g>
                </g>
            </g>
        </g>
        <g id="XMLID_99_">
            <g id="XMLID_714_">
                <path id="XMLID_34_" class="st0" d="M45.5,30.2c-1.2-0.1-2.3,0.1-3.5,0.5c-0.4,0.2-0.9,0.3-1.3,0.6c-1.5,0.8-3,1.9-4.8,3.7
                    c-0.6,0.6-1.1,1.2-1.7,1.8c-1.2,1.3-2.4,2.6-3.8,3.7c-0.2,0.2-0.8,0.5-1.4,0.8c-1.1,0.5-1.9,0.7-2.4,0.5
                    c-0.3-0.1-0.4-0.3-0.5-0.6c-0.1-0.2-0.2-0.4-0.4-0.5c-0.2-0.1-0.5-0.1-0.7,0.1c-0.3,0.2-0.6,0.5-0.6,1c0.1,0.6,0.4,1,0.4,1.1
                    c0.6,0.8,1.6,0.9,2.2,1c0.3,0,0.8,0.1,1.4-0.1c0.3-0.1,0.9-0.2,1.4-0.5c1.4-0.7,2.6-1.9,3.7-3.1c0.6-0.7,1.3-1.4,1.9-2.1
                    c1.3-1.5,2.7-3,4.3-4.3c0.4-0.4,0.9-0.7,1.5-0.9c1.3-0.7,2.8-1,4.2-1.3c0.2,0,0.4-0.1,0.6-0.1c0-0.1,0.1,0.4-0.1-0.2
                    C45.6,31.1,45.5,30.7,45.5,30.2z"/>
                <path id="XMLID_31_" class="st0" d="M45.5,30.2c-2.2,0-4.4,0.8-6.1,2.1c-0.9,0.6-1.7,1.4-2.5,2.1c-0.8,0.8-1.5,1.6-2.3,2.4
                    c-0.7,0.8-1.5,1.7-2.3,2.5c-0.4,0.4-0.8,0.8-1.2,1.2c-0.2,0.2-0.4,0.4-0.7,0.6c-0.2,0.2-0.5,0.3-0.7,0.5c-0.5,0.3-1,0.5-1.6,0.7
                    c-0.3,0.1-0.6,0.2-1,0.1c-0.3,0-0.8-0.1-1.1-0.4c-0.2-0.1-0.3-0.3-0.3-0.5c0-0.1-0.1-0.2-0.1-0.2c-0.1-0.1-0.2-0.1-0.3,0
                    c-0.1,0-0.3,0.2-0.3,0.3c-0.1,0.1-0.1,0.2,0,0.5c0.1,0.2,0.1,0.4,0.3,0.6c0,0.1,0,0,0.1,0.1c0,0.1,0.1,0.1,0.1,0.1
                    c0.1,0.1,0.2,0.1,0.2,0.2c0.4,0.2,0.8,0.4,1.4,0.4c0.5,0.1,1,0,1.5-0.1c0.5-0.1,1-0.3,1.4-0.6c0.9-0.5,1.7-1.2,2.5-2
                    c0.8-0.8,1.5-1.6,2.3-2.4c1.5-1.6,3-3.3,4.8-4.7c0.9-0.7,2-1.2,3.1-1.5c1.1-0.3,2.2-0.5,3.3-0.7l0,0.1c0,0,0,0,0,0
                    c0,0,0,0,0.1,0c0,0,0,0,0,0c0,0,0,0,0,0l0,0l0,0.1l0,0c0,0,0,0,0,0c-0.1,0.1-0.1,0-0.1,0c0,0,0,0,0,0l0,0l0-0.1l0-0.2l-0.1-0.4
                    C45.5,30.8,45.4,30.5,45.5,30.2z M45.5,30.2c0,0.3,0.1,0.6,0.2,0.9l0.1,0.4l0.1,0.2l0,0.1l0,0c0,0,0,0,0,0c0,0,0-0.1-0.1,0l0,0
                    l0,0l0,0l0,0l0,0c0,0,0,0,0,0c0,0,0.1,0,0.1,0c0,0,0,0,0,0l0,0.1l-0.1,0c-1.1,0.3-2.2,0.5-3.2,0.9c-1,0.4-2,0.9-2.8,1.6
                    c-1.7,1.4-3.1,3.1-4.6,4.8c-0.7,0.8-1.5,1.7-2.3,2.5c-0.8,0.8-1.6,1.6-2.7,2.2c-0.5,0.3-1.1,0.5-1.6,0.7
                    c-0.6,0.2-1.2,0.2-1.8,0.1c-0.6-0.1-1.2-0.2-1.8-0.6c-0.1-0.1-0.3-0.2-0.4-0.3c-0.1-0.1-0.1-0.1-0.2-0.2c0,0-0.1-0.2-0.2-0.2
                    c-0.2-0.3-0.3-0.6-0.4-0.9c-0.1-0.3-0.1-0.8,0.1-1.1c0.2-0.4,0.5-0.6,0.9-0.8c0.4-0.1,0.9-0.1,1.2,0.3c0.2,0.2,0.3,0.4,0.3,0.5
                    c0,0.1,0.1,0.1,0.1,0.2c0.2,0.2,0.7,0.2,1.1,0.1c0.5-0.1,1-0.4,1.4-0.6c0.5-0.3,0.9-0.5,1.3-0.9c0.4-0.4,0.8-0.7,1.2-1.1
                    c0.8-0.8,1.5-1.6,2.3-2.4c1.5-1.6,3.1-3.2,5-4.5C41,30.8,43.2,30,45.5,30.2z"/>
            </g>
        </g>
        <g id="XMLID_81_">
            <g id="XMLID_16_">
                <path id="XMLID_30_" class="st0" d="M71.4,24.7C71.4,24.7,71.5,24.7,71.4,24.7l0.5-0.4c0.7-0.6,1.9-1.8,0.8-3.2
                    c-0.3-0.3-0.7-0.4-1-0.3c-0.2,0.1-0.4,0.2-0.5,0.4c-0.1,0.2-0.1,0.3,0,0.5c0.1,0.2,0.1,0.4,0,0.6c-0.2,0.4-0.8,0.8-1.8,1.1
                    c-0.6,0.2-1.1,0.3-1.4,0.3c-1.6,0.2-3.2,0.1-4.8,0.1c-0.7,0-1.5,0-2.3,0c-2.3,0-4,0.2-5.5,0.7c-0.4,0.1-0.8,0.3-1.2,0.5
                    c-1,0.5-1.9,1-2.6,1.8c0.3,0.3,0.5,0.6,0.7,0.9c0,0.1,0,0.1,0.1,0.2c0.1-0.1,0.3-0.2,0.4-0.2c1.1-0.6,2.2-1.3,3.5-1.7
                    c0.5-0.2,1-0.3,1.5-0.3c1.8-0.2,3.7-0.1,5.5-0.1c0.8,0,1.7,0.1,2.6,0.1c1.5,0,3,0,4.4-0.4c0.1,0,0.2-0.1,0.4-0.2"/>
                <path id="XMLID_28_" class="st0" d="M71.4,24.7c0.5-0.3,0.9-0.7,1.2-1.2c0.3-0.5,0.5-1,0.3-1.5c-0.1-0.3-0.3-0.5-0.4-0.7
                    c-0.2-0.2-0.4-0.2-0.6-0.2c-0.2,0-0.5,0.2-0.5,0.3c0,0.1,0,0.1,0,0.2c0,0.1,0.2,0.3,0.1,0.5c0,0.4-0.3,0.7-0.5,0.9
                    c-0.3,0.2-0.5,0.4-0.8,0.5c-0.3,0.1-0.5,0.2-0.9,0.3l-0.8,0.2l-0.4,0.1l-0.5,0.1l-0.9,0.1c-0.6,0-1.2,0.1-1.8,0.1l-3.5,0
                    c-1.2,0-2.3,0-3.4,0.2c-0.6,0.1-1.1,0.2-1.7,0.3c-0.3,0.1-0.6,0.2-0.8,0.2l-0.8,0.3c-0.5,0.2-1,0.4-1.5,0.7
                    c-0.5,0.3-0.9,0.6-1.3,1l0-0.7c0.2,0.2,0.4,0.4,0.5,0.6c0.1,0.1,0.1,0.2,0.2,0.3l0.1,0.2l0.1,0.2l-0.6-0.2
                    c0.7-0.4,1.4-0.8,2.1-1.2c0.4-0.2,0.7-0.4,1.1-0.5c0.2-0.1,0.4-0.1,0.6-0.2c0.1,0,0.2-0.1,0.3-0.1l0.3-0.1l1.2-0.2
                    c0.5-0.1,0.8-0.1,1.2-0.1c0.8,0,1.6,0,2.4,0l4.7,0.3c0.8,0,1.6,0.1,2.3,0c0.8-0.1,1.6-0.1,2.3-0.4c-0.7,0.4-1.5,0.5-2.3,0.6
                    c-0.8,0.1-1.6,0.1-2.4,0.2c-1.6,0-3.1,0-4.7,0c-0.8,0-1.6,0-2.3,0.1c-0.4,0-0.8,0.1-1.1,0.1l-1.1,0.3l-0.3,0.1
                    c0,0-0.2,0.1-0.2,0.1c-0.2,0.1-0.4,0.1-0.5,0.2c-0.3,0.1-0.7,0.3-1,0.5c-0.7,0.4-1.3,0.8-2,1.2l-0.5,0.3L52,28.1l-0.1-0.2
                    l-0.1-0.1c0-0.1-0.1-0.2-0.1-0.2c-0.1-0.1-0.2-0.3-0.4-0.4L51,26.9l0.3-0.3c0.4-0.4,0.9-0.8,1.4-1.2c0.5-0.3,1-0.6,1.6-0.8
                    l0.8-0.3c0.3-0.1,0.6-0.2,0.9-0.2c0.6-0.1,1.2-0.2,1.8-0.3c1.2-0.1,2.4-0.2,3.6-0.1l3.5,0.1c0.6,0,1.2,0,1.7,0l0.9,0l0.4,0
                    l0.4-0.1l0.9-0.2c0.2,0,0.5-0.1,0.8-0.2c0.5-0.2,1-0.5,1.1-0.9c0-0.1,0-0.1-0.1-0.3c-0.1-0.2-0.1-0.4,0-0.6
                    c0.2-0.4,0.6-0.5,0.9-0.6c0.3,0,0.7,0.1,1,0.4c0.2,0.3,0.4,0.5,0.4,0.8c0.2,0.6-0.1,1.3-0.5,1.7C72.4,24.1,71.9,24.4,71.4,24.7z
                    "/>
            </g>
        </g>
        <path id="XMLID_165_" class="st0" d="M16.8,73.3c0,0,0.3-1.6,1.1-3.9c0.4-1.2,0.8-2.5,1.4-3.9c0.3-0.7,0.5-1.4,0.9-2.2
            c0.3-0.7,0.6-1.5,0.9-2.2c0.3-0.7,0.7-1.5,1-2.2c0.3-0.7,0.7-1.4,1-2.1c0.7-1.4,1.3-2.6,1.9-3.7c1.2-2.1,2.1-3.5,2.1-3.5
            s-0.3,1.6-1.1,3.9c-0.4,1.2-0.8,2.5-1.4,3.9c-0.3,0.7-0.5,1.5-0.9,2.2c-0.3,0.7-0.6,1.5-0.9,2.2c-0.3,0.7-0.7,1.5-1,2.2
            c-0.3,0.7-0.7,1.4-1,2.1c-0.7,1.4-1.3,2.6-1.9,3.7C17.7,71.9,16.8,73.3,16.8,73.3z"/>
        <path id="XMLID_78_" class="st0" d="M40.8,73.3c0,0-0.9-1.4-2.1-3.5c-0.6-1.1-1.3-2.3-1.9-3.7c-0.3-0.7-0.7-1.4-1-2.1
            c-0.3-0.7-0.7-1.5-1-2.2c-0.3-0.7-0.6-1.5-0.9-2.2c-0.3-0.7-0.6-1.5-0.9-2.2c-0.5-1.4-1-2.8-1.4-3.9c-0.8-2.3-1.1-3.9-1.1-3.9
            s0.9,1.4,2.1,3.5c0.6,1.1,1.3,2.3,1.9,3.7c0.3,0.7,0.7,1.4,1,2.1c0.3,0.7,0.7,1.5,1,2.2c0.3,0.7,0.6,1.5,0.9,2.2
            c0.3,0.7,0.6,1.5,0.9,2.2c0.5,1.4,1,2.8,1.4,3.9C40.4,71.7,40.8,73.3,40.8,73.3z"/>
        <path id="XMLID_73_" class="st0" d="M28.8,73.3c0,0-0.3-1.4-0.6-3.6c-0.1-1.1-0.2-2.3-0.3-3.7c-0.1-1.3-0.1-2.8-0.1-4.2
            c0-1.4,0-2.9,0.1-4.2c0.1-1.3,0.2-2.6,0.3-3.7c0.2-2.1,0.6-3.6,0.6-3.6s0.3,1.4,0.6,3.6c0.1,1.1,0.2,2.3,0.3,3.7
            c0.1,1.3,0.1,2.8,0.1,4.2c0,1.4,0,2.9-0.1,4.2c-0.1,1.3-0.2,2.6-0.3,3.7C29.2,71.9,28.8,73.3,28.8,73.3z"/>
        <path id="XMLID_58_" class="st0" d="M30.6,47.6c0,0,0,0.2,0,0.5c-0.1,0.3-0.1,0.9-0.6,1.4c-0.2,0.2-0.6,0.4-1,0.4
            c-0.1,0-0.2,0-0.3,0c-0.1,0-0.2,0-0.3-0.1c-0.2-0.1-0.4-0.2-0.6-0.3c-0.3-0.2-0.6-0.5-0.8-0.8c-0.2-0.3-0.4-0.7-0.5-1.1
            c-0.1-0.4,0-0.9,0.2-1.3c0.2-0.4,0.6-0.7,1-0.9c0.4-0.2,0.9-0.3,1.2-0.2c0.4,0.1,0.8,0.2,1,0.5c0.5,0.5,0.6,1.1,0.6,1.4
            C30.6,47.4,30.6,47.6,30.6,47.6z M30.5,47.6c0,0,0-0.2-0.1-0.5c-0.1-0.3-0.5-0.6-0.9-0.7c-0.2-0.1-0.5-0.1-0.6-0.1
            c-0.3,0-0.5,0-0.7,0.1c-0.2,0.1-0.5,0.2-0.7,0.5c-0.2,0.2-0.3,0.4-0.4,0.8c-0.1,0.3,0,0.7,0.2,0.9c0.2,0.3,0.5,0.5,0.8,0.5
            c0.1,0,0.3,0,0.4,0l0.2,0l0.2,0c0.2,0,0.5-0.1,0.7-0.2c0.4-0.2,0.8-0.5,0.9-0.8C30.5,47.8,30.5,47.6,30.5,47.6z"/>
        <g id="XMLID_239_">
            <g id="XMLID_240_">
                <g id="XMLID_241_">
                    <g id="XMLID_242_">
                        <g id="XMLID_244_">
                            <path id="XMLID_41_" class="st0" d="M70.2,65.9c7.1,0,13.1-3.2,14-7.3H56.1C57,62.7,63,65.9,70.2,65.9z"/>
                            <path id="XMLID_21_" class="st0" d="M70.2,65.8l1.1,0c0.4,0,0.7-0.1,1.1-0.1c0.7-0.1,1.4-0.2,2.1-0.3c0.7-0.1,1.4-0.3,2-0.5
                                c0.7-0.2,1.3-0.5,2-0.8c0.6-0.3,1.3-0.6,1.8-1c0.3-0.2,0.6-0.4,0.9-0.6c0.3-0.2,0.5-0.4,0.8-0.7c0.2-0.2,0.5-0.5,0.7-0.7
                                c0.2-0.3,0.5-0.5,0.6-0.8l0.3-0.4l0.2-0.5c0.2-0.3,0.2-0.6,0.3-1l0.2,0.2c-2.3,0-4.7-0.1-7-0.1c-2.3,0-4.7,0-7,0.1
                                c-4.7,0.1-9.4,0.1-14,0.1l0.2-0.3c0.1,0.3,0.2,0.7,0.3,1c0.1,0.3,0.3,0.6,0.5,0.9c0.2,0.3,0.4,0.5,0.6,0.8
                                c0.2,0.3,0.5,0.5,0.7,0.7c0.3,0.2,0.5,0.4,0.8,0.7c0.3,0.2,0.6,0.4,0.9,0.6c0.6,0.4,1.2,0.7,1.8,1c0.6,0.3,1.3,0.5,2,0.8
                                c0.7,0.2,1.3,0.4,2,0.5c0.7,0.1,1.4,0.3,2.1,0.3c0.4,0,0.7,0.1,1.1,0.1L70.2,65.8z M70.2,65.9l-1.1,0c-0.4,0-0.7,0-1.1-0.1
                                c-0.4,0-0.7-0.1-1.1-0.1c-0.3,0-0.7-0.1-1.1-0.1c-0.7-0.1-1.4-0.3-2.1-0.4c-0.7-0.2-1.4-0.4-2-0.7c-0.7-0.3-1.3-0.6-1.9-0.9
                                c-0.6-0.4-1.2-0.8-1.8-1.3c-0.3-0.3-0.5-0.5-0.8-0.8c-0.2-0.3-0.5-0.6-0.7-0.9c-0.2-0.3-0.4-0.6-0.5-1
                                c-0.2-0.3-0.2-0.7-0.4-1l-0.1-0.3l0.4,0c4.7,0,9.4,0,14,0.1c2.3,0,4.7,0.1,7,0.1c2.3,0,4.7-0.1,7-0.1l0.2,0l-0.1,0.2
                                c-0.1,0.3-0.2,0.7-0.3,1c-0.1,0.3-0.3,0.7-0.5,1c-0.2,0.3-0.4,0.6-0.6,0.9c-0.2,0.3-0.5,0.5-0.8,0.8
                                c-0.5,0.5-1.1,0.9-1.7,1.3c-0.6,0.4-1.3,0.7-1.9,0.9c-0.7,0.3-1.3,0.5-2,0.7c-0.7,0.2-1.4,0.3-2.1,0.4
                                c-0.3,0.1-0.7,0.1-1.1,0.1c-0.3,0.1-0.7,0.1-1.1,0.1c-0.4,0-0.7,0.1-1.1,0.1L70.2,65.9z"/>
                        </g>
                    </g>
                </g>
            </g>
        </g>
        <path id="XMLID_236_" class="st0" d="M56.3,59c0,0,0.5-1.9,1.4-4.6c0.4-1.3,1-2.9,1.7-4.6c0.3-0.8,0.6-1.7,1-2.5
            c0.4-0.9,0.7-1.7,1.1-2.6c0.4-0.9,0.8-1.7,1.2-2.6c0.4-0.9,0.8-1.7,1.2-2.5c0.8-1.6,1.5-3.1,2.2-4.3c1.3-2.5,2.4-4.1,2.4-4.1
            s-0.5,1.9-1.4,4.6c-0.4,1.3-1,2.9-1.7,4.6c-0.3,0.8-0.6,1.7-1,2.5c-0.4,0.9-0.7,1.7-1.1,2.6c-0.4,0.9-0.8,1.7-1.2,2.6
            c-0.4,0.9-0.8,1.7-1.2,2.5c-0.8,1.6-1.5,3.1-2.2,4.3C57.3,57.4,56.3,59,56.3,59z"/>
        <path id="XMLID_213_" class="st0" d="M84.2,59c0,0-1.1-1.6-2.4-4.1c-0.7-1.2-1.4-2.7-2.2-4.3c-0.4-0.8-0.8-1.6-1.2-2.5
            c-0.4-0.8-0.8-1.7-1.2-2.6c-0.4-0.9-0.7-1.7-1.1-2.6c-0.4-0.9-0.7-1.7-1-2.5c-0.6-1.7-1.2-3.2-1.7-4.6c-0.9-2.7-1.4-4.6-1.4-4.6
            s1.1,1.6,2.4,4.1c0.7,1.2,1.4,2.7,2.2,4.3c0.4,0.8,0.8,1.6,1.2,2.5c0.4,0.8,0.8,1.7,1.2,2.6c0.4,0.9,0.7,1.7,1.1,2.6
            c0.4,0.9,0.7,1.7,1,2.5c0.6,1.7,1.2,3.2,1.7,4.6C83.7,57.1,84.2,59,84.2,59z"/>
        <path id="XMLID_87_" class="st0" d="M70.3,59c0,0-0.3-1.7-0.6-4.2c-0.1-1.3-0.2-2.7-0.3-4.3c0-0.8-0.1-1.6-0.1-2.4
            c0-0.8,0-1.7,0-2.5c0-0.8,0-1.7,0-2.5c0-0.8,0.1-1.6,0.1-2.4c0.1-1.6,0.2-3,0.3-4.3c0.2-2.5,0.6-4.2,0.6-4.2s0.3,1.7,0.6,4.2
            c0.1,1.3,0.2,2.7,0.3,4.3c0,0.8,0.1,1.6,0.1,2.4c0,0.8,0,1.7,0,2.5c0,0.8,0,1.7,0,2.5c0,0.8-0.1,1.6-0.1,2.4
            c-0.1,1.6-0.2,3-0.3,4.3C70.6,57.3,70.3,59,70.3,59z"/>
        <path id="XMLID_5_" class="st0" d="M72.3,29c0,0,0,0.2,0,0.6c-0.1,0.4-0.2,1-0.8,1.5c-0.3,0.3-0.7,0.4-1.1,0.5c-0.1,0-0.2,0-0.3,0
            c-0.1,0-0.2,0-0.3-0.1c-0.2-0.1-0.4-0.2-0.6-0.3c-0.4-0.3-0.7-0.6-1-0.9c-0.2-0.4-0.4-0.8-0.5-1.3c-0.1-0.5,0-1,0.3-1.5
            c0.3-0.4,0.6-0.8,1.1-1c0.4-0.2,1-0.3,1.4-0.2c0.5,0.1,0.9,0.3,1.2,0.5c0.6,0.5,0.7,1.2,0.8,1.6C72.3,28.8,72.3,29,72.3,29z
             M72.2,29c0,0,0-0.2-0.1-0.6c-0.1-0.3-0.5-0.7-1-0.9c-0.2-0.1-0.5-0.2-0.8-0.2c-0.3,0-0.6,0-0.9,0.1c-0.3,0.1-0.6,0.3-0.8,0.6
            c-0.2,0.3-0.4,0.6-0.5,1c-0.1,0.4,0,0.8,0.2,1.1c0.2,0.3,0.6,0.6,0.9,0.6c0.2,0,0.4,0.1,0.5,0c0.1,0,0.2,0,0.3,0l0.2,0
            c0.3-0.1,0.6-0.2,0.8-0.3c0.5-0.2,0.9-0.6,1-0.9C72.3,29.2,72.2,29,72.2,29z"/>
        <g id="XMLID_166_">

                <ellipse id="XMLID_15_" transform="matrix(0.96 -0.28 0.28 0.96 -6.3542 14.911)" class="st0" cx="49" cy="29.7" rx="2.3" ry="2.1"/>
            <path id="XMLID_12_" class="st0" d="M51.2,29c0,0,0.1,0.2,0.1,0.6c0,0.4,0.1,1-0.4,1.6c-0.2,0.3-0.6,0.6-1,0.7
                c-0.1,0-0.2,0.1-0.3,0.1c-0.1,0-0.2,0-0.3,0c-0.2,0-0.5,0-0.7-0.1c-0.4-0.1-0.8-0.3-1.2-0.6c-0.4-0.3-0.7-0.6-0.9-1.1
                c-0.2-0.4-0.3-1-0.1-1.5c0.2-0.5,0.5-0.9,0.8-1.2c0.4-0.3,0.8-0.5,1.2-0.6c0.5-0.1,0.9,0,1.2,0.1c0.7,0.3,1,0.9,1.2,1.2
                C51.2,28.8,51.2,29,51.2,29z M51.1,29.1c0,0,0-0.2-0.3-0.5c-0.2-0.3-0.7-0.5-1.3-0.5c-0.3,0-0.6,0-0.8,0.1
                c-0.3,0.1-0.6,0.2-0.8,0.4c-0.3,0.2-0.5,0.4-0.6,0.7c-0.1,0.3-0.2,0.6-0.2,1c0,0.4,0.2,0.7,0.6,1c0.3,0.2,0.7,0.3,1.1,0.3
                c0.2,0,0.4-0.1,0.5-0.1c0.1,0,0.2-0.1,0.3-0.1l0.2-0.1c0.3-0.1,0.5-0.3,0.7-0.4c0.4-0.3,0.7-0.8,0.8-1.1
                C51.2,29.3,51.1,29.1,51.1,29.1z"/>
        </g>
    </g>
    <g id="XMLID_10_">
        <path id="XMLID_605_" class="st2" d="M111.4,33c-2.5-3.2-7.2-8.5-15.4-11.4c-2.1-0.7-1.4-1.1,0.3-1.3c1.7-0.1,4.3,0.2,6,0.7
            c2.5,0.7,6,3.8,6.6,4.3c2.4,2.2,7,6.9,7.9,8c1.2,1.6,3.3,7.6,3.9,10.2c0.4,1.5,1,3.1,0.8,3.6c-0.4,1-3-0.5-3.7-1.8
            C115.8,41.3,114.4,36.9,111.4,33L111.4,33z M84.7,30.1c3.3,1.7,4.5,1.7,8.4,3.2c0,0,0.1,0,0.2,0.1c4.8,1.9,8.2,3.8,13.5,7.6
            c1,0.7,1.9,0.4,1.8-0.7c1-3.5-7.9-11-14.7-16.2c-1.9-1.5-0.8-3.7,1.7-4.2c1.3-0.3,3.8-0.1,5.2,0c1.5,0.2,3,0.6,4.4,1.1
            c1.5,0.5,2.9,0.5,4.3,1.3c4.7,2.5,9.6,6.6,14.5,9.5c1.4,0.9,4.4,6,8.1,4.3c0.3-0.1,0.7-0.5,0.4-1l-2.9-3.7
            C99.4-7.1,54.4-7.8,24.8,16.3c-2.6,2.1-5.7,5.1-8.7,8.8C1.2,42.8-2.3,62.1,1.3,81.9C-1.4,49.5,36.1,6.8,73.8,18.5
            c0.8,0.4,2.9,3.1,4.9,5.8C81,27.3,81.2,28.3,84.7,30.1L84.7,30.1z M106.2,22.1c0.9,0,2.1,0.3,3.1,0.8c2.5,1.2,4.6,2.8,6.9,4.4
            c1.7,1.2,3.7,2.5,5.4,3.8c1.9,1.4,2.4,2,3.3,3.9c1.3,1.9,2.6,9.9,3.7,12.3c1.4,3.1-0.6,3.3-2.5,1.8c-1.6-1.2-3.4-6.4-4.2-8.3
            c-0.5-1.3-1.3-4.1-2.6-5.7C114.9,30,110.1,25.5,106.2,22.1L106.2,22.1z"/>
        <g id="XMLID_80_">
            <path id="XMLID_234_" class="st1" d="M98,62.8c-0.4-0.3-0.9-0.8-1.3-1c-1-0.3-1.4,1-1.5,1.9c0.1-0.5,0.8-1.5,1.3-1.2
                c0.1,0,0.6,0.6,0.6,0.7c0.5,0.9,2.2,0.3,2.8,0C99.3,63.3,98.6,63.2,98,62.8z"/>
            <g id="XMLID_4_">
                <path id="XMLID_167_" class="st1" d="M8.2,89.8c0.7,2.1,1,2.7,2.8,4.3c1.6,1.5,3.3,3,4.9,4.5c2.1,2,4,3.8,6.3,5.3
                    c0.9,0.6,2.1,1,2.9,1.2c-3.4-3.8-7.7-9-11.2-14.5c-1.1-1.8-1.5-4.7-1.8-6c-0.6-2-1.7-7.4-3.1-8.8c-1.7-1.7-3.8-1.8-2.7,1.4
                    C6.9,79.7,7.1,87.8,8.2,89.8z"/>
                <path id="XMLID_188_" class="st1" d="M16,92.5c0.7,1.2,4.6,6.5,6.8,9c0.5,0.6,3.5,4.1,6,5.1c1.7,0.7,4.2,1.4,5.9,1.5
                    c1.7,0.1,2.4-0.2,0.4-1.2C27.3,103,23.3,97,21.2,93.6c-2.5-4.2-3.3-8.7-4.8-13.1c-0.5-1.4-2.9-3.2-3.4-2.3
                    c-0.2,0.5,0.2,2.2,0.4,3.7C13.7,84.5,15,90.7,16,92.5z"/>
                <path id="XMLID_189_" class="st1" d="M101.5,67.3c-2.3-0.4-3.8,4,0.3,6.4C101,71.1,99.6,68.9,101.5,67.3z"/>
                <path id="XMLID_200_" class="st1" d="M37,94.4c-2.4-0.7-5.4-2.6-7.3-5.4c-0.1-0.1-1.1-1.6-2.8-2.7c-0.7-0.5-1.2-0.6-1.5-0.4
                    c-0.9,0.6,0.3,5.1,3.1,8.8c2,2.6,6,6.9,9.1,10c1.7,1.7,0.3,3.8-2.2,4c-1.3,0.1-3.8-0.4-5.1-0.7c-1.5-0.4-2.9-0.9-4.3-1.6
                    c-1.4-0.7-2.8-0.9-4.1-1.9c-4.3-3.1-8.7-7.8-13.1-11.3c-1.2-1-3.6-6.6-7.4-5.3c-0.3,0.1-0.7,0.4-0.6,1l2.4,4
                    c24.9,42,69.3,48.6,101.9,28.6c8.2-5,20.3-16.8,26.8-30.1c5.7-11.5,6.8-24.1,0.5-33.2c-5.6-8.1-17.4-11.4-26-6.7
                    c-2.2,1.2-2.7,2.6-4.8,2.6c-2.1-0.5-4.3-0.9-7.3,1.4c-2.2,1.7-3.7,4.6-5.1,7.1c-0.9,1.7-1.3,1.8-1.4,3.2
                    c-0.1,1.3,1.1,1.9,1.3,3.7c1.1,3.1,2.6,7.3,6,9.4c-0.9-0.7-2.3-2.2-3.2-3.9c-1-2.1-1.6-4.7-2-6.8c-0.2-1.1-0.8-1.8-0.6-2.6
                    c0.1-0.8,0.6-0.9,0.9-1.6c1.5-3.3,5.9-9.5,11.1-6.8c-0.2,1-0.6,2.4,0.6,3.6c2.3-12.4,28.7-13.8,29.9,7.6
                    c1.3,12.9-12.1,25.5-25.2,20.3c-5.6-2.2-5.5-1.9-7.8,3.1c-1.3,2.8-2.3,4.7-3.6,6.9c-2,3.4-4.2,6.1-7.1,8.8
                    c-3.1,2.9-6.9,5.2-10.1,6.6c-3.7,1.6-10.2,2.5-15.2,0.9c-3.2-1.1-6.3-2.6-7.1-6.3c-1.5-7.1,3-9,8.1-11.8c3.6-2,4.4-4.5,4.3-5.8
                    c-0.1,0.4-0.4,0.9-0.7,1.5c-0.5,0.8-1.4,2-3.3,3.2c-1.2,0.8-3.5,1.8-5.9,2.6c-0.8,0-0.3,0.7-1.6,1.6c-0.2,0.2-0.7,0.1-0.9,0.2
                    c0,0.4,0.2,1.3-0.6,2.4c-1.1,1.4-3.1,1.5-4.4,1.1c-0.2-0.1-0.4-0.2-0.7-0.4c-1.3-0.7-2-1.6-2.2-1.8c-0.6-0.7-1-1-1-1.1
                    c-0.7-0.7-1.3-0.6-2.9-1.3c0,0-2.2-1-2.5-2c-0.1-0.3,0-0.6,0-0.6c0-0.1,0.1-0.1,0.1-0.2c-0.5,0-1-0.4-1-0.9c0-0.2,0-0.3,0.1-0.4
                    c-0.3-0.1-0.5-0.3-0.6-0.6c0-0.1-0.1-0.3-0.1-0.5c0-0.5,0.5-1,0.9-1.2c0.6-0.2,1.2,0.2,1.5,0.3c0.8,0.4,1.8,0.8,4.1,1
                    c2.2,0.2,3.5,0.3,4.9-0.3c0.7-0.3,1-0.7,3.1-2.8c1.9-1.8,2.5-2.8,3.7-4.1c0.6-0.6,2.8-3.2,5.2-4.3c3.4-1.7,9.7-3.1,13.3,0.4
                    c2.2,2.1,3.1,5.8,1.9,10.7c-1.7,7-7.8,10.6-8.8,12c8.6-3.5,10.9-8.7,12.6-16.1c4.7,2,9,0.4,12.7-2.8
                    c-11.9,2.7-21.4-3.7-7.1-16.9C83.9,72,80.2,76,78,81c-2.4-8.5,5.2-9.3,5-9.3c-2.3-0.3-4.4-0.3-6,1.6c-2.6,3,0,7.1,0.8,7.9
                    c-0.5-0.3-1.2-0.8-2.2-1.2c-6-2.4-12.2,1.3-12.8,1.7c-2.2,1.4-4.3,3.4-5.2,4.5c-0.2,0.3-1.2,1.4-2.5,2.8
                    c-0.3,0.3-0.7,0.7-1.2,1.2c-2.1,2-2.4,2.5-3.1,2.8c-1.6,0.7-3.1,0.6-4.9,0.3c-1.7-0.2-3.1-0.8-4.1-1.3c-1.1-0.3-2.2,0.3-2.4,1.1
                    c-0.2,0.8,0.4,1.6,0.4,1.6C39.2,94.8,38.2,94.8,37,94.4z"/>
            </g>
        </g>
        <path id="XMLID_3_" class="st1" d="M77.2,80.7c-0.3-0.3-0.7-0.6-1-0.8c-0.4-0.3-0.7-0.5-1.1-0.7c-0.8-0.4-1.6-0.8-2.4-1
            c-0.9-0.3-1.6-0.3-2.5-0.4c-0.9,0-1.7,0-2.5,0.1c-1.7,0.2-3.3,0.7-4.9,1.3c-1.6,0.6-2.9,1.6-4.3,2.6c-0.7,0.5-1.3,1.1-1.9,1.7
            c-0.6,0.6-1.3,1.3-1.9,1.9l-1,0.9l-1,0.9c-0.7,0.6-1.3,1.2-2,1.8c-0.4,0.3-0.7,0.6-1.3,0.9C49.1,89.9,49,90,48.9,90
            c-0.1,0-0.2,0.1-0.3,0.1c-0.3,0.1-0.5,0.1-0.8,0.2c-1,0.2-2,0.1-2.9-0.1c-0.9-0.2-1.8-0.3-2.7-0.6c-0.9-0.3-1.7-0.7-2.5-1.1l0.1,0
            c-0.2-0.1-0.3-0.1-0.5-0.1l-0.1,0c0,0,0,0,0,0l0,0c-0.1,0-0.1,0-0.1,0c-0.1,0-0.2,0-0.3,0.1c-0.3,0.1-0.7,0.4-0.8,0.6
            c-0.1,0.1-0.1,0.1-0.1,0.2c0,0.1,0,0.2,0,0.3c0,0.2,0.1,0.4,0.2,0.5c0.2,0.4,0.6,0.6,1,0.8l0.1,0.1l0,0.1c0,0.6,0.4,1.3,1,1.6
            c-0.6-0.2-1.3-0.8-1.4-1.6l0.1,0.2c-0.5-0.2-1-0.4-1.3-0.8c-0.2-0.2-0.3-0.5-0.4-0.7c0-0.1-0.1-0.3-0.1-0.4c0-0.1,0-0.4,0.1-0.5
            c0.2-0.6,0.7-1,1.2-1.3c0.1-0.1,0.3-0.1,0.4-0.1c0.1,0,0.2,0,0.2,0l0.1,0l0.1,0c0.3,0,0.6,0,0.9,0.1l0,0l0.1,0
            c0.8,0.4,1.6,0.6,2.4,0.8c0.8,0.2,1.7,0.3,2.5,0.4c0.8,0.1,1.6,0.1,2.4-0.1c0.2,0,0.4-0.1,0.5-0.1c0.1,0,0.2-0.1,0.3-0.1
            c0.1,0,0.1-0.1,0.2-0.1c0.2-0.1,0.6-0.4,0.9-0.7l2-1.8l1-0.9l0.9-0.9c0.6-0.6,1.3-1.3,1.9-1.9c0.7-0.6,1.4-1.2,2.1-1.8
            c0.7-0.6,1.5-1.1,2.3-1.6c0.8-0.5,1.7-0.9,2.5-1.2c1.7-0.6,3.6-1,5.4-1.1c0.9-0.1,1.9,0,2.8,0.2c0.9,0.2,1.9,0.4,2.7,0.8
            c0.9,0.3,1.7,0.8,2.4,1.4C76,79.4,76.7,80,77.2,80.7z"/>
    </g>
</g>
</svg>
